<?xml version="1.0" standalone="no"?>
<!DOCTYPE svg PUBLIC "-//W3C//DTD SVG 20010904//EN"
 "http://www.w3.org/TR/2001/REC-SVG-20010904/DTD/svg10.dtd">
<svg version="1.0" xmlns="http://www.w3.org/2000/svg"
 width="236.000000pt" height="237.000000pt" viewBox="0 0 236.000000 237.000000"
 preserveAspectRatio="xMidYMid meet">

<g transform="translate(0.000000,237.000000) scale(0.100000,-0.100000)"
fill="#000000" stroke="none">
<path d="M121 2360 c-8 -4 14 -10 50 -12 60 -5 78 -3 68 6 -9 8 -107 14 -118
6z"/>
<path d="M428 2363 c7 -3 16 -2 19 1 4 3 -2 6 -13 5 -11 0 -14 -3 -6 -6z"/>
<path d="M728 2363 c28 -2 76 -2 105 0 28 2 5 3 -53 3 -58 0 -81 -1 -52 -3z"/>
<path d="M921 2366 c2 -2 47 -6 99 -9 54 -3 82 -2 65 3 -30 8 -172 13 -164 6z"/>
<path d="M1720 2360 c0 -5 4 -10 9 -10 6 0 13 5 16 10 3 6 -1 10 -9 10 -9 0
-16 -4 -16 -10z"/>
<path d="M1888 2363 c18 -2 45 -2 60 0 15 2 0 4 -33 4 -33 0 -45 -2 -27 -4z"/>
<path d="M1993 2363 c9 -2 25 -2 35 0 9 3 1 5 -18 5 -19 0 -27 -2 -17 -5z"/>
<path d="M2070 2354 c-17 -10 -20 -14 -8 -14 23 0 48 11 48 21 0 12 -9 10 -40
-7z"/>
<path d="M2146 2356 c4 -11 12 -12 32 -6 15 5 36 11 47 13 11 3 -3 5 -32 6
-41 1 -51 -2 -47 -13z"/>
<path d="M2265 2357 c23 -18 63 -21 85 -7 12 8 9 10 -11 10 -15 0 -42 3 -60 6
-32 6 -33 6 -14 -9z"/>
<path d="M485 2330 c3 -5 18 -10 32 -10 32 0 28 5 -10 14 -19 4 -26 3 -22 -4z"/>
<path d="M2330 2330 c-12 -8 -11 -10 8 -10 12 0 22 5 22 10 0 13 -11 13 -30 0z"/>
<path d="M708 2303 c6 -2 18 -2 25 0 6 3 1 5 -13 5 -14 0 -19 -2 -12 -5z"/>
<path d="M488 2293 c6 -2 18 -2 25 0 6 3 1 5 -13 5 -14 0 -19 -2 -12 -5z"/>
<path d="M828 2283 c7 -3 16 -2 19 1 4 3 -2 6 -13 5 -11 0 -14 -3 -6 -6z"/>
<path d="M1120 2222 c0 -4 9 -39 20 -77 25 -89 25 -90 -7 -93 -37 -3 -42 -12
-7 -12 45 0 52 -10 74 -96 23 -90 58 -200 72 -228 7 -13 6 -21 -2 -26 -9 -6
-7 -11 6 -19 11 -6 16 -11 12 -11 -4 0 -3 -14 2 -31 l9 -31 -41 6 c-51 8 -61
14 -54 32 3 7 -9 27 -25 44 -25 24 -39 30 -75 30 -62 0 -94 -32 -94 -94 0 -39
-5 -50 -35 -78 -46 -42 -75 -88 -101 -161 l-20 -60 -105 -59 c-57 -33 -119
-74 -137 -91 -21 -20 -35 -28 -40 -21 -4 7 -15 8 -27 3 -19 -7 -18 -8 4 -8 22
-1 22 -2 -14 -42 -31 -35 -65 -94 -65 -114 0 -14 29 -2 50 20 16 18 33 25 54
24 53 -3 73 4 31 10 l-40 6 72 43 c39 23 76 42 82 42 5 0 31 11 57 25 57 30
55 30 45 3 -5 -13 -12 -46 -16 -75 -7 -51 -7 -51 -38 -47 -18 3 -50 1 -72 -4
-40 -9 -40 -9 33 -17 50 -5 72 -12 72 -21 0 -8 -9 -14 -20 -14 -11 0 -20 -4
-20 -9 0 -5 9 -7 21 -4 19 5 20 3 13 -43 -3 -27 -11 -59 -15 -72 -21 -56 -3
-127 29 -115 15 5 14 3 -3 -16 -22 -26 -22 -28 -1 -44 33 -26 -41 -158 -81
-143 -11 4 -14 2 -9 -9 3 -10 -2 -16 -17 -19 -35 -7 -173 -24 -287 -37 -134
-14 -260 -49 -260 -72 0 -5 9 -20 20 -34 11 -14 20 -40 20 -58 l0 -32 67 4
c48 3 64 1 53 -7 -8 -5 -32 -10 -53 -10 -36 0 -46 -15 -22 -32 20 -15 179 -3
248 18 18 6 18 6 0 27 -10 11 -13 18 -8 15 6 -4 10 13 10 43 0 38 4 49 16 49
9 0 19 3 23 8 4 4 48 7 97 7 68 0 89 -3 89 -14 0 -15 25 -13 140 14 92 21 293
26 311 8 15 -15 67 -17 89 -3 8 5 11 12 7 16 -9 9 -179 23 -297 24 -104 1
-226 27 -209 44 7 7 134 8 224 1 44 -3 73 -2 65 1 -8 3 -29 12 -47 20 -17 8
-38 14 -46 14 -15 0 -27 20 -27 45 0 19 29 47 41 39 6 -3 19 2 29 11 15 13 41
18 108 21 48 1 94 -1 102 -6 8 -6 12 -10 9 -10 -4 0 8 -17 27 -37 23 -25 32
-44 30 -59 -4 -18 2 -26 24 -36 16 -7 26 -16 24 -20 -3 -4 -4 -8 -2 -8 2 -1
77 -5 168 -10 91 -5 212 -18 270 -29 101 -19 137 -21 88 -6 -13 4 -26 12 -29
17 -4 6 -34 11 -69 13 -68 4 -94 14 -39 16 136 4 249 3 249 -3 0 -5 -6 -8 -14
-8 -7 0 -19 -7 -26 -15 -11 -13 -8 -16 19 -21 29 -6 30 -8 14 -20 -16 -12 -15
-14 12 -15 17 -1 55 -1 85 0 31 2 82 -4 115 -12 33 -8 93 -18 133 -22 72 -6
72 -6 72 19 0 22 -5 26 -46 32 -25 3 -41 10 -35 14 13 7 -161 31 -222 30 -25
-1 -36 3 -32 10 4 6 -7 10 -29 10 -20 0 -36 5 -36 10 0 6 15 10 33 10 l32 0
-30 16 c-27 15 -101 24 -330 40 -38 3 -83 11 -100 18 -16 8 -52 16 -80 18 -27
1 -52 6 -55 10 -14 18 -67 20 -84 3 -20 -20 -18 -22 -40 36 -10 29 -17 81 -19
140 -1 68 -6 97 -16 105 -9 7 -16 32 -17 65 -1 30 -2 60 -3 67 -2 27 -71 1
-71 -28 0 -7 8 -19 18 -26 14 -11 14 -13 2 -14 -26 0 -42 36 -28 60 7 11 20
20 28 20 10 0 7 7 -10 20 -23 19 -24 21 -7 34 18 14 25 52 7 41 -5 -3 -18 -1
-27 4 -16 9 -14 10 10 11 28 0 38 24 13 33 -17 7 -25 135 -15 232 6 54 4 75
-7 93 -13 19 -13 26 1 52 9 17 20 28 25 25 6 -4 10 6 10 20 0 23 3 25 23 19
12 -4 33 -8 47 -9 23 -2 27 -9 46 -91 12 -49 18 -91 14 -94 -4 -3 -4 -14 1
-25 5 -14 8 -15 9 -5 1 9 5 5 11 -9 6 -15 14 -21 25 -17 9 3 22 6 29 6 20 0
28 66 12 98 -7 15 -19 26 -25 25 -6 -2 -14 9 -17 25 -3 15 -12 54 -20 87 -8
33 -24 103 -35 155 -11 52 -27 124 -35 160 -8 36 -16 81 -18 101 -3 20 -8 42
-12 49 -5 8 2 10 27 5 67 -12 214 -21 243 -15 20 4 -8 9 -80 14 -198 13 -192
11 -205 67 -8 34 -22 58 -46 79 -32 28 -74 40 -74 22z m15 -611 c-3 -6 -14
-11 -23 -11 -15 1 -15 2 2 15 21 16 32 13 21 -4z m-85 -104 c0 -4 -7 -2 -15 7
-8 8 -15 21 -15 28 1 14 30 -20 30 -35z m-92 -183 c18 -12 20 -19 12 -35 -6
-11 -8 -24 -5 -29 3 -6 -1 -7 -10 -4 -25 10 -48 84 -27 84 4 0 18 -7 30 -16z
m169 -156 c-3 -8 -6 -5 -6 6 -1 11 2 17 5 13 3 -3 4 -12 1 -19z m-277 -58 c12
-22 11 -24 -2 -13 -8 7 -17 10 -21 7 -3 -3 -3 4 0 15 6 25 6 25 23 -9z m-20
-100 c-9 -5 -11 -20 -6 -46 5 -33 4 -35 -5 -14 -6 15 -7 48 -3 85 l7 60 10
-39 c7 -28 6 -40 -3 -46z m-15 -136 l-15 -29 0 26 c0 14 6 31 12 37 19 19 21
-1 3 -34z m22 -16 c-3 -8 -6 -5 -6 6 -1 11 2 17 5 13 3 -3 4 -12 1 -19z m-40
-95 c-3 -10 -5 -4 -5 12 0 17 2 24 5 18 2 -7 2 -21 0 -30z m183 -138 c0 -8 -4
-15 -10 -15 -5 0 -10 7 -10 15 0 8 5 15 10 15 6 0 10 -7 10 -15z m420 -65 c11
-8 7 -9 -15 -4 -37 8 -45 14 -19 14 10 0 26 -5 34 -10z m268 -49 c26 -1 41 -5
37 -11 -3 -5 -15 -10 -26 -10 -11 0 -17 -4 -14 -10 6 -10 -10 -15 -30 -10 -79
20 -139 27 -180 23 -34 -4 -47 -2 -40 5 16 16 45 20 130 17 44 -2 99 -4 123
-4z m-1303 -201 c6 -10 21 -8 65 8 12 5 13 3 2 -10 -10 -13 -9 -16 10 -21 30
-8 13 -23 -35 -30 -30 -5 -39 -2 -44 11 -9 23 -29 42 -37 35 -3 -4 -6 -1 -6 5
0 15 36 16 45 2z"/>
<path d="M460 2170 c0 -5 5 -10 10 -10 6 0 10 5 10 10 0 6 -4 10 -10 10 -5 0
-10 -4 -10 -10z"/>
<path d="M490 2170 c0 -5 5 -10 10 -10 6 0 10 5 10 10 0 6 -4 10 -10 10 -5 0
-10 -4 -10 -10z"/>
<path d="M530 2170 c0 -5 7 -10 15 -10 8 0 15 5 15 10 0 6 -7 10 -15 10 -8 0
-15 -4 -15 -10z"/>
<path d="M1073 2163 c9 -2 25 -2 35 0 9 3 1 5 -18 5 -19 0 -27 -2 -17 -5z"/>
<path d="M495 2130 c-4 -6 9 -10 32 -9 30 0 34 2 18 9 -27 12 -43 12 -50 0z"/>
<path d="M256 2093 c-3 -8 -6 -15 -6 -16 0 -8 148 -5 160 3 12 8 10 10 -10 11
-14 1 -35 1 -48 0 -12 -1 -38 2 -57 8 -27 7 -35 6 -39 -6z"/>
<path d="M1983 2099 c21 -5 59 -11 85 -13 135 -13 156 -15 142 -11 -8 2 -33 7
-55 11 -37 6 -38 8 -15 14 15 5 -20 8 -85 8 -86 0 -102 -2 -72 -9z"/>
<path d="M675 2090 c28 -12 45 -12 45 0 0 6 -15 10 -32 9 -28 0 -30 -2 -13 -9z"/>
<path d="M180 2080 c-11 -7 -5 -10 23 -10 23 0 36 4 32 10 -8 13 -35 13 -55 0z"/>
<path d="M805 2080 c-4 -6 5 -10 19 -10 14 0 26 5 26 10 0 6 -9 10 -19 10 -11
0 -23 -4 -26 -10z"/>
<path d="M1335 2080 c45 -12 97 -12 90 0 -3 6 -32 9 -63 9 -47 -1 -52 -3 -27
-9z"/>
<path d="M1620 2080 c0 -5 15 -10 33 -10 24 0 28 3 17 10 -20 13 -50 13 -50 0z"/>
<path d="M1708 2083 c7 -3 16 -2 19 1 4 3 -2 6 -13 5 -11 0 -14 -3 -6 -6z"/>
<path d="M1453 2073 c9 -2 23 -2 30 0 6 3 -1 5 -18 5 -16 0 -22 -2 -12 -5z"/>
<path d="M1815 2070 c3 -5 31 -8 63 -6 40 2 68 -3 95 -16 48 -24 161 -32 292
-20 l100 8 -100 8 c-55 4 -146 14 -203 22 -118 16 -256 19 -247 4z"/>
<path d="M0 2059 c0 -6 17 -9 43 -8 24 2 49 -1 57 -6 13 -8 13 -6 1 8 -15 19
-101 24 -101 6z"/>
<path d="M288 2053 c6 -2 18 -2 25 0 6 3 1 5 -13 5 -14 0 -19 -2 -12 -5z"/>
<path d="M1725 2035 c69 -16 134 -20 120 -6 -6 5 -48 12 -95 15 l-85 5 60 -14z"/>
<path d="M1550 2010 c0 -5 5 -10 11 -10 5 0 7 5 4 10 -3 6 -8 10 -11 10 -2 0
-4 -4 -4 -10z"/>
<path d="M1698 1853 c-49 -8 -30 -18 32 -18 36 0 59 4 57 10 -4 11 -47 15 -89
8z"/>
<path d="M898 1833 c6 -2 18 -2 25 0 6 3 1 5 -13 5 -14 0 -19 -2 -12 -5z"/>
<path d="M78 1793 c6 -2 18 -2 25 0 6 3 1 5 -13 5 -14 0 -19 -2 -12 -5z"/>
<path d="M1833 1793 c9 -2 23 -2 30 0 6 3 -1 5 -18 5 -16 0 -22 -2 -12 -5z"/>
<path d="M2238 1783 c7 -3 16 -2 19 1 4 3 -2 6 -13 5 -11 0 -14 -3 -6 -6z"/>
<path d="M1080 1776 c0 -2 18 -6 40 -8 22 -2 40 0 40 4 0 5 -18 8 -40 8 -22 0
-40 -2 -40 -4z"/>
<path d="M1998 1773 c7 -3 16 -2 19 1 4 3 -2 6 -13 5 -11 0 -14 -3 -6 -6z"/>
<path d="M38 1753 c7 -3 16 -2 19 1 4 3 -2 6 -13 5 -11 0 -14 -3 -6 -6z"/>
<path d="M533 1743 c9 -2 25 -2 35 0 9 3 1 5 -18 5 -19 0 -27 -2 -17 -5z"/>
<path d="M13 1713 c9 -2 23 -2 30 0 6 3 -1 5 -18 5 -17 0 -22 -2 -12 -5z"/>
<path d="M1865 1710 c-8 -13 25 -13 45 0 12 8 9 10 -12 10 -15 0 -30 -4 -33
-10z"/>
<path d="M335 1692 c-2 -2 -58 -5 -125 -7 -66 -1 -123 -5 -127 -9 -4 -3 45 -6
108 -6 63 0 128 -2 144 -5 17 -3 76 -7 133 -9 96 -4 101 -3 75 11 -18 9 -49
13 -90 11 -33 -2 -59 0 -57 3 4 8 -54 18 -61 11z"/>
<path d="M1888 1683 c6 -2 18 -2 25 0 6 3 1 5 -13 5 -14 0 -19 -2 -12 -5z"/>
<path d="M2048 1683 c12 -2 30 -2 40 0 9 3 -1 5 -23 4 -22 0 -30 -2 -17 -4z"/>
<path d="M2130 1686 c0 -2 9 -6 20 -9 11 -3 18 -1 14 4 -5 9 -34 13 -34 5z"/>
<path d="M2240 1678 c0 -5 27 -8 60 -8 33 0 60 3 60 8 0 4 -27 7 -60 7 -33 0
-60 -3 -60 -7z"/>
<path d="M590 1660 c0 -5 23 -10 51 -10 31 0 48 4 44 10 -3 6 -26 10 -51 10
-24 0 -44 -4 -44 -10z"/>
<path d="M1374 1639 c-3 -5 23 -9 58 -8 70 1 68 5 -5 12 -26 3 -50 1 -53 -4z"/>
<path d="M2048 1639 c13 -12 92 -21 92 -11 0 6 -22 12 -50 14 -27 1 -46 0 -42
-3z"/>
<path d="M1863 1623 c9 -2 25 -2 35 0 9 3 1 5 -18 5 -19 0 -27 -2 -17 -5z"/>
<path d="M1640 1600 c-33 -4 -40 -7 -25 -12 18 -6 112 -10 104 -5 -2 2 -11 7
-19 13 -8 5 -35 7 -60 4z"/>
<path d="M898 1593 c7 -3 16 -2 19 1 4 3 -2 6 -13 5 -11 0 -14 -3 -6 -6z"/>
<path d="M1825 1580 c-17 -7 -16 -9 10 -9 17 -1 39 -3 50 -5 11 -2 14 -1 8 1
-7 3 -13 9 -13 14 0 11 -28 11 -55 -1z"/>
<path d="M1945 1571 l-30 -8 37 -7 c42 -9 69 -5 69 9 0 13 -37 15 -76 6z"/>
<path d="M1928 1463 c6 -2 18 -2 25 0 6 3 1 5 -13 5 -14 0 -19 -2 -12 -5z"/>
<path d="M1265 1420 c-3 -5 2 -10 12 -10 17 -1 17 -1 1 -11 -22 -12 -25 -61
-4 -53 24 9 29 84 6 84 -5 0 -12 -4 -15 -10z"/>
<path d="M2330 1410 c19 -13 30 -13 30 0 0 6 -10 10 -22 10 -19 0 -20 -2 -8
-10z"/>
<path d="M680 1390 c0 -5 9 -10 20 -10 11 0 20 5 20 10 0 6 -9 10 -20 10 -11
0 -20 -4 -20 -10z"/>
<path d="M1918 1233 c7 -3 16 -2 19 1 4 3 -2 6 -13 5 -11 0 -14 -3 -6 -6z"/>
<path d="M30 1226 c0 -2 11 -6 25 -8 14 -3 25 -1 25 3 0 5 -11 9 -25 9 -14 0
-25 -2 -25 -4z"/>
<path d="M2092 1185 c-7 -14 -12 -35 -12 -45 0 -11 -7 -20 -15 -20 -9 0 -15 9
-15 23 0 15 -3 18 -9 9 -13 -21 -56 -40 -108 -48 l-48 -8 40 -7 c133 -24 275
-16 275 16 0 7 7 15 15 19 15 5 22 38 8 34 -5 -2 -9 1 -10 6 -2 12 -71 46 -93
46 -9 0 -22 -11 -28 -25z"/>
<path d="M2305 1146 c-33 -11 -37 -15 -22 -21 11 -4 23 -3 30 4 6 6 19 11 29
11 10 0 18 5 18 10 0 12 -4 12 -55 -4z"/>
<path d="M1955 1140 c-18 -8 -17 -9 8 -9 15 -1 27 4 27 9 0 12 -8 12 -35 0z"/>
<path d="M200 1130 c0 -13 11 -13 30 0 12 8 11 10 -7 10 -13 0 -23 -4 -23 -10z"/>
<path d="M1570 1130 c8 -5 20 -10 25 -10 6 0 3 5 -5 10 -8 5 -19 10 -25 10 -5
0 -3 -5 5 -10z"/>
<path d="M265 1121 c-3 -5 -19 -12 -36 -16 -39 -9 -31 -17 20 -20 32 -2 38 1
33 14 -5 14 -4 14 11 2 23 -18 32 -8 12 13 -19 18 -31 20 -40 7z"/>
<path d="M1320 1120 c0 -5 24 -10 53 -11 28 0 59 -2 68 -4 9 -1 32 1 50 5 34
8 34 8 -11 10 -25 1 -71 4 -102 6 -35 3 -58 0 -58 -6z"/>
<path d="M1618 1123 c6 -2 18 -2 25 0 6 3 1 5 -13 5 -14 0 -19 -2 -12 -5z"/>
<path d="M1560 1099 c0 -5 9 -9 20 -9 11 0 20 2 20 4 0 2 -9 6 -20 9 -11 3
-20 1 -20 -4z"/>
<path d="M1690 1090 c-12 -8 -10 -10 8 -10 13 0 20 4 17 10 -7 12 -6 12 -25 0z"/>
<path d="M1750 1077 c0 -14 5 -14 160 -21 71 -3 105 -2 90 3 -14 5 -56 10 -95
10 -38 1 -64 5 -58 9 7 4 -12 8 -42 9 -36 1 -55 -3 -55 -10z"/>
<path d="M1598 1053 c6 -2 18 -2 25 0 6 3 1 5 -13 5 -14 0 -19 -2 -12 -5z"/>
<path d="M0 1041 c0 -9 230 -36 251 -29 15 5 -181 38 -225 38 -14 0 -26 -4
-26 -9z"/>
<path d="M1307 1021 c-6 -26 1 -33 23 -21 29 16 33 40 6 40 -15 0 -26 -7 -29
-19z"/>
<path d="M1507 1034 c-14 -15 -6 -34 14 -34 14 0 19 5 17 17 -3 18 -20 27 -31
17z"/>
<path d="M1390 1019 c0 -4 7 -6 15 -3 8 4 15 1 15 -5 0 -6 17 -11 37 -11 29 0
34 3 25 12 -14 14 -92 20 -92 7z"/>
<path d="M1990 980 c0 -5 5 -10 10 -10 6 0 10 5 10 10 0 6 -4 10 -10 10 -5 0
-10 -4 -10 -10z"/>
<path d="M2270 980 c0 -5 5 -10 10 -10 6 0 10 5 10 10 0 6 -4 10 -10 10 -5 0
-10 -4 -10 -10z"/>
<path d="M1778 969 c-70 -8 -103 -27 -110 -64 -3 -18 3 -20 71 -23 45 -2 79
-8 87 -17 15 -14 54 -9 54 7 0 5 -8 12 -18 15 -23 6 -42 36 -33 51 5 8 16 9
43 0 30 -9 39 -8 53 5 15 15 14 17 -7 21 -50 10 -76 11 -140 5z"/>
<path d="M2051 977 c2 -1 13 -9 23 -17 11 -8 17 -10 13 -3 -4 7 0 13 10 16 10
3 3 5 -16 6 -19 0 -32 0 -30 -2z"/>
<path d="M1562 959 c-51 -11 -62 -28 -16 -24 22 1 47 5 56 7 51 12 12 28 -40
17z"/>
<path d="M2138 963 c7 -3 16 -2 19 1 4 3 -2 6 -13 5 -11 0 -14 -3 -6 -6z"/>
<path d="M1984 949 c-9 -15 14 -18 32 -4 18 13 18 14 -4 12 -13 -1 -26 -5 -28
-8z"/>
<path d="M0 920 c0 -24 4 -30 20 -30 28 0 48 20 42 42 -3 12 -14 18 -33 18
-26 0 -29 -4 -29 -30z"/>
<path d="M1458 943 c7 -3 16 -2 19 1 4 3 -2 6 -13 5 -11 0 -14 -3 -6 -6z"/>
<path d="M196 926 c3 -8 16 -16 29 -19 15 -2 22 0 18 6 -4 7 1 8 12 3 15 -5
16 -4 5 9 -16 20 -72 21 -64 1z"/>
<path d="M1910 911 c0 -5 14 -11 30 -13 32 -5 41 6 14 16 -23 9 -44 7 -44 -3z"/>
<path d="M2055 900 c-25 -6 -21 -7 23 -8 28 0 52 4 52 9 0 10 -31 10 -75 -1z"/>
<path d="M374 883 c-10 -7 -27 -13 -38 -13 -19 -1 -19 -2 -4 -11 10 -5 67 -8
130 -7 62 2 149 0 193 -4 81 -8 68 4 -20 18 -156 24 -244 29 -261 17z"/>
<path d="M1318 893 c7 -3 16 -2 19 1 4 3 -2 6 -13 5 -11 0 -14 -3 -6 -6z"/>
<path d="M1329 857 c5 -5 26 -7 47 -5 l39 3 -47 5 c-26 3 -43 1 -39 -3z"/>
<path d="M1763 853 c9 -2 25 -2 35 0 9 3 1 5 -18 5 -19 0 -27 -2 -17 -5z"/>
<path d="M2126 833 c3 -11 15 -18 30 -18 29 0 30 3 7 21 -25 19 -42 17 -37 -3z"/>
<path d="M1788 823 c12 -2 32 -2 45 0 12 2 2 4 -23 4 -25 0 -35 -2 -22 -4z"/>
<path d="M1525 799 c32 -10 61 -16 64 -14 2 3 -5 7 -15 11 -10 3 -29 10 -42
15 -13 5 -33 9 -45 8 -12 0 5 -9 38 -20z"/>
<path d="M1330 776 c0 -16 19 -25 38 -19 10 4 10 8 1 19 -15 18 -39 18 -39 0z"/>
<path d="M1618 783 c6 -2 18 -2 25 0 6 3 1 5 -13 5 -14 0 -19 -2 -12 -5z"/>
<path d="M1830 780 c0 -13 11 -13 30 0 12 8 11 10 -7 10 -13 0 -23 -4 -23 -10z"/>
<path d="M0 770 c0 -5 5 -10 11 -10 5 0 7 5 4 10 -3 6 -8 10 -11 10 -2 0 -4
-4 -4 -10z"/>
<path d="M408 763 c7 -3 16 -2 19 1 4 3 -2 6 -13 5 -11 0 -14 -3 -6 -6z"/>
<path d="M579 761 c14 -4 27 -13 29 -20 3 -10 -2 -12 -18 -8 -14 3 -19 2 -14
-3 14 -14 187 -31 198 -20 6 6 2 12 -10 15 -10 4 -30 11 -43 16 -15 6 -28 6
-36 -1 -9 -8 -15 -8 -20 0 -3 5 -3 11 2 11 16 3 -53 17 -82 17 -28 0 -28 -1
-6 -7z"/>
<path d="M1920 762 c0 -19 13 -20 95 -12 l80 7 -65 2 c-36 1 -75 4 -87 7 -13
4 -23 2 -23 -4z"/>
<path d="M2305 760 c-4 -6 5 -10 20 -10 15 0 24 4 20 10 -3 6 -12 10 -20 10
-8 0 -17 -4 -20 -10z"/>
<path d="M50 746 c0 -2 9 -6 20 -9 11 -3 20 -1 20 4 0 5 -9 9 -20 9 -11 0 -20
-2 -20 -4z"/>
<path d="M2248 743 c6 -2 18 -2 25 0 6 3 1 5 -13 5 -14 0 -19 -2 -12 -5z"/>
<path d="M113 733 c9 -2 23 -2 30 0 6 3 -1 5 -18 5 -16 0 -22 -2 -12 -5z"/>
<path d="M400 729 c0 -5 5 -7 10 -4 6 3 10 8 10 11 0 2 -4 4 -10 4 -5 0 -10
-5 -10 -11z"/>
<path d="M183 723 c9 -2 23 -2 30 0 6 3 -1 5 -18 5 -16 0 -22 -2 -12 -5z"/>
<path d="M468 723 c6 -2 18 -2 25 0 6 3 1 5 -13 5 -14 0 -19 -2 -12 -5z"/>
<path d="M1978 723 c7 -3 16 -2 19 1 4 3 -2 6 -13 5 -11 0 -14 -3 -6 -6z"/>
<path d="M7 713 c7 -2 19 -2 26 0 6 3 1 5 -13 5 -14 0 -19 -2 -13 -5z"/>
<path d="M260 710 c0 -5 10 -10 23 -10 18 0 19 2 7 10 -19 13 -30 13 -30 0z"/>
<path d="M81 706 c8 -8 181 -37 187 -32 3 4 3 6 1 6 -2 0 -42 7 -89 15 -89 16
-106 18 -99 11z"/>
<path d="M1449 705 c-3 -2 -30 -8 -60 -13 -49 -7 -54 -10 -51 -32 3 -33 18
-40 83 -40 40 0 61 5 70 16 9 11 23 14 46 11 l32 -6 -34 35 c-30 30 -72 44
-86 29z"/>
<path d="M1565 689 c18 -5 33 -5 39 1 7 7 -4 10 -29 9 -40 -1 -40 -1 -10 -10z"/>
<path d="M1725 691 c-14 -6 2 -10 53 -12 66 -4 91 2 60 13 -23 8 -93 7 -113
-1z"/>
<path d="M2270 690 c-28 -9 -12 -13 40 -10 47 2 65 20 20 19 -19 -1 -46 -5
-60 -9z"/>
<path d="M88 673 c7 -3 16 -2 19 1 4 3 -2 6 -13 5 -11 0 -14 -3 -6 -6z"/>
<path d="M440 640 c20 -13 43 -13 35 0 -3 6 -16 10 -28 10 -18 0 -19 -2 -7
-10z"/>
<path d="M1618 643 c6 -2 18 -2 25 0 6 3 1 5 -13 5 -14 0 -19 -2 -12 -5z"/>
<path d="M2006 615 c-17 -13 -17 -14 10 -20 16 -4 41 -11 56 -17 27 -10 84 -3
93 12 4 7 -38 19 -120 35 -11 2 -28 -2 -39 -10z m47 -12 c-7 -2 -19 -2 -25 0
-7 3 -2 5 12 5 14 0 19 -2 13 -5z"/>
<path d="M1076 612 c-3 -5 -20 -12 -37 -16 -67 -13 -1 -33 94 -28 44 2 51 27
10 34 -16 3 -35 8 -44 12 -10 4 -20 3 -23 -2z"/>
<path d="M1640 610 c8 -5 20 -10 25 -10 6 0 3 5 -5 10 -8 5 -19 10 -25 10 -5
0 -3 -5 5 -10z"/>
<path d="M1913 613 c9 -2 25 -2 35 0 9 3 1 5 -18 5 -19 0 -27 -2 -17 -5z"/>
<path d="M571 606 c12 -10 60 -16 54 -6 -3 5 -18 10 -32 10 -15 0 -24 -2 -22
-4z"/>
<path d="M668 603 c7 -3 16 -2 19 1 4 3 -2 6 -13 5 -11 0 -14 -3 -6 -6z"/>
<path d="M2200 581 c0 -11 88 -27 97 -17 10 9 2 13 -49 20 -30 5 -48 3 -48 -3z"/>
<path d="M635 540 c-16 -7 -12 -9 18 -9 23 -1 36 3 32 9 -7 12 -23 12 -50 0z"/>
<path d="M948 543 c6 -2 18 -2 25 0 6 3 1 5 -13 5 -14 0 -19 -2 -12 -5z"/>
<path d="M2115 525 c22 -8 159 -12 140 -4 -11 4 -49 8 -85 8 -36 -1 -60 -2
-55 -4z"/>
<path d="M1118 493 c6 -2 18 -2 25 0 6 3 1 5 -13 5 -14 0 -19 -2 -12 -5z"/>
<path d="M2181 496 c10 -9 79 -14 74 -5 -4 5 -22 9 -42 9 -20 0 -34 -2 -32 -4z"/>
<path d="M1848 433 c7 -3 16 -2 19 1 4 3 -2 6 -13 5 -11 0 -14 -3 -6 -6z"/>
<path d="M37 395 c-4 -8 -12 -15 -20 -15 -9 0 -14 -15 -16 -45 -1 -26 2 -45 9
-45 5 0 10 8 10 18 0 9 14 30 30 46 17 17 29 35 27 40 -6 18 -34 18 -40 1z"/>
<path d="M2165 335 c23 -8 83 -10 79 -3 -3 4 -24 8 -47 7 -23 0 -37 -2 -32 -4z"/>
<path d="M2308 303 c12 -2 30 -2 40 0 9 3 -1 5 -23 4 -22 0 -30 -2 -17 -4z"/>
<path d="M1066 286 c3 -7 13 -12 23 -9 10 2 38 -4 62 -15 47 -21 174 -39 164
-23 -3 6 -13 10 -23 9 -9 0 -55 10 -102 21 -136 34 -130 33 -124 17z"/>
<path d="M0 230 l0 -41 32 17 c27 14 30 18 17 28 -9 6 -14 17 -12 24 3 7 -4
12 -16 12 -18 0 -21 -6 -21 -40z"/>
<path d="M1453 213 c9 -2 23 -2 30 0 6 3 -1 5 -18 5 -16 0 -22 -2 -12 -5z"/>
<path d="M998 203 c7 -3 16 -2 19 1 4 3 -2 6 -13 5 -11 0 -14 -3 -6 -6z"/>
<path d="M68 173 c7 -3 16 -2 19 1 4 3 -2 6 -13 5 -11 0 -14 -3 -6 -6z"/>
<path d="M118 133 c7 -3 16 -2 19 1 4 3 -2 6 -13 5 -11 0 -14 -3 -6 -6z"/>
<path d="M1100 82 c0 -12 40 -29 87 -38 21 -3 43 -11 50 -16 6 -5 31 -8 55 -6
41 3 42 4 13 11 -16 5 -64 19 -106 32 -82 27 -99 30 -99 17z"/>
</g>
</svg>
