<?xml version="1.0" standalone="no"?>
<!DOCTYPE svg PUBLIC "-//W3C//DTD SVG 20010904//EN"
 "http://www.w3.org/TR/2001/REC-SVG-20010904/DTD/svg10.dtd">
<svg version="1.0" xmlns="http://www.w3.org/2000/svg"
 width="675.000000pt" height="1200.000000pt" viewBox="0 0 675.000000 1200.000000"
 preserveAspectRatio="xMidYMid meet">

<g transform="translate(0.000000,1200.000000) scale(0.100000,-0.100000)"
fill="#000000" stroke="none">
<path d="M5022 10339 c-12 -5 -22 -13 -22 -19 0 -5 -6 -10 -14 -10 -8 0 -29
-20 -47 -45 -18 -25 -35 -45 -39 -45 -4 0 -12 -12 -19 -26 -6 -14 -44 -62 -84
-106 -39 -43 -75 -89 -80 -100 -4 -11 -21 -36 -38 -56 -17 -19 -38 -50 -47
-68 -8 -19 -19 -34 -24 -34 -4 0 -8 -6 -8 -14 0 -8 -7 -16 -15 -20 -8 -3 -15
-10 -15 -16 0 -6 -13 -28 -29 -48 -17 -20 -33 -50 -37 -67 -9 -41 -23 -57 -45
-50 -19 6 -92 -3 -254 -30 -170 -30 -210 -36 -230 -39 -50 -6 -126 -18 -195
-31 -81 -15 -163 -28 -310 -50 -186 -28 -219 -33 -231 -41 -7 -4 -28 -7 -47
-6 -19 1 -40 -2 -46 -6 -6 -3 -32 -8 -58 -9 -26 -1 -52 -4 -58 -8 -6 -4 7 -27
34 -58 24 -29 47 -63 51 -75 4 -13 13 -31 21 -40 54 -64 81 -101 94 -127 8
-16 18 -32 22 -35 11 -9 21 -60 11 -60 -5 0 -19 20 -31 45 -12 25 -26 45 -32
45 -5 0 -16 12 -24 28 -8 15 -31 45 -50 66 -20 22 -36 46 -36 54 0 14 -188
202 -202 202 -5 0 -8 7 -8 15 0 8 -5 15 -10 15 -6 0 -20 11 -32 25 -11 13 -24
22 -28 20 -5 -3 -10 2 -14 10 -3 8 -12 15 -21 15 -8 0 -15 5 -15 11 0 15 -62
89 -75 89 -15 0 -65 53 -65 68 0 7 -12 13 -27 13 -17 1 -21 3 -10 6 25 6 21
23 -5 24 -13 0 -17 3 -10 6 13 5 -15 24 -87 58 -19 9 -43 27 -53 41 l-19 24
-52 -27 c-29 -15 -53 -28 -55 -29 -13 -9 -52 -155 -53 -201 -2 -62 15 -202 35
-293 l13 -55 -46 -11 c-25 -7 -89 -17 -141 -24 -52 -6 -111 -16 -130 -20 -19
-5 -82 -16 -140 -25 -58 -9 -121 -21 -139 -27 -19 -6 -83 -10 -143 -10 -76 1
-110 -2 -115 -11 -13 -21 -78 -35 -130 -29 -26 3 -78 6 -114 6 -61 0 -69 -2
-97 -31 -22 -21 -46 -33 -74 -38 -24 -3 -77 -12 -118 -20 -41 -8 -113 -19
-160 -25 -103 -15 -238 -36 -305 -50 -27 -6 -106 -19 -175 -29 -69 -11 -136
-22 -150 -25 -14 -3 -46 -8 -72 -11 l-48 -6 0 -41 0 -41 43 6 c72 10 287 45
412 67 66 12 147 25 180 31 33 5 105 16 160 24 55 9 127 20 160 25 124 20 244
39 378 61 l138 23 37 -19 c35 -20 40 -29 62 -111 10 -39 13 -42 50 -46 34 -3
37 -2 26 12 -7 8 -21 43 -30 77 -16 58 -16 64 0 88 9 14 28 28 43 31 14 3 31
7 37 9 7 2 70 13 140 24 71 12 152 25 179 31 28 5 82 14 120 20 94 14 165 30
164 38 -1 4 -1 17 0 30 1 32 18 19 26 -21 4 -17 11 -36 15 -42 4 -5 14 -29 21
-53 7 -23 18 -47 26 -53 7 -6 13 -18 13 -25 0 -8 14 -42 31 -76 36 -75 79
-201 79 -234 0 -15 6 -24 16 -24 13 0 15 -7 10 -33 -4 -22 -1 -40 9 -52 8 -11
15 -27 15 -37 0 -9 5 -18 12 -20 30 -10 11 -187 -27 -241 -9 -13 -12 -48 -9
-125 11 -300 11 -343 3 -348 -5 -3 -9 -14 -9 -24 0 -22 -37 -36 -120 -45 -30
-3 -84 -10 -120 -15 -36 -5 -108 -14 -160 -20 -52 -6 -147 -18 -210 -26 -63
-8 -223 -28 -354 -45 -237 -29 -240 -30 -276 -62 -36 -31 -114 -92 -440 -346
-85 -66 -159 -124 -165 -128 -5 -5 -30 -24 -55 -42 -25 -19 -54 -43 -65 -53
-11 -10 -56 -46 -100 -79 -44 -33 -84 -66 -90 -72 -5 -7 -27 -23 -47 -36 -21
-12 -38 -27 -38 -32 0 -5 -7 -9 -15 -9 -8 0 -15 -4 -15 -8 0 -4 -25 -25 -56
-47 -31 -22 -72 -57 -92 -77 -19 -21 -39 -38 -45 -38 -5 0 -22 -9 -38 -21
l-29 -20 0 -2177 c1 -1812 3 -2174 14 -2159 7 9 18 17 24 17 6 0 20 14 32 30
12 17 27 30 35 30 7 0 15 7 19 15 3 8 16 15 30 15 15 0 25 7 29 20 3 12 14 20
25 20 12 0 24 5 28 11 3 6 22 17 41 25 20 9 33 21 31 29 -2 9 8 21 22 28 13 7
29 21 35 32 17 32 61 75 78 75 22 0 32 20 16 31 -8 5 -24 9 -37 9 -20 0 -22 4
-16 23 13 41 9 50 -24 59 -32 9 -45 28 -18 28 16 0 27 22 18 37 -4 5 -15 13
-26 16 -15 6 -16 10 -6 22 6 8 9 19 5 26 -4 6 -1 15 6 20 11 7 9 10 -8 15 -29
8 -29 18 1 41 17 14 25 32 27 59 3 33 9 42 39 59 40 24 53 55 21 55 -18 0 -19
2 -5 29 8 15 32 41 54 56 49 34 54 59 10 53 l-31 -5 36 37 c37 38 45 66 19 72
-12 2 -9 10 15 33 21 21 28 36 25 51 -3 12 0 41 6 65 8 30 9 44 1 47 -6 2 -2
12 9 25 25 26 25 42 1 66 -22 22 -23 53 -1 62 8 3 15 11 15 17 0 6 18 28 40
49 78 75 110 117 107 141 -3 21 -22 32 -22 12 0 -5 -7 -10 -15 -10 -8 0 -15 5
-15 10 0 6 5 10 11 10 15 0 39 26 32 34 -4 3 -16 6 -27 7 -14 0 -6 7 24 20 55
24 79 54 80 96 0 17 5 35 10 38 6 4 8 15 5 25 -4 12 8 32 40 63 l46 46 -36 7
c-19 3 -35 9 -35 13 0 4 22 13 49 20 41 10 48 16 44 32 -3 10 -12 19 -19 19
-36 0 6 29 81 55 13 5 15 9 8 12 -18 7 -16 23 3 23 10 0 14 6 10 15 -4 11 2
15 22 15 20 0 23 3 13 9 -12 8 -12 12 -2 25 8 9 22 16 33 16 10 0 17 4 14 9
-3 4 -17 6 -31 4 -34 -7 -81 5 -68 18 5 5 19 11 31 14 12 2 29 8 38 13 14 8
14 10 -1 25 -15 16 -15 17 7 17 29 0 76 31 71 47 -2 6 6 13 19 15 13 2 24 11
26 23 2 11 11 26 20 33 10 7 17 18 17 25 0 6 12 18 28 25 15 7 27 17 27 21 0
5 19 17 43 27 29 12 37 19 24 21 -39 9 -12 21 86 37 60 9 144 15 204 14 71 -2
106 1 115 10 9 9 3 12 -33 13 l-44 1 39 8 c21 4 46 6 55 3 9 -2 28 8 43 22 25
23 28 24 43 8 14 -14 15 -17 3 -24 -22 -12 -15 -52 11 -65 16 -8 19 -13 9 -17
-7 -3 3 -6 23 -6 51 -1 82 -29 83 -73 1 -20 7 -42 14 -50 6 -8 10 -17 7 -20
-3 -2 8 -17 25 -31 16 -15 30 -34 30 -42 0 -8 4 -15 9 -15 5 0 9 -10 8 -22 0
-13 3 -31 8 -41 4 -10 4 -17 -1 -15 -12 4 -13 -12 -3 -40 5 -13 9 -30 9 -39 0
-8 9 -27 20 -42 36 -52 48 -179 22 -243 -8 -19 -8 -28 -1 -28 6 0 7 -4 4 -10
-3 -5 0 -10 7 -10 7 0 18 -8 24 -18 13 -21 1 -44 -30 -55 -13 -5 -17 -14 -13
-30 20 -80 32 -114 49 -130 23 -23 23 -31 -5 -50 -21 -14 -21 -16 -5 -33 11
-13 15 -31 12 -57 -4 -33 0 -42 32 -71 36 -33 36 -33 41 -134 4 -102 4 -102
-19 -102 -13 0 -40 11 -61 26 -37 25 -77 36 -130 37 -21 0 -25 2 -15 9 9 7 7
8 -9 5 -15 -3 -23 1 -26 14 -3 11 -21 26 -40 34 -19 8 -37 21 -40 30 -4 8 -13
15 -20 15 -8 0 -28 7 -44 15 -27 14 -34 13 -69 -1 -45 -19 -56 -32 -48 -58 5
-16 2 -18 -21 -14 -23 5 -28 1 -37 -23 -5 -16 -22 -35 -36 -42 -15 -7 -28 -22
-30 -35 -3 -16 -10 -22 -28 -22 -13 0 -24 -5 -24 -10 0 -12 -49 -34 -67 -31
-15 2 -36 -36 -28 -49 3 -6 1 -10 -4 -10 -6 0 -11 -7 -11 -15 0 -24 -43 -39
-70 -25 -18 10 -21 9 -18 -2 3 -7 18 -16 34 -19 16 -4 21 -7 10 -8 -12 -1 -16
-6 -12 -16 9 -24 -19 -18 -47 10 -17 18 -26 22 -29 13 -8 -23 4 -48 23 -48 10
0 21 -5 24 -10 3 -6 -2 -10 -12 -10 -39 0 -73 -24 -73 -52 0 -15 5 -30 10 -33
17 -10 11 -25 -7 -18 -12 5 -15 2 -11 -9 4 -9 1 -21 -5 -27 -9 -10 -7 -16 7
-27 16 -11 17 -14 4 -14 -9 0 -18 -6 -21 -12 -3 -10 -9 -10 -28 -2 -47 23 -97
44 -103 44 -4 0 14 -19 38 -43 36 -34 44 -48 39 -66 -5 -20 -10 -22 -36 -17
-17 4 -33 10 -37 14 -24 32 -81 60 -135 66 -33 3 -72 7 -88 10 l-27 4 25 -31
c14 -18 30 -37 35 -44 17 -20 12 -35 -10 -28 -16 5 -20 2 -20 -19 0 -18 -6
-26 -17 -27 -12 -1 -10 -4 7 -9 14 -5 18 -8 9 -9 -9 -1 -22 -7 -28 -14 -8 -11
-4 -21 19 -43 33 -32 38 -54 14 -54 -10 0 -14 6 -11 14 9 23 -15 36 -68 36
-30 0 -45 -4 -37 -9 24 -15 -14 -34 -56 -28 -37 6 -92 -10 -92 -26 0 -5 7 -24
16 -42 12 -26 13 -38 4 -54 -10 -20 -8 -21 60 -21 40 0 70 4 70 10 0 17 31 11
48 -9 22 -25 100 -35 126 -16 11 9 24 11 30 6 6 -5 28 -11 48 -15 31 -6 38 -4
38 9 0 9 -7 23 -15 31 -17 18 -20 34 -5 34 6 0 14 -10 19 -22 5 -13 19 -31 31
-42 23 -18 23 -18 16 8 -8 34 14 26 37 -13 12 -21 22 -28 37 -24 11 3 22 9 25
13 3 5 35 1 72 -9 38 -9 77 -16 88 -15 11 1 39 2 63 3 38 1 43 3 37 20 -5 18
0 20 47 23 55 3 54 2 41 51 -3 9 -1 17 5 17 6 0 12 -7 14 -16 2 -9 20 -22 42
-29 39 -14 70 -10 60 6 -3 5 -10 7 -15 4 -19 -12 -30 7 -12 22 16 13 15 14
-20 8 -23 -4 -37 -2 -37 5 0 5 18 10 41 10 32 0 42 -4 46 -19 2 -10 15 -24 28
-31 28 -15 37 -53 19 -79 -8 -11 -13 -30 -12 -43 2 -18 -1 -22 -16 -20 -14 3
-17 -1 -13 -12 4 -10 1 -16 -7 -16 -8 0 -17 6 -19 13 -3 6 -6 4 -6 -7 -1 -10
7 -25 17 -32 13 -10 15 -15 5 -25 -10 -10 -16 -9 -26 6 -10 12 -16 15 -21 6
-4 -6 0 -14 8 -17 9 -3 16 -11 16 -18 0 -6 9 -17 20 -24 11 -7 20 -19 20 -27
0 -8 9 -23 20 -32 11 -10 20 -30 20 -45 0 -25 -3 -28 -36 -28 -31 0 -35 -2
-24 -15 15 -18 42 -19 58 -3 9 9 12 8 12 -6 0 -9 5 -14 10 -11 6 3 10 -1 10
-10 0 -9 4 -13 10 -10 13 8 5 51 -9 47 -6 -1 -11 4 -11 11 0 21 12 28 27 16
10 -9 15 -5 24 20 6 17 15 28 20 25 5 -3 9 -1 9 4 0 5 10 21 23 34 12 14 39
45 60 68 24 28 37 52 37 70 0 52 6 57 68 52 57 -4 58 -4 82 32 14 20 29 36 34
36 5 0 28 20 52 44 23 24 50 46 60 48 10 2 20 12 22 23 4 23 64 81 93 90 10 4
20 16 20 28 1 12 3 49 4 82 1 33 5 67 8 75 11 30 17 99 8 104 -4 3 -6 17 -3
31 2 14 -2 32 -9 41 -15 19 -22 114 -8 114 14 0 -1 82 -18 102 -9 10 -13 28
-9 49 3 18 0 39 -5 46 -8 8 -7 23 1 48 10 31 9 39 -4 54 -18 20 -21 47 -6 56
6 4 10 14 9 23 -3 32 1 41 22 47 11 4 25 17 31 30 11 24 85 59 109 51 8 -2 26
-7 41 -10 19 -4 26 -11 22 -21 -9 -22 23 -19 84 10 30 14 58 22 63 19 6 -3 24
5 42 18 44 34 121 78 135 78 20 0 13 -16 -13 -30 -27 -15 -68 -76 -62 -93 5
-15 -46 -58 -54 -45 -4 5 -18 -1 -33 -16 -15 -14 -33 -27 -39 -29 -7 -3 -8 -8
-3 -13 5 -5 11 -4 13 4 3 6 11 12 19 12 23 0 -90 -106 -122 -114 -16 -4 -43
-19 -61 -32 -32 -24 -32 -25 -13 -44 26 -26 60 -25 111 1 22 11 46 18 52 16 7
-2 26 0 42 5 17 6 46 12 65 14 37 5 60 20 60 38 0 16 58 46 75 40 8 -4 15 -1
15 6 0 7 8 9 19 5 11 -3 23 0 28 7 13 20 74 49 86 41 7 -4 22 -8 33 -8 12 0
29 -7 39 -15 14 -12 18 -12 26 1 14 22 11 69 -4 69 -8 0 -22 -9 -32 -20 -21
-24 -37 -14 -29 16 5 18 17 28 67 52 4 2 7 -3 7 -12 0 -9 7 -16 15 -16 8 0 15
6 15 13 0 7 10 24 21 36 17 18 19 25 8 31 -10 7 -10 14 -1 35 15 33 18 25 -23
76 -19 24 -35 47 -35 50 0 4 10 10 23 13 20 6 21 7 4 17 -14 8 -17 18 -12 39
5 24 2 31 -24 46 -55 32 -42 74 23 74 31 0 33 14 7 57 -17 26 -28 33 -73 40
-50 8 -53 10 -53 37 -1 15 -9 34 -19 42 -11 7 -16 20 -13 29 4 8 2 15 -2 15
-5 0 -12 -7 -15 -16 -3 -8 -10 -13 -15 -10 -4 3 -16 -3 -25 -13 -16 -18 -59
-31 -116 -36 -56 -4 -89 -18 -104 -41 -9 -13 -25 -24 -37 -24 -11 0 -22 -7
-25 -15 -4 -8 -10 -13 -14 -10 -4 3 -25 -9 -45 -25 -21 -17 -45 -30 -53 -30
-9 0 -23 -7 -33 -16 -11 -10 -19 -12 -24 -5 -3 6 2 14 12 18 10 4 29 18 43 31
l25 24 -40 -7 c-21 -4 -47 -15 -56 -26 -21 -24 -48 -27 -28 -2 12 14 12 15 -1
10 -8 -4 -23 -10 -32 -13 -10 -4 -18 -11 -18 -16 0 -5 5 -6 12 -2 8 5 9 2 5
-10 -4 -10 -7 -22 -7 -27 0 -5 -4 -9 -10 -9 -16 0 -47 -35 -42 -48 2 -7 -4
-12 -12 -12 -17 0 -47 -29 -45 -44 1 -12 -22 -26 -42 -26 -22 0 -54 97 -38
116 6 8 9 27 6 44 -5 21 -2 32 9 38 15 8 15 12 -1 35 -16 26 -16 27 9 50 14
13 26 31 26 39 0 9 7 21 16 29 8 7 13 21 11 31 -3 11 2 22 15 29 16 9 17 13 7
25 -10 13 -10 17 0 23 7 5 15 26 17 47 7 57 11 64 34 64 11 0 20 6 20 14 0 8
18 21 40 30 39 16 52 39 28 50 -7 2 1 4 17 4 42 -2 75 11 75 28 0 11 6 13 19
9 11 -3 35 3 58 16 36 21 123 42 123 30 -1 -9 -86 -61 -100 -61 -9 0 -10 -3
-1 -13 6 -8 9 -16 6 -18 -2 -3 -6 -19 -10 -37 -5 -31 -5 -32 33 -32 21 0 43
-5 49 -11 7 -7 17 -7 29 -1 24 12 107 33 159 39 21 3 49 12 61 19 12 8 29 12
38 8 9 -3 16 -1 16 5 0 6 -7 11 -15 11 -13 0 -14 4 -4 22 9 17 9 24 -5 33 -21
16 -15 61 8 57 9 -2 16 2 16 8 0 5 -9 10 -19 10 -11 0 -22 4 -25 9 -7 11 89
19 124 11 14 -4 41 -2 60 3 47 13 102 12 130 -3 17 -9 19 -14 10 -20 -9 -5
-11 -23 -8 -54 4 -28 1 -47 -6 -50 -6 -2 1 -14 16 -28 26 -21 27 -26 18 -65
-8 -35 -7 -46 6 -62 10 -11 18 -34 19 -53 5 -64 15 -119 30 -164 8 -24 15 -52
15 -62 0 -9 12 -41 25 -71 15 -31 22 -57 16 -60 -11 -7 -6 -105 6 -124 4 -6 8
-30 9 -52 1 -22 9 -67 19 -100 10 -33 18 -78 19 -100 0 -23 9 -53 19 -68 11
-17 15 -36 11 -52 -5 -21 -3 -25 14 -25 27 0 28 3 36 80 4 35 14 72 22 81 9
10 15 36 15 65 0 27 1 88 3 137 2 65 0 87 -10 87 -7 0 -14 -6 -17 -12 -2 -8
-8 -9 -13 -4 -5 5 -4 11 4 13 6 3 12 15 12 28 0 13 4 25 9 27 5 1 20 27 35 56
24 47 25 52 8 52 -10 0 -22 -4 -28 -9 -5 -5 -19 -12 -32 -16 -21 -6 -22 -4
-16 22 3 15 27 47 53 71 25 23 45 49 43 57 -1 8 9 22 23 31 14 9 25 24 25 34
0 10 7 23 15 30 8 7 15 23 15 37 0 17 8 27 28 34 30 10 57 45 42 54 -5 3 0 15
10 25 11 11 20 29 20 41 0 11 4 18 8 15 12 -7 39 27 34 42 -13 39 96 56 122
19 14 -18 46 -23 46 -7 0 11 32 9 64 -5 13 -6 21 -4 24 3 5 17 22 15 22 -3 0
-11 8 -11 43 5 50 23 93 26 100 6 5 -12 57 -27 107 -32 41 -3 80 -18 80 -30 0
-8 9 -23 21 -35 20 -20 21 -20 34 -3 11 16 17 16 53 6 49 -15 73 -39 51 -53
-12 -8 -12 -11 2 -22 9 -6 14 -17 12 -23 -2 -6 3 -17 12 -24 19 -16 19 -30 0
-30 -17 0 -21 -35 -5 -45 6 -3 10 -13 10 -21 0 -21 -36 -12 -59 17 -14 16 -20
19 -21 9 0 -8 15 -32 32 -54 18 -21 33 -45 33 -54 0 -9 24 -31 55 -49 l54 -33
-47 0 c-44 0 -56 -7 -40 -24 4 -3 8 -27 9 -51 2 -34 11 -55 35 -84 26 -30 33
-48 35 -87 1 -27 -2 -59 -7 -72 -6 -15 -5 -31 2 -44 15 -27 5 -33 -23 -14 -33
23 -45 20 -57 -15 -16 -46 -15 -48 24 -45 19 2 35 -1 35 -5 0 -5 8 -9 18 -9 9
0 35 -12 57 -26 27 -17 33 -24 18 -21 -34 7 -28 -10 19 -53 35 -33 39 -40 24
-46 -15 -6 -15 -8 4 -21 15 -11 18 -18 11 -27 -6 -7 -8 -16 -4 -20 4 -4 1 -11
-7 -16 -11 -7 -12 -10 -2 -10 8 0 11 -7 7 -19 -3 -11 1 -24 11 -32 15 -12 14
-15 -11 -35 -29 -23 -29 -25 6 -83 11 -18 18 -40 15 -47 -3 -8 1 -14 9 -14 17
0 20 -16 6 -25 -5 -3 -7 -22 -4 -42 5 -30 3 -35 -9 -30 -35 13 -50 -35 -19
-62 10 -9 31 -46 46 -81 15 -36 36 -72 47 -81 12 -9 18 -21 14 -28 -9 -14 -56
-15 -56 0 0 6 -9 8 -21 4 -12 -4 -27 -1 -37 7 -9 8 -37 16 -62 17 -25 1 -46 6
-48 12 -2 5 -11 9 -19 9 -12 0 -13 -3 -4 -14 16 -19 -5 -32 -25 -16 -11 10
-12 16 -3 27 7 7 8 17 4 21 -4 4 -10 1 -12 -6 -3 -7 -11 -19 -19 -26 -18 -18
-18 -36 0 -36 17 0 72 -50 80 -74 5 -15 9 -16 21 -6 12 10 15 10 15 -1 0 -10
12 -14 37 -13 21 1 45 -2 53 -7 16 -8 71 -22 80 -19 3 1 8 -9 11 -22 3 -13 11
-22 17 -20 7 1 12 -8 12 -19 0 -16 5 -20 20 -16 11 3 23 0 28 -6 11 -18 68
-47 76 -39 4 4 14 -2 22 -13 12 -16 25 -20 69 -18 42 1 55 -2 55 -13 0 -8 8
-14 18 -14 9 0 26 -7 36 -15 10 -8 22 -12 26 -10 4 3 20 -7 34 -20 15 -14 34
-25 42 -25 7 0 14 -6 14 -14 0 -7 11 -21 25 -30 14 -9 25 -20 25 -25 0 -5 14
-23 30 -41 17 -18 30 -38 30 -46 0 -7 11 -16 25 -20 14 -3 25 -13 25 -20 0
-22 47 -92 70 -104 18 -10 19 -13 5 -26 -22 -22 -19 -32 14 -52 23 -14 27 -21
20 -35 -12 -20 12 -71 40 -89 15 -9 17 -15 8 -29 -9 -14 -7 -22 5 -36 15 -17
30 -60 33 -95 1 -10 10 -29 19 -42 9 -14 16 -37 16 -51 0 -17 15 -42 44 -73
l44 -46 323 1 c177 1 344 5 371 8 l48 7 0 703 0 703 -42 5 c-100 12 -118 16
-133 31 -9 8 -33 20 -55 26 -35 9 -42 17 -71 78 -18 37 -39 75 -47 85 -24 27
-26 48 -19 157 8 126 17 160 42 166 13 3 31 1 41 -4 13 -7 26 -4 48 9 43 26
107 25 143 -3 34 -28 69 -48 83 -48 6 0 10 745 10 2240 0 1920 -2 2240 -14
2240 -8 0 -81 32 -163 71 -81 39 -168 80 -193 91 -25 11 -58 26 -74 35 -18 10
-42 13 -67 10 -55 -7 -81 1 -74 24 10 30 -22 37 -115 23 -47 -7 -121 -16 -165
-19 -44 -4 -87 -9 -95 -12 -24 -9 -40 -12 -120 -22 -41 -5 -122 -19 -180 -30
-58 -11 -106 -21 -107 -21 -2 0 -3 -6 -3 -14 0 -8 -7 -16 -15 -20 -8 -3 -14 0
-12 7 3 18 -55 22 -64 5 -5 -10 -24 -14 -53 -14 -24 1 -42 -2 -39 -6 2 -5 11
-8 19 -8 8 0 14 -5 14 -11 0 -6 -9 -9 -20 -6 -11 3 -23 1 -26 -4 -8 -13 -54
-11 -54 3 0 6 -7 4 -18 -5 -22 -20 -52 -22 -52 -4 0 6 -2 48 -5 92 -3 44 -5
103 -6 130 -1 30 -9 61 -20 76 -15 21 -17 37 -13 71 5 35 3 46 -9 51 -25 9
-35 119 -21 237 2 19 7 76 10 125 3 50 13 105 21 124 8 18 13 44 10 58 -3 14
-1 40 4 57 5 17 10 47 13 67 2 20 14 57 25 82 12 25 21 55 21 67 0 11 7 32 16
45 9 14 20 62 25 107 5 45 14 87 19 93 6 7 38 15 73 18 111 11 261 37 281 50
19 13 30 83 14 93 -4 3 -8 14 -8 24 0 26 -20 17 -45 -20 -15 -23 -28 -30 -52
-30 -17 0 -42 -4 -55 -9 -13 -5 -50 -12 -83 -16 -32 -3 -67 -11 -78 -17 -10
-5 -21 -7 -24 -4 -3 3 -5 70 -3 148 5 215 4 238 -9 303 -18 87 -20 93 -50 124
-32 32 -58 41 -89 30z m-2578 -637 c5 -9 -22 -48 -29 -41 -2 3 -2 15 2 27 5
22 18 29 27 14z m26 -42 c0 -5 -2 -10 -4 -10 -3 0 -8 5 -11 10 -3 6 -1 10 4
10 6 0 11 -4 11 -10z m1870 -149 c0 -13 -50 -51 -66 -51 -8 0 -14 -5 -14 -11
0 -6 -7 -9 -15 -6 -8 4 -17 2 -21 -4 -3 -6 -12 -8 -20 -5 -7 3 -16 1 -19 -4
-4 -6 -18 -10 -32 -10 -28 0 -63 -25 -63 -45 0 -7 -15 -18 -32 -25 -18 -7 -48
-24 -67 -38 -36 -27 -50 -29 -260 -36 -71 -2 -134 -7 -139 -10 -24 -15 -139
-25 -177 -15 -22 5 -47 11 -55 12 -21 3 -65 38 -72 58 -4 11 -15 15 -37 11
-35 -5 -52 -22 -24 -23 10 0 13 -3 6 -6 -7 -2 -25 5 -39 16 -19 15 -22 21 -10
21 9 0 16 -6 16 -12 0 -7 7 -3 15 10 12 17 25 21 58 20 40 -1 77 4 272 37 44
8 130 21 190 30 61 9 128 20 150 24 22 5 92 17 155 26 63 10 140 24 170 30 68
16 130 18 130 6z m-1830 -81 c0 -5 -2 -10 -4 -10 -3 0 -8 5 -11 10 -3 6 -1 10
4 10 6 0 11 -4 11 -10z m2987 -1186 c-3 -3 -12 -4 -19 -1 -8 3 -5 6 6 6 11 1
17 -2 13 -5z m-649 -57 c17 -36 9 -57 -21 -57 -33 0 -54 25 -37 45 10 12 9 16
-4 21 -24 9 -9 23 22 21 18 -2 31 -11 40 -30z m472 3 c-24 -15 -37 -11 -16 5
11 8 22 12 25 9 3 -3 -1 -9 -9 -14z m-43 -6 c-3 -3 -12 -4 -19 -1 -8 3 -5 6 6
6 11 1 17 -2 13 -5z m-542 -29 c-24 -8 -114 -11 -109 -3 3 4 31 8 62 7 31 0
53 -2 47 -4z m1299 -86 c16 -16 25 -34 20 -38 -5 -4 -88 -15 -184 -24 l-175
-18 -22 26 c-30 34 -29 42 7 43 16 0 35 4 42 9 7 4 22 9 33 10 11 1 47 6 80
11 33 5 85 10 115 11 49 1 58 -2 84 -30z m-2470 -175 c5 -12 1 -14 -17 -9 -35
11 -44 25 -15 25 14 0 29 -7 32 -16z m1516 -43 c10 -20 4 -51 -10 -51 -9 0
-20 51 -13 62 7 12 11 10 23 -11z m-2605 -131 c4 -6 1 -18 -7 -27 -11 -15 -11
-16 5 -10 16 6 19 3 21 -25 1 -15 -102 -37 -181 -37 -35 -1 -63 -4 -63 -8 0
-5 -42 -7 -93 -6 -52 1 -114 -3 -138 -8 -50 -12 -76 -14 -254 -29 -176 -14
-204 -15 -193 -5 8 8 226 42 353 55 66 6 160 18 208 26 49 8 93 12 98 9 5 -4
14 -3 20 1 8 4 7 9 -2 15 -10 6 -9 10 6 15 11 5 20 3 23 -4 5 -15 48 -16 57
-2 3 6 1 10 -6 10 -21 0 1 14 39 26 48 15 99 17 107 4z m2576 -25 c0 -16 -30
-18 -47 -4 -11 9 -12 14 -3 20 15 9 51 -3 50 -16z m-3491 -134 c0 -12 -28 -18
-60 -12 -23 4 -23 5 -5 12 28 11 65 11 65 0z m-466 -190 c4 -5 -3 -7 -14 -4
-23 6 -26 13 -6 13 8 0 17 -4 20 -9z m-68 -60 c-4 -5 -13 -8 -21 -4 -11 3 -13
1 -9 -10 3 -10 -2 -18 -15 -22 -12 -3 -21 -9 -21 -13 0 -4 -11 -20 -25 -36
-24 -28 -55 -31 -55 -5 0 6 6 9 14 6 8 -3 35 18 67 54 32 36 56 56 62 50 5 -5
6 -14 3 -20z m5054 -25 c0 -3 -4 -8 -10 -11 -5 -3 -10 -1 -10 4 0 6 5 11 10
11 6 0 10 -2 10 -4z m-5207 -93 c9 -9 -33 -53 -50 -53 -8 0 -16 -7 -19 -15 -4
-8 -12 -15 -18 -15 -7 0 -13 7 -13 15 0 8 6 15 13 15 8 0 12 6 10 13 -1 6 -1
9 1 5 10 -17 34 -7 43 17 9 25 21 31 33 18z m3982 -3 c15 0 16 -3 7 -9 -10 -6
-4 -13 22 -25 20 -9 36 -21 36 -26 0 -12 36 -13 43 -2 2 4 2 2 1 -5 -2 -6 5
-14 14 -16 9 -3 1 -5 -18 -6 -20 0 -41 -6 -48 -13 -8 -8 -18 -9 -34 -1 -13 6
-42 18 -64 28 -34 14 -41 21 -37 38 10 46 13 49 36 43 12 -3 31 -6 42 -6z
m-758 -139 l3 -58 -67 -16 c-52 -13 -69 -14 -75 -4 -11 17 -4 32 16 31 11 -1
16 6 16 22 0 14 9 28 23 35 12 7 32 23 45 37 13 13 26 21 29 18 4 -4 8 -33 10
-65z m810 15 c4 -4 1 -11 -6 -15 -14 -9 -7 -31 10 -31 5 0 22 -13 38 -29 15
-16 39 -35 52 -42 l24 -13 -25 -7 c-16 -4 -19 -7 -7 -8 21 -1 23 -21 2 -21
-21 0 -19 -20 3 -21 13 0 14 -2 2 -6 -34 -13 -37 -37 -10 -61 21 -17 20 -17
-17 -22 -34 -4 -38 -8 -36 -32 1 -16 -3 -28 -8 -28 -6 0 -6 -7 0 -19 6 -10 8
-21 4 -24 -5 -6 -7 -17 -12 -66 -1 -9 -7 -11 -18 -5 -10 4 -56 8 -103 9 -71 1
-196 17 -205 27 -2 2 -5 19 -7 38 l-3 35 50 6 c41 5 54 3 71 -13 21 -19 94
-23 94 -5 0 5 24 7 53 5 45 -3 52 -1 49 15 -5 28 -70 83 -142 119 -64 32 -65
33 -32 36 28 3 31 6 21 18 -9 11 -7 14 11 14 13 0 41 8 62 18 31 14 37 21 33
40 -4 15 -1 22 10 22 17 0 20 16 5 25 -6 4 -8 10 -5 15 3 5 -13 14 -35 20 -22
6 -40 13 -40 17 0 8 108 -2 117 -11z m-1241 -8 c8 -7 29 -25 45 -40 16 -16 34
-28 39 -28 5 0 14 -8 19 -19 9 -16 5 -20 -27 -33 -27 -10 -47 -12 -72 -5 -23
6 -41 5 -52 -2 -25 -15 -28 -14 -28 13 0 13 7 29 15 36 18 15 20 50 3 50 -22
0 -41 17 -34 29 10 15 73 14 92 -1z m1081 -44 c-3 -3 -12 -4 -19 -1 -8 3 -5 6
6 6 11 1 17 -2 13 -5z m440 -10 c-3 -3 -12 -4 -19 -1 -8 3 -5 6 6 6 11 1 17
-2 13 -5z m-567 -434 c0 -15 -58 -22 -81 -9 -22 12 -22 12 12 24 33 11 69 4
69 -15z m105 -39 c17 -10 52 -21 78 -25 31 -5 50 -13 54 -24 10 -26 27 -33 35
-14 4 11 7 5 7 -18 1 -20 6 -41 12 -47 18 -18 2 -46 -22 -40 -13 4 -19 1 -16
-6 3 -7 10 -11 16 -9 6 1 11 -5 11 -13 0 -8 -8 -15 -17 -15 -15 0 -14 -2 3
-15 18 -15 18 -15 0 -29 -10 -8 -15 -19 -12 -24 3 -5 -1 -15 -9 -22 -12 -10
-15 -10 -15 3 0 8 -8 18 -17 22 -17 7 -16 8 2 15 20 8 20 9 -1 9 -11 1 -24 4
-28 9 -4 4 -11 7 -14 8 -19 2 -41 17 -37 24 2 4 -5 16 -16 26 -12 11 -32 42
-45 71 -13 29 -30 56 -37 60 -11 7 -37 55 -37 68 0 13 79 3 105 -14z m-1671
-278 c3 -7 14 -13 25 -13 11 0 22 -8 25 -17 10 -34 0 -110 -17 -128 -9 -9 -17
-21 -17 -27 0 -7 -11 -1 -24 11 -22 20 -36 23 -115 25 -73 1 -90 4 -86 15 3 8
-4 21 -16 29 l-22 15 24 18 c13 10 30 19 37 19 6 0 12 6 13 13 0 10 2 10 6 0
7 -20 34 -15 31 5 -2 12 3 17 18 16 14 0 20 4 17 12 -4 12 8 15 84 20 7 0 14
-5 17 -13z m2385 -13 c15 0 21 -6 21 -22 0 -13 7 -32 15 -42 16 -21 11 -36
-11 -36 -15 0 -44 23 -44 34 0 4 -15 19 -32 36 -32 28 -33 29 -13 44 17 13 21
13 31 1 6 -8 21 -15 33 -15z m-2239 -79 c0 -5 -4 -11 -9 -13 -5 -1 2 -20 15
-40 18 -27 31 -38 49 -38 14 0 25 -4 25 -10 0 -5 11 -10 25 -10 18 0 25 -5 25
-20 0 -24 -38 -28 -46 -5 -10 25 -31 17 -44 -17 l-12 -33 -10 28 c-5 15 -14
25 -18 22 -18 -11 -68 49 -73 88 -5 35 -4 37 21 38 l27 1 -25 8 c-22 7 -21 8
13 9 20 1 37 -3 37 -8z m1080 -44 c0 -8 -9 -24 -20 -37 -11 -13 -20 -31 -20
-40 0 -17 -33 -33 -44 -22 -20 20 12 88 48 102 30 12 36 12 36 -3z m320 -9
c24 3 30 0 30 -13 0 -21 22 -40 68 -61 18 -8 30 -19 27 -24 -3 -5 -1 -11 5
-15 5 -3 10 -17 10 -31 0 -14 6 -24 14 -24 22 0 25 -11 17 -56 -6 -34 -5 -43
10 -52 19 -12 22 -61 4 -75 -6 -4 -3 -11 8 -18 17 -10 24 -30 10 -28 -20 3
-24 -2 -13 -16 9 -10 9 -15 1 -15 -6 0 -11 -8 -11 -18 0 -19 -18 -42 -33 -42
-5 0 -26 17 -47 38 -94 90 -111 95 -192 60 -40 -17 -51 -19 -58 -8 -7 11 -11
11 -24 1 -8 -7 -26 -14 -39 -15 -12 -2 -44 -11 -70 -21 -58 -22 -82 -10 -48
24 12 12 21 26 21 31 0 14 -23 13 -38 -2 -8 -8 -18 -9 -36 0 -20 9 -27 7 -42
-9 -16 -18 -18 -18 -36 -2 -19 17 -19 18 1 34 32 26 27 66 -9 87 -16 9 -30 21
-30 25 0 5 -7 15 -16 24 -11 11 -12 19 -5 26 8 8 16 5 27 -12 10 -14 23 -21
34 -18 12 3 20 -2 23 -12 7 -27 88 -27 112 -1 10 11 26 20 35 20 10 0 21 7 24
16 9 24 7 34 -8 34 -7 0 -21 12 -31 26 -15 23 -15 28 -1 59 20 42 40 50 58 23
15 -22 15 -22 43 10 16 18 35 32 44 32 10 0 7 -6 -9 -17 -30 -20 -40 -34 -34
-45 7 -12 72 -10 79 2 3 6 -1 10 -9 10 -9 0 -16 5 -16 10 0 14 44 30 81 30 23
0 29 4 30 23 0 12 3 17 5 11 2 -6 18 -8 34 -6z m895 -18 c3 -5 1 -10 -4 -10
-6 0 -11 5 -11 10 0 6 2 10 4 10 3 0 8 -4 11 -10z m-1355 -10 c0 -5 -2 -10 -4
-10 -3 0 -8 5 -11 10 -3 6 -1 10 4 10 6 0 11 -4 11 -10z m-735 -70 c29 0 63
-55 39 -64 -14 -5 -20 -28 -6 -24 4 1 18 -4 31 -11 12 -7 32 -10 43 -8 12 4
18 1 15 -6 -2 -7 -17 -15 -33 -18 -23 -5 -25 -7 -11 -12 40 -16 46 -16 40 -1
-4 10 2 14 21 14 27 0 28 -9 11 -67 -2 -6 5 -19 16 -29 16 -14 19 -27 15 -66
-2 -26 0 -50 5 -53 5 -4 9 -16 9 -28 0 -29 -57 -58 -71 -36 -7 11 -9 10 -9 -5
0 -16 -5 -13 -25 15 -14 19 -37 36 -51 39 l-26 5 21 27 c26 33 26 38 1 38 -11
0 -20 7 -20 15 0 8 -5 15 -12 15 -6 0 -8 3 -5 7 4 3 -1 15 -10 25 -17 19 -17
21 0 50 26 45 22 51 -23 44 -30 -5 -40 -3 -40 7 0 13 -47 42 -62 39 -11 -3
-10 46 1 53 5 3 18 -8 27 -25 10 -16 24 -30 31 -30 16 0 17 12 2 27 -15 15 20
76 39 68 8 -3 24 -5 37 -5z m1925 -230 c0 -5 -4 -10 -10 -10 -5 0 -10 5 -10
10 0 6 5 10 10 10 6 0 10 -4 10 -10z m-1252 -34 c32 -17 46 -43 16 -32 -13 5
-14 1 -9 -24 5 -22 3 -30 -5 -28 -13 3 -50 -52 -43 -64 2 -4 -3 -5 -11 -2 -11
4 -16 0 -16 -12 0 -16 -2 -17 -10 -4 -8 12 -10 11 -10 -7 0 -25 -61 -65 -68
-44 -7 22 -22 -1 -16 -25 6 -24 -9 -34 -21 -14 -4 6 -15 8 -24 5 -42 -13 -82
57 -85 150 0 22 -5 43 -11 47 -6 5 -6 8 2 8 6 0 15 -4 18 -10 11 -18 27 -10
22 11 -5 20 -3 21 35 16 22 -3 50 -15 62 -26 28 -27 46 -27 39 -1 -3 11 -14
20 -24 20 -11 0 -19 5 -19 11 0 7 11 8 29 4 27 -6 30 -4 33 21 3 27 3 27 22 9
18 -19 19 -19 12 2 -6 20 -5 21 22 14 15 -5 43 -16 60 -25z m-704 -7 c4 -4 -4
-6 -18 -6 -21 0 -24 2 -15 13 7 8 15 11 18 7 3 -4 10 -11 15 -14z m-694 -18
c14 -28 12 -35 -5 -21 -13 11 -21 9 -46 -9 -45 -33 -66 -13 -29 27 26 27 66
29 80 3z m218 -148 c12 -13 22 -31 22 -39 0 -13 -3 -13 -22 0 -16 11 -46 16
-100 16 -62 0 -78 3 -78 15 0 13 33 38 41 31 2 -2 16 -6 32 -10 20 -5 27 -3
27 9 0 22 49 8 78 -22z m1892 22 c8 -9 8 -15 2 -15 -18 0 -42 12 -42 21 0 14
26 10 40 -6z m-1290 -25 c0 -5 -4 -10 -10 -10 -5 0 -10 5 -10 10 0 6 5 10 10
10 6 0 10 -4 10 -10z m-790 -15 c0 -17 -45 -21 -55 -6 -4 8 4 12 48 20 4 0 7
-6 7 -14z m2737 -25 c6 0 9 -9 6 -20 -3 -11 0 -20 6 -20 6 0 11 8 11 18 1 13
4 12 14 -7 11 -21 14 -21 20 -6 9 25 33 3 41 -38 4 -18 14 -40 22 -49 12 -14
13 -24 5 -45 -5 -16 -13 -36 -16 -46 -5 -15 -9 -16 -26 -7 -11 6 -20 15 -20
21 0 6 -6 16 -12 24 -7 7 -26 30 -43 50 -16 20 -38 46 -48 57 -15 15 -17 28
-12 59 6 37 8 39 24 25 10 -9 22 -16 28 -16z m-2001 -18 c-9 -8 -26 10 -26 26
1 15 2 15 15 -2 8 -11 13 -21 11 -24z m146 -30 c15 -15 -13 -52 -39 -52 -13 0
-23 -6 -24 -12 0 -10 -2 -10 -6 0 -4 10 -8 10 -18 2 -22 -18 -78 -8 -81 14 -4
28 23 51 41 36 11 -9 18 -7 33 8 19 19 76 22 94 4z m-782 -10 c-22 -8 -8 -33
25 -46 27 -12 35 -21 35 -40 0 -20 -5 -26 -23 -26 -13 0 -28 -5 -33 -10 -6 -6
-39 -13 -75 -16 l-64 -6 1 41 c0 28 7 46 19 55 11 8 15 18 10 26 -12 19 14 29
67 27 26 -1 43 -3 38 -5z m1574 -32 c14 -5 36 -6 48 -1 15 5 34 1 66 -16 25
-13 52 -21 60 -18 8 3 30 1 51 -4 20 -6 48 -13 62 -15 17 -4 26 -12 25 -23 0
-10 11 -23 26 -30 23 -12 51 -62 53 -98 1 -5 5 -21 9 -34 5 -14 4 -27 -3 -34
-7 -7 -7 -14 1 -24 8 -10 7 -18 -5 -31 -10 -11 -13 -22 -8 -28 5 -5 11 -20 13
-34 2 -17 15 -31 41 -44 28 -13 40 -26 44 -48 3 -16 12 -32 19 -35 20 -8 26
-53 10 -78 -18 -28 -74 -40 -110 -24 -26 12 -51 4 -29 -9 23 -14 -3 -35 -33
-28 -22 6 -25 9 -13 17 11 8 9 9 -7 4 -24 -6 -69 42 -118 128 -19 32 -35 47
-49 47 -12 1 -40 8 -62 17 -22 9 -56 17 -75 19 -19 1 -38 3 -41 3 -4 1 -6 9
-5 19 1 18 -6 19 -104 8 -30 -3 -79 -9 -109 -12 -30 -3 -70 -12 -90 -21 -40
-18 -56 -21 -119 -24 -46 -2 -65 7 -43 20 10 7 11 12 0 29 -11 17 -11 26 1 49
8 15 21 32 27 36 7 4 13 17 13 28 0 13 8 23 20 26 20 5 20 7 4 24 -16 18 -16
19 10 19 25 0 27 2 20 35 -5 29 -2 38 22 59 18 15 31 20 35 14 7 -12 29 -2 29
13 0 5 -8 10 -17 10 -17 1 -17 2 0 6 9 2 17 11 17 19 0 20 25 28 49 14 15 -7
21 -7 21 0 0 6 12 15 28 21 15 5 34 12 42 15 8 4 28 8 43 9 15 2 31 6 34 9 10
9 69 7 97 -4z m-889 -70 c3 -5 -1 -10 -10 -10 -9 0 -13 5 -10 10 3 6 8 10 10
10 2 0 7 -4 10 -10z m-190 -20 c3 -5 -1 -10 -9 -10 -9 0 -16 5 -16 10 0 6 4
10 9 10 6 0 13 -4 16 -10z m235 6 c0 -3 -4 -8 -10 -11 -5 -3 -10 -1 -10 4 0 6
5 11 10 11 6 0 10 -2 10 -4z m-30 -15 c0 -6 -4 -13 -10 -16 -5 -3 -10 1 -10 9
0 9 5 16 10 16 6 0 10 -4 10 -9z m-190 -34 c0 -7 9 -23 20 -35 22 -24 15 -28
-22 -13 -13 5 -32 12 -42 15 -19 6 -19 7 0 26 22 22 44 26 44 7z m217 -39 c18
-18 33 -39 33 -47 0 -8 6 -22 14 -30 8 -9 17 -41 21 -71 5 -47 3 -58 -13 -73
-19 -17 -20 -17 -36 8 -10 15 -15 34 -12 42 9 21 -2 53 -18 53 -19 0 -56 56
-56 85 0 23 19 65 29 65 3 0 20 -14 38 -32z m343 12 c12 -8 9 -10 -12 -10 -16
0 -28 5 -28 10 0 13 20 13 40 0z m-510 -54 c0 -3 -4 -8 -10 -11 -5 -3 -10 -1
-10 4 0 6 5 11 10 11 6 0 10 -2 10 -4z m14 -117 c-8 -14 -24 -10 -24 6 0 9 6
12 15 9 8 -4 12 -10 9 -15z m1686 -19 c0 -5 -4 -10 -10 -10 -5 0 -10 5 -10 10
0 6 5 10 10 10 6 0 10 -4 10 -10z m50 -120 c0 -5 -5 -10 -11 -10 -5 0 -7 5 -4
10 3 6 8 10 11 10 2 0 4 -4 4 -10z m-1160 -4 c0 -2 -7 -6 -15 -10 -8 -3 -15
-1 -15 4 0 6 7 10 15 10 8 0 15 -2 15 -4z m-1690 -186 c-19 -12 -30 -12 -30
-1 0 10 31 20 40 14 2 -2 -2 -8 -10 -13z m630 -6 c0 -2 -7 -4 -15 -4 -8 0 -15
4 -15 10 0 5 7 7 15 4 8 -4 15 -8 15 -10z m3205 -9 l-30 -13 43 -1 c31 -1 42
-5 42 -17 0 -8 4 -13 9 -10 10 7 47 -45 42 -59 -2 -5 -5 -20 -6 -32 -4 -28
-50 -74 -67 -68 -7 3 -27 6 -45 8 -17 1 -32 7 -33 12 -1 6 -8 17 -16 27 -14
15 -13 17 7 23 14 5 24 2 30 -6 6 -11 11 -11 21 -1 9 9 8 12 -6 12 -15 0 -16
3 -6 15 10 12 10 18 0 30 -18 22 -2 37 33 31 29 -5 30 -5 10 5 -12 6 -33 9
-47 5 -22 -5 -25 -10 -19 -37 6 -32 -6 -49 -36 -49 -12 0 -12 3 -3 12 16 16
15 45 0 51 -22 7 53 77 82 76 24 0 24 0 -5 -14z m-370 -25 c3 -5 1 -10 -4 -10
-6 0 -11 5 -11 10 0 6 2 10 4 10 3 0 8 -4 11 -10z m-3475 -30 c-11 -21 -44
-27 -55 -10 -6 10 27 28 53 29 10 1 10 -4 2 -19z m3506 1 c0 -15 -3 -17 -18
-7 -17 10 -17 11 0 18 9 3 17 7 17 7 1 1 1 -7 1 -18z m-45 -104 c-13 -13 -26
-3 -16 12 3 6 11 8 17 5 6 -4 6 -10 -1 -17z m113 -16 c8 -13 -22 -22 -50 -15
-14 4 -24 2 -24 -5 0 -6 -12 -10 -27 -10 -24 2 -25 2 -5 6 12 2 22 8 22 13 0
16 75 26 84 11z m3 -107 c-3 -3 -12 -4 -19 -1 -8 3 -5 6 6 6 11 1 17 -2 13 -5z
m-2820 -186 c-3 -8 -6 -5 -6 6 -1 11 2 17 5 13 3 -3 4 -12 1 -19z m58 -8 c3
-5 1 -10 -4 -10 -6 0 -11 5 -11 10 0 6 2 10 4 10 3 0 8 -4 11 -10z m-138 -96
c-3 -3 -12 -4 -19 -1 -8 3 -5 6 6 6 11 1 17 -2 13 -5z m-77 -14 c0 -5 -9 -10
-19 -10 -11 0 -23 5 -26 10 -4 6 5 10 19 10 14 0 26 -4 26 -10z m125 0 c3 -5
18 -11 33 -11 24 -2 24 -2 5 -6 -34 -7 -28 -20 13 -27 21 -4 34 -12 31 -19 -5
-16 -57 -21 -70 -8 -6 6 -24 11 -40 11 -16 0 -26 4 -22 10 3 6 -1 13 -9 16
-24 9 -19 21 12 32 36 14 40 14 47 2z m85 1 c0 -6 -5 -13 -12 -17 -6 -4 -8 -3
-4 4 3 5 0 13 -6 15 -8 3 -6 6 5 6 9 1 17 -3 17 -8z m73 -66 c-7 -21 -13 -19
-13 6 0 11 4 18 10 14 5 -3 7 -12 3 -20z m-313 -5 c0 -5 -4 -10 -10 -10 -5 0
-10 5 -10 10 0 6 5 10 10 10 6 0 10 -4 10 -10z m30 -30 c-20 -13 -43 -13 -35
0 3 6 16 10 28 10 18 0 19 -2 7 -10z m-2065 -10 c3 -5 -1 -10 -9 -10 -9 0 -16
5 -16 10 0 6 4 10 9 10 6 0 13 -4 16 -10z m5720 -10 c3 -5 2 -10 -4 -10 -5 0
-13 5 -16 10 -3 6 -2 10 4 10 5 0 13 -4 16 -10z m-3605 -15 c0 -8 9 -15 21
-15 11 0 17 -4 14 -10 -3 -5 -28 -10 -55 -10 -27 0 -61 -5 -76 -10 -15 -6 -29
-8 -33 -5 -7 8 17 23 49 32 14 3 31 12 38 20 18 18 42 17 42 -2z m3708 -73
c28 -27 52 -56 52 -63 0 -8 14 -20 30 -26 29 -11 40 -36 21 -47 -18 -12 -69 6
-74 26 -4 12 -10 17 -17 13 -10 -6 -50 26 -50 40 0 9 -27 35 -35 35 -15 0 -42
45 -38 61 8 31 54 15 111 -39z m-3618 32 c0 -9 -23 -28 -61 -52 -60 -37 -80
-24 -34 22 15 15 31 22 43 19 11 -2 23 0 26 6 7 11 26 15 26 5z m60 -69 c-7
-8 -17 -15 -22 -15 -6 0 -5 7 2 15 7 8 17 15 22 15 6 0 5 -7 -2 -15z m74 -34
c10 -16 -25 -21 -40 -6 -14 13 -13 15 10 15 14 0 27 -4 30 -9z m-340 -20 c-5
-5 -20 -12 -33 -16 -30 -9 -19 13 13 25 24 9 34 4 20 -9z m76 15 c0 -2 -7 -6
-15 -10 -8 -3 -15 -1 -15 4 0 6 7 10 15 10 8 0 15 -2 15 -4z m194 -11 c-6 -15
-78 -40 -92 -31 -5 3 -12 -1 -16 -9 -3 -8 -11 -15 -18 -14 -10 0 -10 2 0 6 6
2 12 11 12 19 0 8 8 14 18 14 10 0 27 6 37 14 24 17 65 18 59 1z m-133 -108
c-10 -9 -11 -8 -5 6 3 10 9 15 12 12 3 -3 0 -11 -7 -18z m-117 -227 c-21 -8
-37 -3 -29 10 3 4 15 6 27 2 21 -5 21 -6 2 -12z m-50 -15 c-6 -16 -34 -21 -34
-7 0 13 11 22 26 22 8 0 11 -6 8 -15z m-1120 -72 c4 -5 15 -8 24 -9 49 -3 52
-5 52 -28 0 -23 -2 -23 -40 -14 -22 6 -40 14 -40 19 0 5 -7 9 -15 9 -8 0 -15
7 -15 15 0 16 21 20 34 8z m-204 -218 c0 -9 -6 -12 -15 -9 -8 4 -15 10 -15 15
0 5 7 9 15 9 8 0 15 -7 15 -15z m71 -75 c5 0 4 -6 -3 -13 -10 -11 -15 -12 -25
-1 -18 17 -16 27 3 20 9 -3 20 -6 25 -6z m72 -126 c39 -39 44 -53 25 -72 -21
-21 -34 -13 -60 40 -38 78 -25 90 35 32z m104 0 c-3 -3 -12 -4 -19 -1 -8 3 -5
6 6 6 11 1 17 -2 13 -5z m67 -66 c-3 -13 -3 -20 1 -16 11 11 61 -22 76 -49 7
-13 17 -23 23 -23 7 0 20 -9 29 -21 18 -20 18 -21 -2 -14 -19 6 -21 2 -21 -44
0 -27 -4 -53 -10 -56 -5 -3 -10 -2 -10 3 0 15 -46 31 -71 25 -17 -5 -21 -3
-17 8 4 11 -5 14 -37 14 -37 1 -50 7 -99 52 -31 29 -52 54 -47 58 5 3 17 -5
26 -17 l16 -23 -2 25 c-5 49 36 100 49 62 2 -7 -2 -10 -12 -6 -9 3 -16 2 -16
-4 0 -5 17 -14 37 -19 29 -7 38 -15 45 -38 4 -17 5 -38 2 -47 -4 -12 0 -18 11
-18 11 0 15 5 11 15 -3 8 1 18 9 22 12 7 13 12 1 35 -21 41 -23 61 -6 80 20
22 22 22 14 -4z m186 -213 c0 -8 -6 -15 -14 -15 -20 0 -29 17 -14 23 22 9 28
7 28 -8z m-107 -19 c3 -7 0 -19 -6 -25 -9 -9 -6 -13 11 -17 22 -6 32 -44 12
-44 -5 0 -10 4 -10 9 0 5 -8 8 -17 7 -12 -1 -19 7 -21 22 -4 27 -23 24 -38 -7
l-11 -22 -17 26 c-18 27 -14 45 10 45 8 0 14 5 14 10 0 15 67 12 73 -4z m47
-16 c0 -5 -4 -10 -10 -10 -5 0 -10 5 -10 10 0 6 5 10 10 10 6 0 10 -4 10 -10z
m-853 -32 c-3 -8 -6 -5 -6 6 -1 11 2 17 5 13 3 -3 4 -12 1 -19z m813 -48 c0
-5 -7 -10 -16 -10 -8 0 -12 5 -9 10 3 6 10 10 16 10 5 0 9 -4 9 -10z m4320
-930 c0 -5 -2 -10 -4 -10 -3 0 -8 5 -11 10 -3 6 -1 10 4 10 6 0 11 -4 11 -10z"/>
<path d="M4800 6860 c0 -5 5 -10 10 -10 6 0 10 5 10 10 0 6 -4 10 -10 10 -5 0
-10 -4 -10 -10z"/>
<path d="M3013 6185 c-13 -29 -8 -34 27 -30 14 1 31 3 38 4 27 3 7 36 -28 44
-20 5 -27 1 -37 -18z"/>
<path d="M4310 5749 c0 -5 5 -7 10 -4 6 3 10 8 10 11 0 2 -4 4 -10 4 -5 0 -10
-5 -10 -11z"/>
<path d="M3375 5960 c-7 -12 2 -30 16 -30 5 0 9 9 9 20 0 21 -15 27 -25 10z"/>
<path d="M3430 5840 c0 -7 24 -20 36 -20 13 0 1 19 -16 23 -11 3 -20 2 -20 -3z"/>
<path d="M3510 5830 c0 -5 5 -10 10 -10 6 0 10 5 10 10 0 6 -4 10 -10 10 -5 0
-10 -4 -10 -10z"/>
<path d="M5425 5500 c3 -5 8 -10 11 -10 2 0 4 5 4 10 0 6 -5 10 -11 10 -5 0
-7 -4 -4 -10z"/>
<path d="M6540 3991 c0 -12 5 -21 10 -21 6 0 10 6 10 14 0 8 -4 18 -10 21 -5
3 -10 -3 -10 -14z"/>
<path d="M1630 2903 c0 -24 56 -57 64 -38 6 17 -2 25 -26 25 -10 0 -18 7 -18
15 0 8 -4 15 -10 15 -5 0 -10 -8 -10 -17z"/>
<path d="M5625 9968 c-9 -14 -11 -24 -5 -26 14 -5 40 17 40 34 0 21 -17 17
-35 -8z"/>
<path d="M5555 9970 c-3 -5 -1 -10 4 -10 6 0 11 5 11 10 0 6 -2 10 -4 10 -3 0
-8 -4 -11 -10z"/>
<path d="M6717 9836 c-4 -10 0 -12 14 -9 22 6 26 23 5 23 -8 0 -16 -6 -19 -14z"/>
<path d="M6679 9736 c8 -9 27 -24 43 -32 27 -14 28 -14 28 11 0 17 -5 25 -17
25 -10 0 -29 3 -43 7 -23 6 -24 5 -11 -11z"/>
<path d="M6562 9673 c-32 -35 -46 -44 -63 -40 -12 3 -33 1 -47 -4 -18 -7 -27
-6 -32 2 -4 6 -22 13 -40 15 -25 3 -33 0 -37 -16 -3 -11 -9 -18 -13 -15 -4 3
-11 -2 -14 -11 -8 -22 -26 -7 -26 22 0 14 -7 27 -15 30 -25 10 -83 -16 -120
-53 -21 -21 -41 -33 -50 -29 -8 3 -15 0 -15 -7 0 -9 -14 -13 -45 -12 -25 1
-45 -2 -45 -6 0 -5 -13 -6 -29 -3 -21 4 -30 2 -34 -11 -4 -9 -11 -13 -17 -10
-6 3 -13 -1 -16 -10 -4 -10 -13 -13 -25 -10 -11 4 -19 2 -19 -4 0 -19 44 -22
89 -6 24 8 58 15 75 15 17 0 46 9 64 20 35 22 87 27 97 9 13 -19 -6 -78 -39
-127 -19 -27 -36 -59 -38 -72 -4 -31 -18 -36 -133 -50 -55 -7 -125 -18 -155
-25 -30 -8 -127 -25 -215 -39 -329 -54 -420 -75 -438 -103 -5 -9 -15 -9 -38
-1 -39 14 -56 -1 -28 -26 20 -17 21 -17 14 5 -5 14 -4 19 4 15 6 -4 11 -16 11
-26 0 -12 8 -20 23 -22 24 -3 24 1 2 -113 -9 -44 -19 -90 -21 -103 -3 -14 -9
-20 -16 -16 -6 4 -8 3 -4 -4 3 -6 2 -13 -4 -17 -5 -3 -10 -26 -10 -51 0 -24
-5 -44 -10 -44 -24 0 35 -79 68 -91 13 -5 29 -23 35 -39 6 -17 15 -30 19 -30
4 0 8 -7 8 -15 0 -9 9 -15 24 -15 13 0 38 -13 56 -30 31 -29 60 -39 60 -21 0
20 59 30 126 20 36 -5 70 -11 74 -14 13 -8 38 5 44 23 3 10 4 5 2 -10 -3 -24
-1 -26 15 -17 11 5 19 13 19 18 0 4 19 7 43 7 29 -1 41 3 40 12 -2 6 6 12 18
12 14 0 19 -5 16 -14 -5 -12 0 -12 26 -5 34 10 84 3 104 -13 7 -5 18 -6 24 -2
9 5 5 10 -10 16 -12 4 -20 12 -16 17 3 6 12 8 20 4 9 -3 39 6 68 20 28 15 60
28 70 31 10 3 15 10 12 16 -3 6 1 13 9 16 9 3 16 10 16 14 0 4 8 25 17 46 9
22 16 43 15 47 -2 5 2 6 7 3 5 -4 17 8 25 26 22 46 76 195 89 246 9 31 17 42
30 42 16 0 17 2 7 15 -7 9 -10 19 -6 22 4 4 11 1 15 -6 11 -17 31 -5 31 18 0
10 9 21 20 24 11 3 19 11 18 18 -4 18 31 23 65 10 24 -9 25 -12 15 -42 -8 -23
-7 -40 2 -69 7 -22 10 -50 6 -67 -4 -15 -10 -46 -13 -68 -3 -22 -9 -44 -14
-50 -5 -5 -9 -26 -9 -47 l0 -38 80 0 c73 0 80 -2 80 -20 0 -27 18 -26 22 2 3
22 3 22 22 2 17 -17 18 -19 3 -22 -14 -3 -13 -9 9 -51 13 -26 23 -54 21 -62
-2 -8 -2 -11 0 -7 5 9 33 -1 33 -12 0 -4 -10 -11 -22 -14 l-23 -7 23 -16 c12
-8 22 -23 22 -33 0 -10 -10 -24 -22 -33 -13 -8 -20 -18 -16 -22 4 -4 14 -2 22
5 17 13 30 4 52 -35 12 -22 44 -33 44 -16 0 6 -7 11 -15 11 -8 0 -15 5 -15 10
0 6 7 10 15 10 13 0 15 57 15 455 l0 454 -112 -3 c-62 -2 -161 -11 -221 -19
-63 -9 -119 -12 -135 -7 l-27 8 33 12 c46 17 41 38 -9 42 -48 3 -73 29 -51 50
11 11 16 10 26 -4 19 -26 21 -23 23 26 2 53 18 86 41 86 9 0 35 -9 58 -19 63
-28 115 -34 250 -26 l124 7 0 64 c0 50 -3 64 -15 64 -8 0 -15 -4 -15 -9 0 -5
-9 -11 -21 -14 -16 -4 -19 -2 -15 10 5 12 1 14 -19 9 -20 -5 -27 -1 -38 21 -8
16 -12 33 -10 40 11 30 -18 18 -55 -24z m-322 -67 c0 -14 -21 -26 -46 -26 -17
0 -19 26 -1 33 24 10 47 7 47 -7z m277 -313 c-2 -16 -11 -46 -22 -69 -22 -49
-75 -72 -105 -46 -10 8 -16 21 -13 29 4 11 8 10 18 -4 8 -10 17 -15 21 -10 4
4 2 7 -4 7 -7 0 -12 5 -12 10 0 6 7 10 15 10 8 0 15 -4 15 -10 0 -5 7 -10 15
-10 13 0 13 3 3 20 -10 16 -10 24 0 40 8 13 8 20 1 20 -5 0 -7 5 -4 10 3 6 0
11 -7 11 -7 1 5 5 27 9 22 4 43 8 47 9 4 0 6 -11 5 -26z m-87 -23 c0 -4 -9
-10 -20 -13 -15 -4 -20 0 -20 13 0 13 5 17 20 13 11 -3 20 -9 20 -13z m30
-222 c0 -26 -2 -29 -15 -18 -15 13 -20 42 -9 53 13 12 24 -4 24 -35z m107
-270 c-3 -8 -6 -5 -6 6 -1 11 2 17 5 13 3 -3 4 -12 1 -19z m93 -112 c0 -3 -4
-8 -10 -11 -5 -3 -10 -1 -10 4 0 6 5 11 10 11 6 0 10 -2 10 -4z m-1086 -145
c3 -5 -1 -11 -9 -15 -15 -6 -29 7 -18 18 9 9 21 8 27 -3z"/>
<path d="M6476 9267 c3 -10 9 -15 12 -12 3 3 0 11 -7 18 -10 9 -11 8 -5 -6z"/>
<path d="M5820 9480 c-12 -8 -10 -10 8 -10 13 0 20 4 17 10 -7 12 -6 12 -25 0z"/>
<path d="M6370 9111 c0 -16 28 -20 34 -5 4 9 -1 14 -14 14 -11 0 -20 -4 -20
-9z"/>
<path d="M6383 9063 c-18 -7 -16 -23 2 -23 8 0 15 7 15 15 0 8 -1 15 -2 14 -2
0 -9 -3 -15 -6z"/>
<path d="M6305 9040 c-8 -13 5 -13 25 0 13 8 13 10 -2 10 -9 0 -20 -4 -23 -10z"/>
<path d="M6258 8953 c12 -2 32 -2 45 0 12 2 2 4 -23 4 -25 0 -35 -2 -22 -4z"/>
<path d="M1598 8853 c-32 -5 -34 -15 -10 -63 19 -38 31 -42 47 -14 5 11 13 21
16 24 17 15 17 41 -1 50 -10 5 -20 9 -22 9 -2 -1 -15 -4 -30 -6z"/>
<path d="M6400 8735 c0 -11 11 -15 40 -15 29 0 40 4 40 15 0 11 -11 15 -40 15
-29 0 -40 -4 -40 -15z"/>
<path d="M2028 8653 c7 -3 16 -2 19 1 4 3 -2 6 -13 5 -11 0 -14 -3 -6 -6z"/>
<path d="M5390 8480 c-20 -6 -21 -8 -5 -8 11 0 29 3 40 8 25 11 -1 11 -35 0z"/>
<path d="M6660 8445 c0 -8 5 -15 10 -15 6 0 10 7 10 15 0 8 -4 15 -10 15 -5 0
-10 -7 -10 -15z"/>
<path d="M6561 8404 c0 -11 3 -14 6 -6 3 7 2 16 -1 19 -3 4 -6 -2 -5 -13z"/>
<path d="M6596 8388 c-18 -20 -18 -21 2 -16 13 4 27 -1 38 -13 18 -20 44 -26
44 -10 0 5 -7 11 -15 15 -8 3 -12 12 -9 20 3 8 1 17 -5 21 -6 3 -11 1 -11 -6
0 -8 -4 -8 -13 -1 -10 9 -18 6 -31 -10z"/>
<path d="M6686 8403 c-6 -7 5 -36 17 -44 14 -9 47 1 47 15 0 12 -55 37 -64 29z"/>
<path d="M6703 8325 c-9 -10 -6 -14 16 -17 17 -3 28 0 28 8 0 18 -30 23 -44 9z"/>
<path d="M953 8309 c1 -6 -6 -13 -15 -14 -15 -3 -264 -179 -445 -316 -40 -30
-167 -124 -282 -209 l-211 -155 0 -64 0 -63 38 28 c29 22 123 95 187 146 38
30 305 234 375 285 47 35 102 78 123 95 21 18 46 37 55 42 9 6 28 20 42 33 14
13 28 23 32 23 16 0 29 -44 23 -76 -5 -27 -3 -34 10 -34 34 0 10 -30 -87 -110
-124 -102 -188 -160 -188 -172 0 -13 34 -10 74 7 20 8 36 12 36 9 0 -4 7 -1
15 6 8 6 19 9 25 5 6 -4 17 -1 25 5 8 7 15 9 15 4 0 -5 5 -2 10 7 5 9 26 20
46 24 37 7 50 11 95 36 86 47 120 82 100 102 -16 16 -14 24 10 30 18 5 19 8 7
28 -10 17 -10 23 0 26 20 8 14 31 -18 64 -16 18 -27 35 -24 40 5 9 -31 85 -53
111 -10 11 -13 26 -9 43 4 14 2 25 -4 25 -5 0 -9 -5 -7 -11z"/>
<path d="M980 8286 c0 -9 5 -16 10 -16 6 0 10 4 10 9 0 6 -4 13 -10 16 -5 3
-10 -1 -10 -9z"/>
<path d="M125 8069 c-138 -21 -125 -14 -125 -71 l0 -50 32 6 c18 4 51 19 73
34 22 15 51 32 65 39 14 6 36 21 50 32 l25 21 -30 -1 c-16 -1 -57 -5 -90 -10z"/>
<path d="M840 7695 c-97 -12 -214 -26 -260 -30 -47 -4 -94 -11 -105 -15 -18
-7 -163 -125 -354 -289 -30 -25 -69 -57 -87 -71 l-33 -25 -1 -138 c0 -108 3
-137 13 -131 16 10 329 222 432 292 44 31 175 119 290 197 284 192 325 221
318 229 -8 8 -6 8 -213 -19z"/>
<path d="M1713 4724 c0 -20 3 -24 21 -19 16 5 18 4 6 -4 -21 -15 3 -22 64 -18
38 1 51 -2 60 -16 9 -15 7 -22 -11 -37 -28 -22 -28 -25 -5 -27 9 -1 46 -6 81
-12 64 -10 87 -7 62 8 -7 5 -13 12 -14 16 -5 21 -54 65 -73 65 -12 0 -24 7
-27 14 -9 22 -56 43 -113 49 -50 6 -51 5 -51 -19z"/>
<path d="M3049 4578 c-10 -35 6 -59 30 -44 13 9 1 46 -15 46 -8 0 -14 -1 -15
-2z"/>
<path d="M4629 4564 c5 -3 6 -14 4 -25 -4 -16 -11 -19 -29 -15 -12 3 -25 3
-27 -2 -7 -11 37 -59 62 -67 11 -3 21 -11 21 -17 0 -11 29 -37 43 -38 4 0 7 7
7 15 0 8 -7 15 -15 15 -8 0 -15 6 -15 13 0 7 -9 29 -20 50 -11 21 -19 45 -18
54 2 9 -3 17 -10 19 -7 1 -8 0 -3 -2z"/>
<path d="M2655 4536 c-18 -13 -17 -14 13 -21 35 -7 52 -1 52 21 0 18 -40 18
-65 0z"/>
<path d="M1840 4526 c0 -42 26 -59 49 -32 10 12 7 18 -18 31 -26 13 -31 13
-31 1z"/>
<path d="M2727 4523 c-10 -10 -8 -33 3 -33 5 0 14 9 20 20 8 15 8 20 -3 20 -8
0 -17 -3 -20 -7z"/>
<path d="M2943 4500 c-10 -11 -27 -20 -39 -20 -36 0 -84 -12 -84 -21 0 -5 8
-9 18 -9 10 0 27 -7 38 -15 11 -8 41 -14 72 -15 46 0 55 3 59 20 3 11 12 20
20 20 10 0 13 -6 9 -16 -3 -8 -2 -12 3 -9 5 3 12 1 16 -5 11 -18 26 -10 23 13
-2 12 -9 21 -16 19 -7 -1 -27 11 -45 28 -38 35 -51 37 -74 10z"/>
<path d="M3035 4500 c4 -6 11 -8 16 -5 14 9 11 15 -7 15 -8 0 -12 -5 -9 -10z"/>
<path d="M3110 4431 c0 -6 4 -13 10 -16 6 -3 7 1 4 9 -7 18 -14 21 -14 7z"/>
<path d="M3120 4360 c0 -5 5 -10 10 -10 6 0 10 5 10 10 0 6 -4 10 -10 10 -5 0
-10 -4 -10 -10z"/>
<path d="M1944 4345 c-15 -10 -16 -16 -7 -26 14 -15 43 -5 43 15 0 22 -15 27
-36 11z"/>
<path d="M1845 4260 c3 -5 10 -10 16 -10 5 0 9 5 9 10 0 6 -7 10 -16 10 -8 0
-12 -4 -9 -10z"/>
<path d="M4158 4263 c-41 -10 -5 -33 53 -33 25 0 45 21 32 34 -7 7 -59 6 -85
-1z"/>
<path d="M1877 4193 c-13 -12 -7 -33 8 -33 8 0 15 9 15 20 0 20 -11 26 -23 13z"/>
<path d="M3180 4121 c0 -6 5 -13 10 -16 6 -3 10 1 10 9 0 9 -4 16 -10 16 -5 0
-10 -4 -10 -9z"/>
<path d="M1122 3999 c3 -8 18 -15 34 -17 33 -4 24 11 -15 23 -17 5 -22 4 -19
-6z"/>
<path d="M1050 3960 c0 -5 7 -10 16 -10 8 0 12 5 9 10 -3 6 -10 10 -16 10 -5
0 -9 -4 -9 -10z"/>
<path d="M4256 3943 c-6 -15 -8 -15 -16 -3 -8 12 -10 12 -16 -3 -3 -9 -12 -17
-20 -17 -8 0 -14 -4 -14 -9 0 -9 32 -17 103 -28 37 -5 62 -23 32 -23 -13 0
-14 -4 -5 -21 7 -11 9 -23 6 -27 -3 -3 -6 -1 -6 5 0 6 -11 8 -25 5 -14 -2 -22
-8 -19 -14 3 -5 14 -6 25 -3 11 4 19 2 19 -6 0 -8 4 -8 15 1 13 11 20 11 40 0
14 -7 25 -17 25 -22 0 -12 -14 -10 -28 4 -6 6 -14 9 -18 6 -7 -8 36 -58 51
-58 6 0 26 -13 44 -29 20 -18 39 -27 51 -24 25 7 18 19 -16 27 -33 9 -51 26
-51 49 0 14 6 18 24 14 18 -3 23 0 23 15 0 28 -18 58 -36 58 -20 0 -42 22 -37
37 2 6 -6 14 -19 18 -13 3 -32 10 -43 14 -11 5 -33 14 -48 20 -15 6 -25 16
-22 21 3 6 2 10 -3 10 -6 0 -13 -8 -16 -17z"/>
<path d="M3292 3773 c2 -9 8 -18 15 -20 7 -3 9 3 6 16 -6 25 -26 28 -21 4z"/>
<path d="M4281 3771 c-7 -5 -21 -6 -31 -4 -21 6 -38 -16 -20 -27 7 -4 21 -5
32 -2 11 2 28 -4 41 -15 13 -12 42 -23 69 -25 l46 -5 -28 23 c-15 13 -33 24
-40 24 -6 0 -8 5 -5 10 3 6 1 11 -4 11 -20 3 -26 4 -36 11 -6 4 -17 3 -24 -1z"/>
<path d="M3244 3683 c2 -10 7 -33 11 -50 9 -44 26 -53 19 -11 -11 67 -15 78
-25 78 -6 0 -8 -8 -5 -17z"/>
<path d="M4580 3680 c0 -13 18 -22 24 -11 3 5 -1 11 -9 15 -8 3 -15 1 -15 -4z"/>
<path d="M4697 3648 c3 -18 9 -37 13 -42 5 -4 4 -21 0 -36 -7 -23 -4 -32 16
-51 33 -30 45 -12 31 43 -7 30 -7 42 2 48 9 5 4 10 -14 14 -22 6 -25 10 -15
21 15 18 5 35 -20 35 -17 0 -19 -5 -13 -32z"/>
<path d="M4360 3638 c0 -5 15 -15 34 -23 18 -8 36 -21 39 -30 7 -18 58 -20 75
-3 21 21 -29 55 -92 60 -31 3 -56 1 -56 -4z"/>
<path d="M3110 3614 c0 -14 3 -14 15 -4 8 7 15 14 15 16 0 2 -7 4 -15 4 -8 0
-15 -7 -15 -16z"/>
<path d="M3190 3596 c-18 -18 -11 -27 17 -24 34 4 46 38 13 35 -11 -1 -25 -6
-30 -11z"/>
<path d="M3351 3483 c-12 -13 -12 -16 0 -24 10 -6 4 -9 -18 -9 -35 0 -51 -16
-34 -33 15 -15 14 -27 -3 -27 -8 0 -17 -7 -20 -16 -3 -9 -13 -14 -21 -10 -8 3
-17 1 -20 -4 -4 -6 -15 -10 -25 -10 -10 0 -37 -19 -59 -42 -29 -31 -41 -38
-41 -25 0 29 -20 19 -27 -14 -4 -23 -10 -29 -27 -27 -12 2 -28 -6 -38 -18 -10
-12 -34 -25 -54 -29 -20 -3 -44 -11 -53 -16 -9 -5 -29 -14 -46 -20 l-30 -11
24 -19 c35 -29 171 -25 224 6 21 12 38 26 37 31 0 5 8 10 20 12 25 4 26 -6 3
-24 -26 -18 -9 -28 26 -16 32 11 41 7 41 -17 1 -9 10 -27 21 -41 l21 -24 17
23 c16 21 20 22 39 10 12 -7 23 -11 26 -9 3 4 14 68 16 93 0 4 5 6 11 5 17 -5
45 83 41 132 -1 25 -4 59 -5 77 -1 17 -5 35 -9 39 -14 13 -9 24 8 17 14 -5 15
-3 6 14 -19 34 -35 43 -51 26z"/>
<path d="M4064 3491 c10 -16 46 -20 46 -5 0 8 -10 14 -26 14 -14 0 -23 -4 -20
-9z"/>
<path d="M2511 3481 c-10 -7 -10 -10 -1 -16 6 -4 16 -3 22 3 13 13 -4 23 -21
13z"/>
<path d="M3615 3460 c3 -5 10 -10 16 -10 5 0 9 5 9 10 0 6 -7 10 -16 10 -8 0
-12 -4 -9 -10z"/>
<path d="M3624 3389 c-8 -13 -7 -117 2 -130 14 -22 19 -4 20 66 1 71 -6 90
-22 64z"/>
<path d="M1400 3350 c0 -5 5 -10 11 -10 5 0 7 5 4 10 -3 6 -8 10 -11 10 -2 0
-4 -4 -4 -10z"/>
<path d="M3120 3332 c0 -12 3 -12 18 -1 9 7 19 14 21 16 2 1 -6 1 -18 0 -11
-1 -21 -8 -21 -15z"/>
<path d="M4716 3295 c-6 -18 25 -41 69 -50 l30 -6 -40 35 c-45 40 -51 42 -59
21z"/>
<path d="M3619 3208 c-1 -7 -1 -41 0 -76 2 -74 -4 -88 -27 -70 -11 9 -9 1 6
-24 26 -42 29 -135 5 -153 -11 -8 -11 -25 -2 -92 11 -73 10 -85 -5 -108 -10
-15 -14 -34 -11 -45 8 -24 -14 -91 -35 -107 -13 -10 -11 -17 9 -58 13 -25 31
-49 40 -52 24 -10 32 -25 26 -54 -5 -20 1 -34 25 -59 16 -17 30 -34 30 -36 0
-6 -39 -44 -45 -44 -2 0 -2 7 2 16 4 11 -5 26 -27 45 -18 16 -27 29 -20 29 7
0 10 3 7 6 -10 11 -38 -17 -35 -35 1 -9 -3 -29 -9 -46 -6 -16 -14 -41 -17 -55
-6 -28 -50 -52 -84 -47 -12 2 -35 16 -51 31 -29 28 -79 34 -73 8 1 -6 3 -18 5
-24 1 -7 -8 -14 -20 -16 -21 -3 -48 -54 -36 -66 4 -3 -6 -6 -20 -6 -21 0 -28
6 -33 28 -3 15 -10 37 -15 50 -5 13 -9 33 -9 45 0 13 -5 28 -11 34 -5 5 -11
43 -12 84 -1 41 -6 77 -11 81 -8 5 -15 60 -19 151 -1 9 -5 17 -9 17 -4 0 -8
-8 -8 -17 0 -15 -2 -16 -10 -3 -8 13 -11 11 -16 -7 -3 -12 -17 -29 -30 -38
-19 -12 -24 -24 -24 -54 0 -22 6 -42 13 -44 7 -4 3 -8 -10 -12 -26 -8 -31 -25
-8 -25 9 0 15 -9 15 -25 0 -14 -4 -25 -10 -25 -5 0 -10 -4 -10 -10 0 -5 6 -10
13 -10 18 0 57 -46 57 -66 0 -9 -10 -24 -22 -35 -20 -16 -21 -20 -8 -30 11 -8
4 -9 -30 -4 -24 3 -53 14 -63 23 -13 12 -33 16 -67 14 -37 -2 -52 2 -62 15 -8
11 -25 17 -43 17 -16 -1 -35 3 -40 10 -20 22 -55 36 -93 36 -31 0 -41 -5 -55
-30 -15 -24 -25 -30 -52 -30 -37 0 -80 -15 -107 -38 -15 -13 -18 -13 -24 2 -9
24 -46 19 -78 -10 -22 -21 -30 -24 -37 -13 -6 10 -11 11 -19 3 -22 -22 -50 -4
-50 30 0 18 -4 36 -9 42 -9 8 -15 50 -12 82 1 7 6 10 11 7 6 -3 10 -2 10 2 0
14 -31 53 -42 53 -13 0 -58 -47 -58 -61 0 -5 -4 -9 -9 -9 -5 0 -8 -16 -7 -35
3 -31 1 -35 -15 -30 -14 5 -19 1 -19 -14 0 -12 -6 -21 -12 -21 -7 0 -24 -9
-38 -20 l-25 -20 23 0 c12 0 22 -6 22 -14 0 -8 -8 -13 -17 -12 -13 1 -19 -7
-21 -26 -3 -27 -25 -38 -37 -18 -3 6 -22 10 -42 10 -28 0 -43 -8 -74 -40 -24
-25 -44 -37 -54 -34 -11 5 -15 -1 -15 -19 0 -16 -10 -31 -27 -43 -33 -22 -44
-24 -60 -11 -17 13 -16 27 1 27 11 0 13 12 9 51 -2 32 1 56 8 66 10 12 10 16
-2 23 -11 7 -11 12 -1 22 6 6 12 22 12 35 0 20 -5 23 -40 23 -22 0 -40 -4 -40
-10 0 -13 -47 -13 -55 0 -3 6 -16 8 -28 5 -13 -4 -34 -2 -47 4 -23 9 -22 10
13 10 27 1 37 5 37 17 0 13 -7 15 -36 9 -24 -4 -34 -3 -29 4 10 18 -78 4 -91
-13 -21 -30 -34 -18 -29 26 l6 41 -26 -25 c-16 -16 -23 -32 -19 -42 8 -20 -3
-21 -22 -1 -9 8 -24 15 -35 15 -10 0 -19 7 -19 15 0 9 -11 20 -24 26 -21 10
-28 7 -60 -24 -38 -38 -47 -67 -19 -67 31 0 0 -19 -36 -22 -29 -3 -36 1 -50
29 -9 18 -24 33 -33 33 -24 0 -23 21 3 64 17 30 18 36 6 36 -29 0 -47 -12 -48
-34 -1 -16 -2 -17 -6 -3 -5 21 -29 23 -37 2 -3 -8 -12 -15 -21 -15 -17 0 -20
11 -6 25 5 6 11 29 13 53 3 40 2 43 -17 37 -11 -4 -35 -9 -52 -12 -18 -3 -33
-9 -33 -14 0 -5 -5 -9 -10 -9 -6 0 -19 -9 -31 -21 -16 -16 -30 -20 -59 -17
-22 2 -42 -2 -50 -10 -8 -9 -24 -11 -49 -7 -20 3 -49 1 -64 -4 -26 -10 -32 -6
-28 21 0 4 -21 0 -47 -8 -26 -8 -58 -17 -72 -20 -35 -7 -51 -24 -44 -46 4 -15
2 -19 -13 -17 -10 1 -35 -6 -56 -16 -28 -14 -37 -24 -34 -37 3 -10 1 -16 -4
-12 -5 3 -9 11 -9 17 0 7 -12 12 -27 11 -19 -1 -28 -6 -27 -18 1 -10 -6 -16
-20 -17 -20 0 -20 -1 -2 -8 22 -8 15 -15 -26 -25 -16 -3 -28 -13 -28 -20 0
-14 -29 -30 -38 -21 -3 3 0 5 6 5 7 0 12 7 12 16 0 11 -6 14 -22 8 -37 -11
-45 -17 -71 -55 -18 -27 -22 -40 -14 -48 8 -8 2 -11 -21 -11 l-32 0 0 -64 c0
-42 4 -66 13 -69 9 -4 9 -6 0 -6 -7 -1 -13 -12 -13 -26 0 -18 5 -25 20 -25 11
0 20 -7 20 -15 0 -17 14 -19 40 -5 29 16 33 -4 9 -49 -13 -25 -28 -41 -39 -41
-11 0 -22 -5 -26 -11 -4 -8 -9 -7 -15 2 -5 8 -9 -42 -9 -121 l0 -135 28 0 c15
-1 164 -4 332 -8 168 -4 454 -9 635 -12 310 -5 439 -9 680 -21 124 -6 182 -29
182 -73 0 -30 10 -46 55 -89 16 -15 28 -35 28 -45 0 -11 11 -22 30 -28 17 -6
30 -14 30 -19 0 -11 65 -80 76 -80 5 0 34 -24 64 -52 76 -73 162 -105 292
-112 56 -2 98 -1 100 5 2 5 18 10 36 12 18 1 32 8 32 15 0 6 7 12 15 12 8 0
24 9 35 20 11 11 29 20 39 20 11 0 33 11 49 25 17 14 34 25 39 25 5 0 20 11
32 24 21 22 65 42 84 38 4 -1 7 2 7 8 0 13 50 59 85 77 17 8 48 35 70 59 24
26 49 44 62 44 12 0 40 18 62 40 22 22 46 40 54 40 7 0 19 6 25 13 17 16 476
20 727 7 412 -23 555 -39 630 -72 46 -21 68 -23 275 -24 189 -2 228 0 242 13
10 9 25 12 37 8 11 -3 33 1 50 9 22 12 48 14 108 10 62 -5 104 -1 203 19 69
15 148 29 175 32 93 12 105 16 105 36 0 10 -5 19 -11 19 -5 0 -7 5 -4 10 3 6
0 10 -7 10 -17 0 -48 36 -48 55 0 8 -6 15 -14 15 -7 0 -24 14 -37 32 -29 39
-75 80 -85 78 -4 -1 -11 5 -16 14 -5 9 -14 16 -21 16 -13 0 -23 14 -67 96 -35
63 -35 64 -15 64 21 0 19 33 -5 62 -23 30 -50 103 -50 140 0 15 -4 29 -9 32
-4 3 -11 36 -14 73 -8 86 -21 99 -78 85 -30 -8 -45 -8 -50 0 -4 7 -13 7 -25 0
-23 -12 -59 0 -72 24 -7 12 -22 18 -46 18 -24 0 -36 5 -36 14 0 7 -13 19 -30
25 -16 6 -30 15 -30 19 0 4 -5 8 -11 8 -5 0 -7 -4 -4 -10 7 -11 -9 -13 -41 -4
-23 6 -104 122 -104 148 0 22 -36 61 -44 47 -8 -12 -26 -91 -33 -144 l-5 -38
-62 7 c-119 13 -178 11 -187 -8 -5 -10 -13 -26 -18 -35 -13 -28 -41 -29 -42
-1 0 22 -1 22 -9 3 -9 -20 -11 -15 -14 25 -1 14 -8 16 -35 12 -5 -1 -8 -15 -6
-32 2 -16 0 -32 -5 -35 -13 -8 -102 18 -107 32 -3 7 -16 13 -30 13 -16 0 -40
15 -67 42 -37 38 -39 42 -21 47 16 5 20 15 20 48 0 56 -19 74 -68 66 -34 -5
-97 -54 -97 -75 0 -4 -7 -8 -15 -8 -8 0 -17 -10 -20 -23 -3 -12 -24 -32 -45
-45 -22 -12 -40 -28 -40 -35 0 -16 -67 -69 -74 -58 -4 5 -15 7 -26 4 -15 -4
-22 2 -30 21 -5 15 -17 29 -25 32 -8 4 -15 18 -15 34 0 15 -7 33 -15 40 -8 7
-15 17 -15 22 0 6 -9 23 -21 39 -11 16 -16 29 -10 29 16 0 13 57 -3 63 -8 3
-17 1 -19 -6 -3 -7 -4 6 -4 28 1 285 -24 655 -45 655 -4 0 -9 -6 -9 -12z
m-2829 -939 c0 -8 5 -7 15 1 11 9 19 10 26 3 21 -21 -32 -39 -63 -22 -24 13
-23 29 2 29 11 0 20 -5 20 -11z m3800 1 c0 -5 -7 -10 -15 -10 -8 0 -15 5 -15
10 0 6 7 10 15 10 8 0 15 -4 15 -10z m-3530 -51 c0 -5 -9 -9 -20 -9 -17 0 -19
2 -8 14 13 14 28 12 28 -5z m675 -49 c3 -5 -3 -10 -15 -10 -12 0 -18 5 -15 10
3 6 10 10 15 10 5 0 12 -4 15 -10z m380 0 c3 -5 1 -10 -4 -10 -6 0 -11 5 -11
10 0 6 2 10 4 10 3 0 8 -4 11 -10z m455 -11 c0 -12 8 -23 20 -26 11 -3 20 -9
20 -14 0 -5 -9 -9 -20 -9 -24 0 -26 -13 -5 -34 12 -12 13 -20 4 -43 -10 -26
-12 -27 -19 -8 -8 18 -9 18 -9 2 -1 -17 -3 -17 -31 3 -18 13 -37 19 -49 15
-16 -5 -20 0 -23 22 -2 20 -8 27 -20 25 -17 -3 -45 35 -34 46 3 3 6 0 6 -6 0
-6 21 -12 48 -14 37 -2 47 -7 47 -20 0 -10 5 -17 10 -15 6 1 9 14 7 29 -4 33
13 68 33 68 9 0 15 -9 15 -21z m-240 -64 c0 -8 -9 -15 -19 -15 -11 0 -23 -4
-26 -10 -10 -16 -21 -12 -22 9 -1 11 6 22 15 24 35 9 52 7 52 -8z m2440 -45
c0 -5 -4 -10 -10 -10 -5 0 -10 5 -10 10 0 6 5 10 10 10 6 0 10 -4 10 -10z
m-4061 -30 c-13 -16 -24 -28 -26 -27 -7 8 23 57 35 57 8 0 5 -10 -9 -30z
m2401 20 c0 -5 -4 -10 -10 -10 -5 0 -10 5 -10 10 0 6 5 10 10 10 6 0 10 -4 10
-10z m-1495 -10 c-3 -5 -15 -10 -26 -10 -11 0 -17 5 -14 10 3 6 15 10 26 10
11 0 17 -4 14 -10z m669 -6 c9 -3 16 -10 16 -15 0 -12 -60 -79 -71 -79 -17 0
-9 22 10 27 23 6 34 42 19 60 -12 14 -1 17 26 7z m-522 -168 c4 -17 0 -26 -13
-29 -25 -7 -40 12 -28 35 14 26 36 22 41 -6z m-1652 -36 c0 -5 -5 -10 -11 -10
-5 0 -7 5 -4 10 3 6 8 10 11 10 2 0 4 -4 4 -10z m595 -144 c-17 -26 -27 -31
-38 -20 -10 10 5 35 27 44 29 11 31 6 11 -24z"/>
<path d="M2546 2101 c-4 -7 -5 -15 -2 -18 9 -9 19 4 14 18 -4 11 -6 11 -12 0z"/>
<path d="M2710 3070 c-12 -8 -11 -10 7 -10 12 0 25 5 28 10 8 13 -15 13 -35 0z"/>
<path d="M4737 3073 c-14 -13 -6 -25 13 -20 11 3 23 1 26 -4 3 -5 13 -9 22 -9
14 0 14 2 2 14 -19 17 -54 28 -63 19z"/>
<path d="M3180 3027 c0 -25 41 -67 65 -67 20 0 19 6 -6 31 -12 12 -19 29 -16
40 4 15 0 19 -19 19 -18 0 -24 -5 -24 -23z"/>
<path d="M3293 2995 c4 -8 2 -17 -4 -20 -5 -4 -3 -12 5 -21 18 -17 36 -18 36
-2 0 7 5 5 13 -4 6 -9 22 -19 35 -23 33 -9 28 17 -9 54 -32 33 -86 44 -76 16z"/>
<path d="M3990 2946 c13 -35 13 -56 -1 -33 -11 18 -44 23 -54 7 -3 -5 5 -19
17 -32 30 -30 48 -65 43 -83 -15 -49 -15 -48 -30 -35 -28 23 -43 5 -43 -51 0
-37 -4 -54 -16 -61 -12 -7 -14 -14 -6 -28 16 -30 2 -50 -35 -50 -35 0 -51 -20
-32 -39 19 -19 44 -12 69 17 20 24 30 28 61 24 20 -2 40 -8 43 -13 3 -5 2 -8
-3 -7 -14 4 -53 -13 -53 -23 0 -11 32 -49 42 -49 5 0 8 14 8 31 0 27 2 30 15
19 12 -10 15 -10 15 4 0 9 9 21 20 28 11 7 20 19 20 26 0 9 5 10 18 3 23 -12
78 30 69 53 -5 12 -1 14 23 9 17 -3 30 -2 30 3 0 15 35 32 76 39 31 5 35 4 22
-5 -10 -6 -18 -15 -18 -20 0 -24 83 2 118 37 15 14 9 48 -7 38 -6 -3 -18 3
-28 14 -10 11 -27 18 -38 17 -23 -4 -57 11 -68 30 -10 17 -54 18 -59 2 -4 -10
-13 -9 -44 1 -51 17 -89 12 -88 -12 3 -32 -30 -15 -44 24 -13 34 0 58 22 40
12 -10 16 -9 25 7 9 17 6 22 -18 32 -22 9 -27 16 -23 32 4 17 2 20 -13 15 -9
-4 -24 -2 -32 4 -11 10 -12 8 -3 -15z m30 -189 c0 -10 -4 -15 -10 -12 -5 3
-10 18 -10 33 0 21 2 24 10 12 5 -8 10 -23 10 -33z m-25 -47 c-3 -5 -13 -10
-21 -10 -8 0 -14 5 -14 10 0 6 9 10 21 10 11 0 17 -4 14 -10z m5 -36 c0 -8 -4
-12 -10 -9 -5 3 -10 10 -10 16 0 5 5 9 10 9 6 0 10 -7 10 -16z m26 -81 c-10
-10 -19 5 -10 18 6 11 8 11 12 0 2 -7 1 -15 -2 -18z"/>
<path d="M3030 2911 c-8 -4 -25 -13 -38 -20 -12 -6 -33 -9 -46 -5 -26 6 -45
-21 -26 -40 5 -5 10 -25 10 -43 0 -40 7 -41 42 -8 27 25 27 25 38 5 6 -12 21
-20 35 -20 14 0 25 -6 25 -13 0 -8 8 -21 18 -30 20 -19 62 -23 62 -7 0 17 24
11 54 -15 16 -13 33 -22 37 -19 5 3 22 -4 38 -15 16 -12 34 -21 40 -21 6 0 11
-4 11 -10 0 -5 7 -10 15 -10 8 0 15 -3 15 -7 0 -9 57 -43 72 -43 6 0 17 -8 24
-17 11 -16 13 -16 14 -2 0 8 -11 26 -25 39 -14 13 -25 31 -25 41 0 9 -11 24
-24 32 -12 9 -31 33 -41 54 -10 21 -26 44 -37 51 -19 14 -25 42 -8 42 13 0 13
27 0 35 -6 4 -17 1 -25 -5 -19 -16 -35 -4 -35 25 0 25 -16 43 -22 25 -2 -7
-14 -7 -36 1 -25 8 -36 8 -47 -1 -8 -7 -15 -9 -15 -6 0 4 -11 -5 -24 -19 -24
-26 -49 -18 -27 9 19 23 -15 35 -49 17z"/>
<path d="M3290 2905 c0 -9 5 -15 11 -13 6 2 11 8 11 13 0 5 -5 11 -11 13 -6 2
-11 -4 -11 -13z"/>
<path d="M3876 2904 c-8 -21 -8 -24 3 -24 12 0 22 28 12 35 -5 3 -12 -2 -15
-11z"/>
<path d="M3864 2846 c3 -14 2 -36 -4 -50 -10 -28 0 -35 19 -12 14 17 5 86 -11
86 -6 0 -7 -11 -4 -24z"/>
<path d="M3360 2800 c0 -5 7 -7 15 -4 8 4 15 8 15 10 0 2 -7 4 -15 4 -8 0 -15
-4 -15 -10z"/>
<path d="M3803 2768 c2 -7 10 -13 17 -13 7 0 15 6 18 13 2 7 -5 12 -18 12 -13
0 -20 -5 -17 -12z"/>
<path d="M4446 2744 c-9 -24 -9 -24 28 -24 31 0 53 19 39 34 -13 13 -61 5 -67
-10z"/>
<path d="M3765 2700 c-3 -5 -1 -10 4 -10 6 0 11 5 11 10 0 6 -2 10 -4 10 -3 0
-8 -4 -11 -10z"/>
<path d="M1555 2570 c4 -6 11 -8 16 -5 14 9 11 15 -7 15 -8 0 -12 -5 -9 -10z"/>
<path d="M1640 2515 c0 -8 5 -15 10 -15 6 0 10 7 10 15 0 8 -4 15 -10 15 -5 0
-10 -7 -10 -15z"/>
<path d="M3017 2453 c-4 -3 -7 -11 -7 -17 0 -6 5 -5 12 2 6 6 9 14 7 17 -3 3
-9 2 -12 -2z"/>
<path d="M2966 2398 c-22 -31 -20 -41 5 -33 27 9 63 45 53 53 -3 4 -9 1 -11
-6 -4 -9 -8 -10 -18 -2 -10 8 -17 5 -29 -12z"/>
<path d="M1040 2393 c0 -13 5 -23 10 -23 13 0 13 11 0 30 -8 12 -10 11 -10 -7z"/>
<path d="M4700 2385 c0 -8 3 -15 8 -16 4 0 17 -2 30 -3 25 -3 28 4 10 22 -17
17 -48 15 -48 -3z"/>
<path d="M3520 2300 c0 -5 5 -10 11 -10 5 0 7 5 4 10 -3 6 -8 10 -11 10 -2 0
-4 -4 -4 -10z"/>
<path d="M3330 2250 c0 -5 7 -10 15 -10 8 0 15 5 15 10 0 6 -7 10 -15 10 -8 0
-15 -4 -15 -10z"/>
<path d="M1620 2240 c0 -11 33 -30 52 -30 7 1 3 9 -11 20 -25 22 -41 26 -41
10z"/>
<path d="M1130 2230 c0 -5 5 -10 11 -10 5 0 7 5 4 10 -3 6 -8 10 -11 10 -2 0
-4 -4 -4 -10z"/>
<path d="M1992 2129 c2 -6 8 -10 13 -10 5 0 11 4 13 10 2 6 -4 11 -13 11 -9 0
-15 -5 -13 -11z"/>
<path d="M1688 3 c932 -2 2453 -2 3380 0 928 1 166 2 -1693 2 -1859 0 -2618
-1 -1687 -2z"/>
</g>
</svg>
