<?xml version="1.0" standalone="no"?>
<!DOCTYPE svg PUBLIC "-//W3C//DTD SVG 20010904//EN"
 "http://www.w3.org/TR/2001/REC-SVG-20010904/DTD/svg10.dtd">
<svg version="1.0" xmlns="http://www.w3.org/2000/svg"
 width="735.000000pt" height="1306.000000pt" viewBox="0 0 735.000000 1306.000000"
 preserveAspectRatio="xMidYMid meet">

<g transform="translate(0.000000,1306.000000) scale(0.100000,-0.100000)"
fill="#000000" stroke="none">
<path d="M0 6530 l0 -6530 2745 0 c1510 0 2745 3 2745 8 0 4 -13 16 -29 26
-16 11 -27 26 -24 33 3 7 -3 15 -13 19 -11 3 -26 10 -34 15 -8 5 -25 13 -37
19 -25 10 -32 55 -10 63 7 3 5 6 -6 6 -33 2 -84 65 -103 127 -10 33 -24 64
-31 70 -7 6 -13 17 -13 24 0 7 -8 10 -19 7 -19 -5 -34 12 -36 41 0 7 -14 21
-30 30 -17 9 -31 20 -33 25 -2 4 -9 7 -15 7 -14 1 -47 63 -47 89 0 11 -6 21
-14 24 -9 4 -15 37 -21 109 -4 56 -7 111 -7 121 12 179 -19 331 -81 395 -29
30 -30 34 -18 55 27 42 31 88 12 128 -30 62 -14 349 20 349 22 0 6 19 -18 22
-16 2 -26 8 -23 13 3 6 13 9 22 8 10 -2 18 2 18 7 0 6 -9 10 -20 10 -27 0 -27
-2 11 72 6 12 11 45 10 74 0 29 4 56 9 59 12 7 14 125 2 125 -11 0 -32 61 -32
93 0 25 -2 26 -25 15 -17 -8 -24 -17 -20 -29 3 -10 -5 -29 -20 -47 -14 -16
-25 -37 -25 -46 0 -9 -7 -16 -16 -16 -10 0 -14 -6 -10 -15 5 -14 2 -16 -68
-30 -11 -2 -32 5 -47 16 -15 10 -29 19 -32 19 -3 0 -28 15 -56 34 -27 19 -55
36 -62 38 -15 5 15 114 38 141 15 16 14 17 -15 17 -34 0 -52 18 -31 31 13 8
12 10 -11 13 -6 0 -14 6 -18 12 -12 18 -49 34 -65 28 -8 -3 -20 1 -26 8 -53
65 -53 65 -119 64 -59 -1 -63 -2 -57 -23 3 -12 1 -24 -3 -27 -15 -9 -82 14
-82 28 0 8 -6 19 -14 25 -17 14 -76 3 -76 -15 0 -8 -4 -14 -10 -14 -5 0 -10 7
-10 16 0 13 -4 13 -29 -2 -16 -10 -32 -25 -34 -34 -7 -27 -43 -30 -68 -6 -13
11 -32 19 -42 18 -11 -2 -17 1 -13 6 9 14 -35 49 -74 57 -58 13 -105 90 -65
110 11 6 20 19 20 30 0 17 -8 20 -55 23 -49 3 -53 2 -36 -11 19 -14 15 -37 -7
-37 -7 0 -38 -24 -71 -54 -76 -70 -88 -73 -123 -27 -15 20 -31 37 -35 39 -18
8 -51 77 -52 111 -1 31 -4 36 -23 34 -26 -3 -31 14 -8 23 11 5 14 19 11 61 -4
53 -6 57 -38 68 -73 27 -89 35 -87 47 1 7 -3 24 -9 38 -6 14 -13 37 -16 53 -5
21 -12 27 -31 27 -17 0 -25 6 -26 18 -2 61 -20 151 -30 158 -5 3 -18 0 -30 -7
-28 -14 -39 1 -39 56 0 22 -7 51 -16 63 -8 12 -14 28 -11 35 2 6 -2 18 -9 25
-11 10 -10 19 6 47 l19 34 -42 3 c-39 3 -42 5 -39 29 2 20 -10 37 -55 81 -76
73 -104 108 -97 119 5 9 1 10 -37 13 -24 1 -69 53 -69 80 0 15 -6 17 -29 14
-17 -2 -28 -1 -25 3 2 4 -1 13 -8 19 -49 40 -68 60 -68 69 0 6 -11 13 -25 17
-14 3 -25 12 -25 19 0 7 -9 15 -20 18 -13 3 -20 0 -20 -10 0 -8 -5 -12 -12 -9
-7 3 -21 9 -30 12 -10 4 -18 19 -20 38 -5 50 -31 40 -42 -17 -11 -57 4 -84 28
-51 14 18 15 18 21 1 4 -9 12 -16 19 -15 13 3 54 -30 107 -87 30 -32 35 -42
26 -54 -10 -11 -8 -13 9 -7 18 5 23 2 28 -20 4 -15 2 -32 -3 -37 -6 -6 -11
-18 -11 -27 0 -13 10 -16 57 -14 63 3 54 -9 -14 -21 -24 -4 -46 -11 -49 -17
-9 -14 13 -26 39 -21 25 5 53 -30 40 -49 -21 -35 2 -99 29 -82 6 4 8 -1 4 -14
-5 -15 -1 -24 15 -33 21 -11 22 -12 5 -25 -17 -12 -16 -13 4 -24 16 -9 19 -15
11 -23 -8 -8 -4 -18 15 -38 23 -24 24 -29 12 -48 -7 -11 -16 -21 -20 -21 -12
0 -9 -45 3 -57 7 -7 6 -14 -3 -24 -17 -19 -22 -49 -7 -49 8 0 10 -13 6 -40 -3
-22 -1 -43 4 -46 16 -10 -1 -24 -29 -24 -23 -1 -25 -2 -9 -11 19 -11 47 -71
47 -101 0 -11 -8 -22 -19 -25 -19 -5 -19 -34 0 -59 13 -16 -2 -26 -18 -12 -10
8 -17 8 -26 -1 -9 -9 -9 -14 2 -20 7 -5 10 -14 7 -20 -4 -6 0 -18 8 -27 9 -8
16 -21 16 -28 0 -8 7 -19 15 -26 9 -8 11 -17 5 -28 -5 -10 -11 -25 -14 -35 -3
-9 -10 -17 -16 -17 -6 0 -8 5 -5 10 3 6 1 10 -5 10 -7 0 -9 -8 -5 -20 4 -14 2
-20 -7 -18 -7 2 -13 -6 -13 -17 -1 -21 17 -45 33 -45 15 0 22 -26 9 -39 -6 -6
-18 -11 -27 -11 -8 0 -22 -5 -30 -10 -11 -8 -8 -9 13 -4 22 5 26 3 21 -10 -3
-9 -10 -16 -15 -16 -5 0 -9 -7 -9 -15 0 -8 5 -15 10 -15 6 0 10 5 10 11 0 8 5
8 15 -1 8 -7 15 -17 15 -22 0 -6 -6 -6 -14 1 -11 9 -15 8 -20 -5 -9 -23 -7
-46 3 -39 5 3 15 -1 23 -10 32 -35 38 -45 29 -45 -5 0 -12 4 -15 8 -3 4 -21 6
-40 4 -33 -4 -36 -7 -36 -37 0 -18 -6 -36 -13 -39 -6 -3 -3 -4 8 -3 31 3 28
-47 -4 -51 -13 -2 -28 1 -34 7 -6 6 -19 11 -28 11 -10 0 -25 7 -34 16 -12 12
-19 14 -27 6 -12 -12 4 -33 37 -47 19 -8 19 -8 1 -13 -20 -4 -46 -25 -46 -36
0 -4 10 -5 23 -3 12 2 16 2 10 0 -15 -5 -17 -33 -3 -33 6 0 10 -6 10 -14 0 -8
14 -26 31 -40 27 -23 28 -26 10 -26 -12 0 -21 -3 -21 -6 0 -4 27 -33 59 -66
55 -55 59 -61 51 -89 -8 -26 -5 -35 15 -57 29 -32 31 -47 8 -61 -16 -9 -16
-10 -2 -11 13 0 17 -11 18 -51 1 -44 -2 -52 -20 -56 -16 -4 -19 -11 -14 -27 4
-11 8 -33 9 -47 0 -14 7 -33 15 -42 11 -14 11 -18 -4 -23 -10 -4 -15 -14 -12
-25 3 -11 1 -19 -4 -19 -5 0 -9 -13 -9 -29 0 -38 -16 -48 -31 -19 -10 18 -9
24 7 37 11 9 18 26 16 38 -3 22 -22 33 -22 13 0 -5 -10 -19 -23 -32 -22 -22
-24 -23 -42 -6 -24 23 -38 23 -26 -1 12 -21 5 -32 -15 -24 -17 6 -18 -9 -2
-25 8 -8 8 -15 -1 -26 -9 -11 -9 -15 1 -19 10 -4 10 -6 1 -6 -18 -1 -16 -21 2
-35 9 -6 16 -27 18 -46 1 -19 9 -40 17 -47 13 -11 13 -12 0 -13 -12 0 -12 -2
-2 -9 10 -6 7 -12 -13 -25 -18 -12 -25 -24 -22 -36 7 -27 -29 -33 -52 -9 -18
20 -19 20 -26 -8 -4 -17 -2 -29 4 -31 6 -2 11 -8 11 -14 0 -5 -8 -7 -18 -4
-13 4 -23 -1 -32 -19 -12 -22 -37 -32 -65 -25 -5 2 -20 2 -32 2 -24 -2 -32 25
-13 44 13 13 1 54 -16 54 -8 0 -14 -9 -14 -19 0 -11 -4 -23 -10 -26 -6 -3 -10
-15 -10 -25 0 -25 -57 -90 -79 -90 -9 0 -21 -4 -27 -10 -13 -13 -153 31 -165
53 -6 9 -14 17 -19 17 -5 0 -20 11 -34 25 -14 14 -36 25 -49 25 -14 0 -27 6
-30 13 -3 7 -28 19 -56 27 -38 10 -51 18 -51 32 0 10 -6 18 -14 18 -12 0 -37
26 -86 87 -6 7 -10 17 -10 23 0 5 -4 10 -10 10 -5 0 -18 28 -29 63 -10 34 -25
76 -32 92 -7 17 -18 55 -25 85 -10 46 -9 58 2 71 21 24 17 41 -18 79 -18 19
-33 37 -34 40 -3 17 -20 46 -30 55 -21 18 -33 72 -24 106 5 18 7 36 4 41 -3 4
6 22 20 39 28 33 31 46 16 69 -8 13 -10 13 -10 -1 0 -9 -7 -22 -16 -30 -13
-11 -15 -9 -9 17 16 76 28 113 35 109 5 -3 11 13 15 34 4 22 14 42 22 45 14 6
14 8 -1 25 -14 15 -15 24 -7 40 8 14 8 22 0 27 -14 8 -3 103 16 147 4 10 2 23
-5 32 -10 12 -9 20 3 39 17 26 20 156 4 156 -4 0 -6 4 -3 8 2 4 7 36 11 70 3
35 13 78 21 97 16 38 18 57 5 36 -5 -7 -15 -11 -22 -9 -9 4 -5 10 14 18 29 14
36 30 12 30 -8 0 -15 5 -15 10 0 6 7 10 15 10 18 0 20 16 3 23 -13 6 19 40 57
62 17 10 17 13 1 42 -21 42 -36 50 -52 28 -11 -14 -16 -15 -28 -6 -8 6 -12 20
-9 31 4 13 -1 19 -19 22 -18 2 -22 8 -20 26 3 17 -2 25 -17 29 -11 3 -19 9
-16 13 6 9 -48 30 -78 30 -16 0 -18 5 -15 29 3 23 0 31 -16 36 -19 6 -19 8 -3
12 27 7 20 26 -8 21 -17 -4 -25 -1 -25 9 0 9 -6 13 -13 10 -7 -3 -21 1 -32 9
-10 8 -26 14 -36 14 -9 0 -20 7 -23 15 -4 12 -10 14 -25 5 -26 -13 -31 -13
-31 4 0 8 -9 18 -20 21 -26 8 -26 35 0 35 30 0 24 14 -12 28 l-33 12 29 15
c15 8 39 15 52 15 13 0 24 5 24 10 0 11 0 11 -72 31 -59 17 -62 31 -5 29 60
-3 69 -1 62 9 -3 5 0 13 6 17 15 9 -8 24 -38 24 -12 0 -27 9 -33 20 -8 15 -17
19 -35 14 -15 -4 -25 -2 -25 5 0 10 4 11 25 11 6 0 74 28 79 32 1 2 10 -3 20
-11 9 -8 19 -11 22 -8 6 6 -27 42 -47 50 -8 3 -3 5 11 4 14 -1 35 -12 48 -25
15 -15 34 -22 62 -22 49 0 54 22 11 41 -40 18 -29 30 14 16 27 -8 41 -7 61 3
21 12 27 12 34 0 9 -14 13 -3 22 55 3 16 10 19 36 17 23 -2 32 1 32 11 0 8 -6
17 -14 20 -18 7 -17 45 1 51 7 3 13 17 13 31 0 27 17 34 26 10 10 -24 24 -17
24 11 0 22 2 24 15 14 19 -16 37 -3 30 21 -8 25 11 24 25 -2 16 -28 36 -18 32
15 -3 19 0 26 7 22 6 -4 11 -16 11 -27 0 -10 4 -19 8 -19 4 0 13 -14 20 -32 8
-22 15 -29 22 -22 8 8 8 19 0 38 -13 34 -13 56 0 56 6 0 10 -11 10 -25 0 -32
27 -34 32 -2 2 13 9 21 18 19 8 -2 19 3 25 11 14 20 85 32 86 15 0 -7 5 -2 10
11 5 13 7 47 3 75 -6 46 -5 49 8 31 8 -11 18 -33 22 -48 4 -16 11 -25 17 -21
6 3 8 17 5 29 -3 13 -1 25 5 27 9 3 8 10 -2 25 -10 18 -11 24 0 37 11 13 11
19 1 31 -14 17 -3 20 20 5 10 -6 14 -24 13 -55 -1 -33 2 -45 13 -45 8 0 14 -6
14 -14 0 -8 9 -24 20 -37 18 -23 19 -23 20 -4 0 11 5 27 10 35 8 12 10 9 10
-11 0 -14 -11 -39 -25 -55 -14 -16 -25 -38 -25 -49 l1 -20 15 20 c8 11 20 19
26 17 5 -1 17 3 25 10 12 9 16 9 24 -3 6 -10 9 -4 9 21 l0 35 25 -27 c14 -15
25 -39 25 -54 0 -19 4 -25 15 -20 11 4 17 -3 22 -24 7 -37 21 -39 25 -3 2 14
8 28 15 30 9 3 10 -4 3 -26 -4 -16 -6 -32 -2 -35 12 -13 22 -5 22 19 0 14 5
25 10 25 6 0 10 9 10 19 0 32 17 34 28 4 l10 -28 7 28 c9 36 -10 60 -42 52
-22 -5 -28 2 -24 32 2 15 -79 63 -107 63 -14 0 -22 7 -24 22 -2 16 -13 25 -36
32 -30 8 -33 13 -28 36 4 21 -1 33 -19 48 -24 21 -25 21 -35 2 -13 -24 -23
-25 -56 -3 l-26 16 24 13 c12 7 17 13 11 14 -20 0 -15 20 5 20 14 0 13 4 -7
19 -14 10 -18 18 -10 18 8 1 29 4 48 9 27 6 32 4 26 -6 -5 -8 -4 -11 3 -6 13
8 5 36 -10 36 -5 0 -3 7 6 15 8 8 20 15 26 15 17 0 40 26 40 45 0 14 6 16 34
11 35 -7 59 7 31 18 -8 3 -15 12 -15 21 0 11 11 15 40 15 50 0 51 16 3 38
l-38 17 60 3 c33 2 62 8 66 14 7 11 83 14 115 3 15 -4 23 -2 27 9 4 9 -1 17
-14 21 -26 9 -24 25 4 25 20 0 102 -33 117 -47 8 -8 -25 -23 -52 -23 -58 0
-42 -34 22 -45 61 -10 88 -30 96 -71 3 -18 12 -38 20 -45 20 -16 61 -110 69
-157 4 -25 17 -50 36 -68 16 -15 29 -35 29 -43 0 -9 14 -27 31 -40 17 -14 28
-30 25 -38 -3 -8 -2 -12 3 -9 5 3 14 -1 21 -9 7 -8 9 -15 4 -15 -5 0 5 -8 23
-16 20 -10 40 -32 54 -60 11 -24 24 -44 29 -44 16 0 19 -31 5 -64 -25 -59 -19
-92 21 -131 20 -19 39 -35 42 -35 4 0 27 -18 50 -40 24 -22 51 -40 59 -40 9 0
13 -6 10 -14 -4 -10 -1 -13 8 -10 21 8 41 -6 24 -17 -11 -7 -10 -9 3 -9 9 0
19 -6 21 -12 4 -10 6 -10 6 0 1 19 21 4 21 -16 0 -10 8 -19 18 -20 60 -6 104
-21 97 -33 -4 -5 -2 -9 3 -9 9 0 26 -35 42 -84 3 -12 16 -20 34 -22 35 -4 75
14 57 26 -9 5 -6 9 8 13 12 3 18 1 15 -4 -3 -6 6 -8 23 -4 22 4 24 3 8 -4 -21
-9 -16 -13 33 -24 28 -7 108 25 140 56 12 11 32 21 44 22 12 1 24 7 26 13 2 7
10 12 18 12 8 0 14 5 14 11 0 9 26 10 93 5 50 -4 124 -9 162 -11 122 -8 190
-16 204 -24 10 -6 13 -29 12 -77 -2 -79 4 -101 29 -114 23 -12 52 -1 128 48
45 30 58 34 92 28 25 -4 40 -2 40 4 0 5 -6 10 -12 10 -8 1 -6 6 5 14 9 7 17
18 17 25 0 17 28 13 38 -5 6 -11 11 -13 16 -5 4 6 2 11 -3 11 -6 0 -11 7 -11
16 0 11 6 14 23 9 12 -4 26 -11 32 -16 5 -5 17 -9 27 -9 10 0 18 -7 18 -15 0
-8 16 -19 38 -24 21 -6 46 -17 56 -24 18 -13 16 -15 -20 -22 -33 -6 -36 -9
-19 -15 11 -5 33 -9 48 -9 23 -1 27 -4 22 -20 -4 -13 1 -24 17 -35 l23 -16
-30 -25 c-17 -13 -36 -24 -42 -25 -7 0 -13 -4 -13 -8 0 -12 57 -52 75 -52 17
0 32 -27 21 -37 -4 -4 -27 -7 -51 -7 -46 -1 -63 -21 -27 -32 53 -18 70 -29 59
-36 -8 -5 -4 -8 11 -8 12 0 22 -4 22 -10 0 -5 -6 -10 -14 -10 -7 0 -19 -7 -26
-16 -11 -13 -10 -16 8 -21 23 -6 39 -44 27 -63 -4 -7 -18 -10 -31 -7 -44 8
-26 -20 21 -33 50 -14 54 -21 24 -41 l-20 -14 24 -37 c14 -20 23 -39 20 -42
-3 -3 -21 1 -40 9 -40 17 -83 20 -83 5 0 -13 34 -30 59 -30 12 0 21 -4 21 -10
0 -5 12 -10 28 -11 l27 0 -25 -10 c-13 -6 -35 -7 -47 -4 -16 4 -23 1 -23 -10
0 -8 -9 -15 -19 -15 -21 0 -36 -26 -20 -35 19 -12 -3 -25 -44 -26 -23 -1 -33
-4 -23 -6 51 -13 55 -48 10 -90 l-29 -28 33 -3 c28 -3 40 3 74 37 22 23 44 41
49 41 6 0 7 4 4 10 -3 5 4 12 17 15 13 4 34 22 48 40 22 31 38 40 56 33 3 -2
10 4 15 14 6 12 30 18 83 23 76 7 122 -4 113 -29 -3 -7 4 -18 14 -24 15 -10
19 -9 19 0 0 7 6 4 12 -7 6 -11 20 -27 31 -35 11 -9 21 -29 22 -45 2 -16 14
-37 27 -47 19 -15 20 -18 6 -18 -27 0 -21 -19 7 -26 19 -5 23 -9 15 -19 -14
-17 -3 -43 21 -50 10 -4 19 -15 19 -25 0 -10 5 -22 11 -25 7 -5 5 -13 -6 -25
-11 -12 -13 -20 -5 -25 6 -4 8 -15 5 -26 -4 -13 -2 -19 8 -19 30 0 50 -37 43
-80 -5 -34 -2 -46 19 -75 l26 -33 -23 -16 -23 -16 23 -6 c12 -4 22 -14 22 -23
0 -9 15 -39 33 -66 45 -69 43 -65 68 -120 12 -27 27 -53 33 -57 6 -4 5 -12 -3
-21 -8 -11 -9 -17 -1 -22 6 -3 7 -12 4 -18 -4 -7 -3 -9 1 -4 5 4 17 0 27 -9
14 -13 15 -20 6 -31 -8 -10 -8 -23 1 -52 6 -21 11 -50 11 -65 0 -29 16 -66 34
-78 6 -5 2 -8 -10 -8 -32 0 -37 -26 -14 -70 20 -39 20 -39 0 -50 -15 -8 -19
-17 -14 -35 5 -19 2 -25 -10 -25 -9 0 -16 5 -16 10 0 6 -4 10 -10 10 -18 0
-11 -15 24 -53 32 -35 34 -41 31 -94 -3 -44 0 -60 13 -70 11 -10 13 -16 6 -19
-9 -4 -8 -13 3 -35 8 -16 13 -35 10 -42 -2 -6 7 -20 21 -31 14 -12 22 -26 19
-37 -3 -10 0 -20 7 -23 6 -3 1 -3 -11 0 -26 6 -30 -8 -8 -26 8 -7 15 -21 15
-31 0 -9 7 -24 15 -33 19 -19 19 -26 0 -26 -8 0 -15 -9 -15 -21 0 -14 5 -19
18 -17 19 3 22 -1 22 -24 0 -9 -3 -8 -10 2 -5 8 -12 11 -16 7 -4 -4 0 -15 8
-24 28 -34 48 -85 39 -101 -6 -11 -2 -28 12 -54 19 -33 20 -40 7 -48 -11 -8
-8 -9 12 -4 23 5 28 2 33 -20 3 -14 8 -38 11 -53 3 -16 8 -50 10 -78 2 -27 9
-62 15 -77 8 -21 7 -31 -6 -51 -8 -14 -14 -31 -13 -38 2 -7 -6 -15 -17 -17
-29 -6 -36 -15 -37 -51 -1 -17 -5 -31 -10 -31 -4 0 -8 -13 -8 -30 0 -20 -5
-30 -15 -30 -8 0 -15 -4 -15 -10 0 -7 270 -10 790 -10 l790 0 0 6530 0 6530
-3675 0 -3675 0 0 -6530z m4101 2677 c83 -44 116 -130 81 -210 -25 -55 -58
-79 -122 -85 -82 -8 -172 48 -207 127 -54 124 114 238 248 168z m-1046 -871
c30 -14 55 -30 55 -36 0 -6 5 -8 10 -5 6 3 10 1 10 -5 0 -8 -6 -9 -17 -4 -10
4 -33 7 -51 6 -19 -1 -39 1 -45 5 -41 25 -88 18 -120 -19 -16 -18 -26 -28 -23
-21 4 6 -3 14 -14 18 -25 8 -26 27 -1 49 45 41 120 45 196 12z m151 -111 c3
-8 14 -17 25 -20 29 -10 23 -22 -11 -22 -21 0 -29 4 -26 13 3 8 1 16 -4 19 -6
4 -10 10 -10 16 0 14 20 11 26 -6z m78 -85 c16 -17 25 -34 21 -38 -4 -4 -10
-1 -12 6 -3 6 -9 9 -14 6 -14 -8 -39 15 -39 37 0 27 11 24 44 -11z m30 -60
c23 -9 76 -90 59 -90 -5 0 0 -5 10 -11 9 -5 17 -19 17 -29 0 -10 5 -22 10 -25
15 -9 2 -25 -15 -18 -8 3 -15 14 -15 24 0 10 -4 19 -10 19 -5 0 -10 6 -10 14
0 8 -15 30 -34 48 -19 18 -37 43 -41 56 -7 25 -6 26 29 12z m-420 -75 c11 -8
31 -15 45 -15 21 0 23 -2 11 -11 -11 -8 -12 -12 -2 -16 6 -2 12 -17 12 -33 0
-15 7 -33 15 -40 9 -8 13 -21 9 -36 -8 -32 3 -74 20 -74 9 0 15 -17 18 -50 4
-40 12 -57 35 -81 21 -20 37 -27 49 -23 15 4 16 4 5 -4 -11 -8 -8 -13 13 -27
14 -9 23 -21 20 -26 -3 -5 5 -10 18 -11 70 -4 99 -33 66 -66 -9 -9 -9 -12 0
-12 7 0 12 4 12 9 0 22 32 18 59 -9 34 -31 41 -60 14 -60 -13 0 -14 -3 -5 -12
9 -9 15 -9 24 0 17 17 23 15 36 -13 13 -28 6 -55 -13 -55 -7 0 -16 -7 -19 -16
-6 -15 -8 -15 -27 2 -17 16 -22 16 -29 4 -6 -8 -10 -19 -10 -25 0 -5 -9 4 -20
22 -10 17 -29 37 -41 44 -12 6 -33 24 -47 40 -13 16 -32 29 -43 29 -23 0 -24
-13 -4 -34 8 -8 15 -21 15 -30 0 -8 25 -36 55 -62 30 -26 55 -54 55 -61 0 -19
-86 -10 -109 11 -29 26 -34 18 -10 -15 l22 -32 -21 -16 c-15 -12 -19 -23 -15
-43 6 -32 18 -36 31 -12 12 21 32 10 26 -14 -5 -19 24 -54 80 -96 l39 -29 -7
35 -7 36 37 -19 c21 -10 50 -30 65 -45 15 -14 29 -21 33 -16 8 13 -3 42 -15
42 -5 0 -9 7 -9 16 0 9 -10 25 -22 35 -11 11 -19 22 -15 25 3 3 19 -8 35 -25
16 -17 32 -31 36 -31 14 0 4 42 -14 57 -20 18 -28 39 -10 28 11 -7 26 22 16
32 -3 3 -12 0 -20 -6 -12 -10 -18 -7 -31 18 -11 22 -12 31 -3 31 6 0 4 6 -7
13 -13 10 -15 16 -6 21 8 5 16 -3 24 -24 9 -24 16 -30 31 -26 25 7 46 -10 46
-38 0 -17 6 -21 33 -21 25 0 31 -4 29 -18 -4 -22 24 -33 43 -17 13 10 19 9 35
-5 16 -14 22 -15 35 -5 12 10 16 9 21 -4 4 -10 0 -22 -11 -30 -17 -13 -17 -14
-1 -37 l18 -24 -6 28 c-6 26 8 39 17 15 2 -7 7 -11 10 -8 8 8 -19 108 -34 126
-9 11 -9 18 -1 26 15 15 62 -26 62 -53 0 -10 14 -24 30 -33 29 -14 30 -14 30
9 0 13 4 26 9 29 11 7 24 -59 16 -84 -4 -11 -2 -20 3 -20 5 0 12 9 15 20 6 24
27 27 27 4 0 -10 6 -14 14 -11 10 4 13 1 10 -8 -3 -7 1 -26 10 -42 14 -26 15
-26 16 -5 0 12 4 22 8 22 12 0 32 -47 32 -75 0 -13 5 -27 11 -31 8 -5 10 1 5
19 -3 14 -2 29 4 32 5 3 10 -1 10 -9 0 -9 5 -16 10 -16 14 0 12 38 -2 42 -7 3
-6 7 5 11 9 3 17 2 17 -3 0 -6 7 -10 15 -10 8 0 15 7 15 16 0 13 3 14 15 4 16
-14 35 -6 35 16 0 8 5 14 10 14 6 0 10 -11 10 -25 0 -14 -4 -25 -9 -25 -12 0
-2 -37 14 -50 9 -7 19 0 39 28 30 45 33 59 9 64 -14 3 -13 5 5 10 13 4 21 4
18 1 -3 -4 -1 -12 5 -20 8 -9 8 -17 2 -25 -18 -23 -22 -68 -6 -68 11 0 13 -6
8 -17 -19 -47 -18 -49 27 -49 26 1 48 7 55 16 9 10 12 11 13 3 0 -7 5 -13 11
-13 7 0 9 14 6 38 -2 20 -2 29 0 20 2 -10 9 -18 14 -18 5 0 9 -10 9 -23 0 -58
42 -36 60 30 7 26 16 51 19 55 12 13 81 -79 81 -107 0 -40 25 -25 26 16 3 76
3 76 19 45 8 -15 15 -36 15 -46 0 -12 8 -17 26 -17 39 0 47 -16 24 -46 -18
-23 -20 -32 -11 -63 6 -21 8 -41 5 -46 -3 -4 2 -18 10 -30 13 -18 16 -19 21
-6 3 8 5 21 3 29 -2 10 5 13 22 11 22 -2 23 -1 8 11 -9 7 -13 18 -9 25 9 14
46 11 46 -3 0 -6 -3 -9 -7 -7 -15 4 -8 -15 12 -33 11 -10 20 -24 20 -31 0 -8
6 -11 16 -7 15 6 15 7 -1 19 -19 14 -12 34 11 34 12 0 13 -12 9 -62 -3 -34 -2
-77 1 -95 6 -33 27 -44 37 -19 12 30 45 25 72 -10 l26 -34 20 22 21 23 -5 -22
c-7 -30 29 -66 59 -60 14 2 25 -1 28 -9 6 -16 36 -19 36 -5 0 5 -6 12 -12 14
-7 3 -8 6 -3 6 26 2 36 -16 24 -42 -18 -40 3 -60 58 -55 24 2 43 0 43 -4 0 -5
-9 -8 -19 -8 -11 0 -23 -4 -26 -10 -4 -6 14 -10 47 -11 65 -1 114 -17 56 -18
-43 -1 -53 -21 -10 -21 26 -1 26 -1 8 -15 -21 -16 -21 -16 52 -35 23 -6 40
-15 37 -20 -6 -9 -28 -8 -145 11 -129 20 -159 21 -234 5 -73 -15 -174 -59
-225 -98 -29 -22 -60 -23 -67 -3 -6 15 -35 21 -47 9 -3 -4 1 -17 10 -30 9 -15
11 -24 4 -24 -6 0 -14 -18 -17 -39 -4 -22 -16 -49 -29 -61 l-22 -21 -34 76
c-33 75 -59 97 -59 50 0 -16 -6 -25 -15 -25 -8 0 -15 -5 -15 -11 0 -14 -71 -4
-108 15 -23 12 -30 11 -59 -5 -19 -11 -46 -19 -61 -19 -16 0 -37 -7 -48 -15
-10 -8 -29 -15 -41 -15 -13 0 -23 -4 -23 -10 0 -5 -9 -10 -20 -10 -11 0 -20
-4 -20 -10 0 -5 5 -10 10 -10 6 0 10 -4 10 -10 0 -5 -12 -10 -27 -10 -19 0
-24 -3 -16 -11 5 -5 19 -10 29 -9 10 1 34 2 52 2 20 1 32 6 32 14 0 8 6 14 14
14 19 0 33 -23 18 -28 -23 -7 -12 -22 16 -22 34 0 66 -22 60 -40 -3 -10 -8 -9
-20 4 -9 9 -32 16 -52 16 -19 0 -38 5 -41 10 -3 6 -14 10 -23 9 -11 0 -12 -3
-4 -6 17 -7 15 -33 -4 -33 -18 0 -46 -25 -37 -34 11 -10 -19 -36 -42 -36 -22
0 -45 -34 -45 -67 0 -19 -46 -74 -54 -65 -10 9 -26 -18 -26 -43 0 -12 34 -56
80 -104 44 -47 80 -88 80 -93 0 -5 7 -11 15 -14 8 -4 15 -13 15 -22 0 -8 8
-24 17 -34 14 -16 15 -21 4 -28 -8 -4 -11 -15 -8 -25 4 -9 3 -14 -3 -10 -5 3
-15 -7 -21 -22 -6 -15 -17 -41 -25 -56 -7 -15 -9 -25 -4 -22 6 3 10 -1 10 -9
0 -9 -14 -18 -37 -23 -21 -4 -41 -8 -45 -9 -5 -1 -12 -2 -17 -3 -15 -2 -32
-63 -27 -99 4 -38 4 -37 34 -46 16 -6 22 -3 22 8 0 9 15 19 37 25 42 12 54 8
24 -9 -24 -12 -28 -30 -7 -30 8 0 22 -7 30 -16 14 -14 18 -13 41 3 13 10 25
22 25 26 0 5 5 5 11 1 8 -4 7 -9 -2 -16 -11 -7 -9 -12 9 -25 22 -16 30 -43 12
-43 -5 0 -10 -10 -10 -21 0 -17 4 -20 23 -15 12 3 49 8 82 11 54 3 63 1 90
-22 19 -17 25 -28 17 -31 -22 -7 -13 -20 23 -33 19 -7 35 -19 35 -26 0 -7 5
-13 11 -13 5 0 7 -5 3 -12 -6 -9 -9 -9 -12 0 -2 7 -10 12 -18 12 -24 0 -16
-14 16 -28 17 -8 30 -20 30 -28 0 -8 8 -14 18 -14 14 0 15 -2 2 -10 -22 -14
-21 -70 3 -112 17 -31 18 -40 7 -52 -22 -27 -4 -64 43 -85 23 -11 53 -32 66
-47 16 -18 26 -24 29 -16 2 7 -4 22 -13 32 -17 19 -17 20 9 29 32 13 33 25 1
56 -28 29 -40 31 -49 9 -3 -8 -11 -12 -16 -9 -21 13 12 35 49 34 39 -2 93 -43
85 -64 -4 -8 3 -11 20 -10 32 4 48 14 41 26 -3 5 1 6 9 3 9 -3 16 -13 16 -20
0 -11 4 -12 19 -5 13 7 17 18 14 36 -3 14 -1 25 3 25 15 -1 44 -26 44 -39 0
-18 17 -13 23 8 2 10 23 27 46 37 27 11 44 26 47 41 7 27 12 28 36 7 16 -16
18 -15 24 2 11 31 35 53 50 47 8 -3 14 -11 14 -18 0 -7 7 -15 15 -19 8 -3 15
-10 15 -16 0 -16 -40 -12 -46 5 -8 20 -21 19 -33 -4 -9 -16 -7 -17 14 -13 18
3 25 0 25 -12 0 -9 7 -19 15 -22 8 -4 15 -12 15 -19 0 -7 8 -16 18 -20 15 -6
14 -9 -10 -30 -27 -23 -27 -23 -5 -30 20 -6 18 -8 -13 -16 -19 -4 -42 -6 -50
-4 -11 4 -10 1 3 -9 9 -7 17 -20 17 -29 0 -9 5 -19 10 -22 25 -16 -6 -72 -34
-62 -18 7 -43 -13 -48 -38 -3 -16 -12 -20 -46 -22 -23 0 -44 3 -48 8 -3 5 -14
9 -26 9 -16 0 -19 -5 -16 -25 3 -14 1 -28 -3 -31 -5 -3 -9 -1 -9 4 0 5 -8 13
-17 16 -10 3 -28 12 -41 20 -21 12 -26 11 -49 -10 -30 -28 -36 -29 -53 -9 -18
21 -33 19 -27 -5 7 -25 -7 -34 -23 -15 -7 8 -16 13 -20 10 -4 -3 -32 18 -61
45 -30 28 -59 50 -66 50 -21 0 -27 -23 -10 -35 18 -13 23 -35 8 -35 -5 0 -12
7 -15 16 -4 10 -13 13 -26 9 -12 -4 -20 -2 -20 6 0 9 -4 8 -15 -1 -16 -13 -23
-3 -29 37 -2 10 -13 19 -24 21 -21 3 -27 18 -22 51 1 12 -1 13 -13 3 -12 -10
-16 -9 -21 3 -9 24 -26 18 -26 -10 0 -31 -16 -33 -26 -3 -6 20 -7 21 -20 4 -7
-10 -17 -15 -23 -11 -7 4 -11 -6 -11 -27 0 -18 -5 -40 -10 -48 -8 -12 -10 -9
-10 13 0 15 -4 27 -10 27 -5 0 -10 -7 -10 -15 0 -8 -4 -15 -10 -15 -5 0 -10
11 -10 24 0 20 -4 23 -22 19 -13 -3 -29 -11 -37 -17 -10 -8 -17 -5 -27 9 -14
18 -14 18 -14 -3 0 -13 6 -22 15 -22 19 0 19 -7 1 -26 -20 -20 -26 -18 -26 11
0 28 -19 35 -21 8 -1 -10 -4 -4 -8 12 -5 23 -12 29 -29 28 -12 -2 -22 2 -22 7
0 6 -11 10 -24 10 -18 0 -25 -7 -29 -30 -4 -16 -12 -30 -18 -30 -7 0 -9 10 -7
25 3 14 1 28 -4 31 -11 7 -58 -45 -59 -66 0 -8 -5 -2 -9 14 -5 16 -7 33 -4 38
4 5 -3 12 -15 15 -22 6 -28 19 -10 25 5 2 7 11 3 21 -5 15 -10 14 -37 -13 -17
-16 -37 -30 -44 -30 -15 0 -15 -3 -4 37 8 27 7 31 -7 26 -10 -3 -22 -10 -29
-15 -7 -5 -14 -5 -18 2 -5 8 -10 8 -20 0 -7 -6 -26 -13 -42 -16 -15 -2 -23 -1
-17 3 6 5 11 16 11 26 0 20 -46 24 -65 5 -9 -9 -12 -9 -12 0 0 7 -4 12 -10 12
-5 0 -10 -9 -10 -19 0 -11 -4 -23 -10 -26 -5 -3 -10 1 -10 9 0 9 -7 16 -15 16
-9 0 -12 6 -9 15 8 19 -3 19 -56 0 -52 -18 -51 -18 -43 1 5 14 1 15 -24 10
-21 -5 -35 -2 -46 8 -9 9 -25 16 -36 16 -11 0 -24 7 -29 16 -8 14 -13 14 -53
0 -40 -14 -45 -14 -56 1 -7 9 -14 20 -15 25 -2 5 -21 11 -43 13 -70 5 -132 35
-127 60 2 9 -4 15 -15 15 -10 0 -35 6 -57 14 -36 12 -37 14 -15 21 l24 8 -25
4 c-57 9 -70 14 -70 30 0 19 -28 42 -53 43 -10 0 -21 8 -24 18 -4 9 -9 19 -12
22 -3 3 -14 19 -23 35 -16 28 -21 30 -74 29 -44 -1 -61 3 -76 18 -15 15 -17
23 -8 33 8 10 8 15 0 20 -8 5 -4 12 10 22 12 8 19 21 16 29 -3 7 1 20 9 28 13
13 13 17 -1 30 -8 9 -12 20 -9 26 4 6 -7 10 -25 10 l-32 0 31 39 c29 37 30 40
14 50 -15 9 -16 12 -4 20 11 7 8 10 -15 14 -27 4 -28 5 -6 12 12 4 22 11 22
16 0 5 -10 10 -22 10 -17 1 -19 2 -5 6 9 2 17 11 17 19 0 13 13 19 34 15 4 -1
17 1 27 4 25 8 14 25 -16 25 -29 0 -41 16 -25 35 11 13 6 15 -29 15 -42 0 -59
19 -18 21 21 1 20 1 -5 13 l-27 11 30 18 c17 9 27 22 24 27 -4 6 -1 17 5 25
10 12 10 18 0 30 -6 8 -12 30 -13 50 -1 24 -6 37 -19 41 -23 7 -23 30 -1 43
15 8 15 11 3 26 -11 14 -11 18 -1 25 8 4 11 12 7 18 -3 5 1 15 9 22 8 7 15 19
15 26 0 8 5 14 11 14 12 0 1 42 -14 51 -5 4 0 10 12 14 25 8 27 20 5 29 -10 4
-13 13 -9 26 4 13 2 20 -6 20 -10 0 -10 3 -1 12 7 7 12 20 12 30 0 9 8 21 17
27 18 10 25 62 9 72 -5 4 1 10 13 14 21 6 29 25 11 25 -6 0 -1 17 10 37 12 24
16 41 10 48 -6 7 -3 17 10 28 11 9 20 26 20 37 0 13 7 20 20 20 23 0 26 13 6
30 -19 15 -10 38 17 42 12 2 21 9 19 16 -3 16 15 15 25 -1 4 -8 21 -17 38 -21
28 -7 29 -7 12 12 -23 25 -21 38 6 58 l22 16 -27 -6 c-15 -3 -30 -2 -33 4 -3
5 -17 10 -29 10 -41 0 -47 19 -34 109 9 64 8 93 -2 134 -11 48 -10 57 6 88
l19 34 3 -27 c2 -17 9 -28 18 -28 8 0 12 -5 9 -11 -4 -5 0 -24 8 -42 24 -51
29 -77 17 -77 -7 0 -8 -6 0 -19 5 -11 10 -29 10 -40 0 -11 7 -24 16 -29 9 -5
17 -24 19 -43 2 -26 7 -35 24 -37 23 -4 27 8 10 25 -9 9 -6 10 10 6 17 -4 24
-1 28 15 2 11 16 23 29 26 15 4 24 14 24 27 0 18 4 19 38 14 20 -4 45 -9 55
-12 16 -4 17 -2 8 15 -7 14 -8 23 -1 27 19 12 10 40 -20 60 -24 15 -29 25 -25
43 4 15 1 22 -10 22 -8 0 -22 15 -31 33 -9 17 -22 35 -28 39 -6 4 -7 10 -4 14
4 4 19 -1 32 -10 44 -29 71 -15 47 23 -7 10 -4 19 7 27 14 10 15 15 2 40 -8
16 -16 32 -18 37 -2 4 3 7 12 7 9 0 16 -7 16 -15 0 -8 8 -15 18 -15 9 0 33
-13 52 -30 23 -20 44 -29 66 -28 17 1 36 -2 41 -5 14 -9 53 -84 53 -101 0 -13
39 -30 49 -21 2 3 -1 5 -7 5 -18 0 -15 45 4 61 13 10 17 10 25 -2 5 -8 7 -19
5 -26 -3 -6 2 -14 10 -17 26 -10 36 -7 30 10 -4 11 1 18 14 21 21 6 27 28 10
38 -5 3 -10 -1 -10 -9 0 -9 -4 -16 -10 -16 -5 0 -10 8 -10 18 0 10 -5 23 -12
30 -9 9 -9 12 0 12 14 0 16 48 3 69 -16 25 -38 22 -33 -5 2 -13 1 -24 -3 -24
-13 0 -36 30 -30 40 6 9 -22 47 -29 39 -2 -2 -6 -16 -10 -31 -4 -19 -2 -28 6
-28 13 -1 48 -65 48 -88 0 -18 -17 -14 -23 6 -8 23 -38 71 -59 94 -10 10 -18
29 -18 43 0 25 -30 37 -30 13 0 -8 -5 -6 -10 3 -6 10 -8 31 -6 49 3 24 -2 35
-19 46 -12 8 -25 27 -28 42 -3 15 -20 42 -36 60 -17 18 -31 42 -31 53 0 11 -5
29 -10 40 -16 29 -28 106 -19 120 4 7 1 22 -6 32 -10 15 -11 25 -4 39 7 14 4
36 -12 84 -18 53 -20 70 -11 85 15 24 15 52 0 67 -9 9 -9 23 1 62 10 37 10 54
2 64 -6 7 -8 21 -5 30 4 10 -1 25 -10 35 -14 15 -15 26 -6 65 5 25 10 49 9 53
-1 5 -1 25 0 46 1 40 13 46 45 22z m556 -147 c0 -5 -4 -8 -10 -8 -5 0 -10 10
-10 23 0 18 2 19 10 7 5 -8 10 -18 10 -22z m30 -38 c0 -5 -4 -10 -10 -10 -5 0
-10 5 -10 10 0 6 5 10 10 10 6 0 10 -4 10 -10z m2370 -15 c-7 -8 -25 -15 -41
-15 -16 0 -29 -5 -29 -10 0 -6 -10 -8 -24 -4 -18 4 -31 -2 -54 -24 -19 -19
-41 -29 -61 -30 -95 -2 98 88 208 97 11 1 11 -2 1 -14z m127 -1 c3 -8 12 -13
19 -10 8 3 14 4 14 2 0 -3 3 -13 7 -23 6 -16 5 -16 -10 -5 -9 8 -22 10 -28 6
-7 -4 -17 -1 -23 7 -6 8 -22 20 -36 26 -24 11 -24 12 13 12 25 1 40 -4 44 -15z
m-2478 -41 c6 -21 11 -43 11 -50 0 -6 4 -13 9 -15 5 -1 21 -27 37 -57 16 -29
36 -68 46 -85 18 -35 10 -51 -21 -41 -25 8 -51 53 -51 89 0 14 -4 28 -10 31
-5 3 -10 15 -10 26 0 11 -11 45 -25 75 -29 64 -29 64 -10 64 8 0 19 -16 24
-37z m2551 -23 c0 -5 -2 -10 -4 -10 -3 0 -8 5 -11 10 -3 6 -1 10 4 10 6 0 11
-4 11 -10z m-490 -54 c0 -3 -4 -8 -10 -11 -5 -3 -10 -1 -10 4 0 6 5 11 10 11
6 0 10 -2 10 -4z m-30 -41 c0 -16 -27 -32 -37 -22 -3 4 -3 13 0 22 8 20 37 20
37 0z m-50 -35 c0 -5 -9 -15 -20 -22 -11 -7 -20 -19 -20 -26 0 -14 -47 -39
-56 -29 -4 3 1 13 10 22 9 9 16 20 16 25 0 9 47 39 63 40 4 0 7 -4 7 -10z
m-2030 -75 c0 -5 -5 -3 -10 5 -5 8 -10 20 -10 25 0 6 5 3 10 -5 5 -8 10 -19
10 -25z m25 -35 c3 -5 1 -10 -4 -10 -6 0 -11 5 -11 10 0 6 2 10 4 10 3 0 8 -4
11 -10z m45 -96 c0 -11 3 -24 7 -28 12 -12 31 -76 22 -76 -5 0 -9 5 -9 10 0 6
-16 34 -35 62 -20 28 -33 58 -30 66 3 7 5 19 5 25 1 21 40 -37 40 -59z m198
-47 c9 -6 11 -18 8 -33 -4 -14 -2 -24 4 -24 15 0 12 -77 -2 -83 -27 -10 -32 0
-35 58 -1 34 -6 72 -12 85 -9 24 -10 24 -10 -7 -1 -39 -13 -42 -29 -8 -17 37
-15 58 4 51 11 -4 18 1 22 16 5 20 7 19 21 -13 9 -18 22 -38 29 -42z m-388
-79 c0 -15 -3 -17 -19 -9 -30 17 -34 39 -5 33 15 -3 24 -11 24 -24z m-587 -6
c-2 -6 13 -38 32 -71 18 -34 30 -61 24 -61 -5 0 -9 -9 -9 -19 0 -29 -15 -34
-28 -8 -10 23 -27 87 -36 145 -4 24 -2 32 7 29 6 -2 11 -9 10 -15z m667 -17
c0 -8 -4 -15 -10 -15 -5 0 -10 7 -10 15 0 8 5 15 10 15 6 0 10 -7 10 -15z
m2465 -25 c3 -5 -1 -10 -9 -10 -12 0 -16 -10 -16 -40 0 -24 5 -40 12 -40 20 0
0 -12 -57 -35 -34 -14 -57 -19 -61 -13 -4 6 -2 13 3 17 5 3 12 13 15 22 5 13
1 15 -19 11 -17 -3 -24 -1 -19 6 3 6 27 14 51 18 29 4 45 11 45 20 0 8 5 14
11 14 6 0 9 6 6 14 -9 24 24 38 38 16z m37 -91 c6 -4 10 -52 10 -119 0 -102
-2 -113 -21 -126 -11 -8 -21 -23 -21 -33 0 -10 -7 -24 -15 -31 -11 -9 -14 -22
-10 -42 9 -39 -17 -78 -51 -78 -23 0 -25 3 -19 23 4 12 9 37 12 55 3 18 9 35
14 38 5 3 9 12 9 21 0 9 9 26 19 37 19 21 43 110 33 121 -8 8 -54 6 -93 -5
-32 -9 -38 -16 -48 -53 -13 -52 -41 -81 -70 -72 -15 4 -21 15 -21 34 0 19 -7
31 -22 39 -22 10 -22 11 -2 11 12 1 26 11 32 26 6 14 18 25 27 25 8 0 25 11
37 25 23 27 71 35 62 11 -9 -24 30 -27 74 -6 22 11 46 20 52 20 10 0 4 48 -9
62 -3 4 -4 29 -1 55 l5 48 3 -40 c2 -22 8 -43 14 -46z m-2692 17 c0 -7 -6 -13
-14 -13 -8 0 -11 8 -8 19 5 19 22 15 22 -6z m2656 -93 c-10 -10 -19 5 -10 18
6 11 8 11 12 0 2 -7 1 -15 -2 -18z m-1320 -190 c-11 -11 -19 6 -11 24 8 17 8
17 12 0 3 -10 2 -21 -1 -24z m-1757 -51 c-5 -2 -9 -10 -9 -18 0 -8 -4 -14 -10
-14 -11 0 -13 30 -4 54 6 15 8 15 19 -1 8 -10 9 -19 4 -21z m219 3 c12 -14 17
-25 10 -25 -14 0 -48 30 -48 42 0 15 16 8 38 -17z m2147 -35 c-3 -5 -11 -10
-16 -10 -6 0 -7 5 -4 10 3 6 11 10 16 10 6 0 7 -4 4 -10z m444 -7 c-6 -7 -15
-10 -20 -7 -13 8 -3 21 15 21 12 0 13 -4 5 -14z m-384 -53 c-3 -5 -11 -10 -16
-10 -6 0 -7 5 -4 10 3 6 11 10 16 10 6 0 7 -4 4 -10z m529 -99 c7 -11 -22 -23
-35 -15 -5 3 -7 10 -4 15 8 12 32 12 39 0z m-2874 -76 c0 -8 -4 -15 -10 -15
-5 0 -7 7 -4 15 4 8 8 15 10 15 2 0 4 -7 4 -15z m2060 -65 c0 -21 -15 -27 -25
-10 -7 12 2 30 16 30 5 0 9 -9 9 -20z m381 -270 c6 0 8 -4 5 -9 -8 -12 -46 -2
-46 11 0 6 7 7 16 4 9 -3 20 -6 25 -6z m-241 -67 c23 -27 52 -92 47 -106 -2
-7 -13 3 -23 22 -11 18 -29 49 -41 67 -24 36 -10 49 17 17z m365 -113 l30 -20
-31 0 c-17 0 -37 7 -44 15 -7 8 -23 15 -36 15 -12 0 -26 5 -30 12 -11 18 75 1
111 -22z m-1265 -69 c0 -5 -11 -11 -25 -13 -28 -6 -35 8 -7 15 28 8 32 7 32
-2z m655 -11 c3 -5 1 -10 -4 -10 -6 0 -11 5 -11 10 0 6 2 10 4 10 3 0 8 -4 11
-10z m483 -10 c12 0 22 -5 22 -10 0 -6 -11 -8 -26 -4 -20 5 -25 3 -22 -7 3 -8
17 -13 32 -12 33 2 33 -3 -1 -21 -23 -12 -25 -16 -12 -21 11 -4 15 -14 12 -26
-4 -13 0 -19 12 -19 10 0 15 -5 12 -14 -3 -7 0 -19 6 -25 9 -9 6 -13 -11 -17
-12 -4 -22 -13 -22 -21 0 -8 -8 -17 -18 -20 -11 -2 -19 -15 -20 -31 -2 -22 4
-30 28 -39 31 -12 41 -33 15 -33 -8 0 -26 -5 -40 -12 -18 -8 -22 -14 -13 -20
10 -6 8 -8 -4 -8 -10 0 -18 -3 -18 -7 1 -20 18 -32 50 -35 l35 -3 -33 -6 c-18
-3 -44 0 -57 7 -13 7 -27 9 -30 6 -4 -4 15 -17 42 -30 l48 -22 -51 6 c-33 3
-54 2 -59 -5 -4 -7 9 -11 39 -11 63 0 65 -15 3 -17 -103 -4 -119 -3 -137 7
-21 11 -53 3 -44 -11 3 -5 16 -9 29 -9 13 0 27 -4 30 -10 3 -5 36 -10 73 -10
46 0 62 -3 52 -10 -8 -5 -39 -7 -68 -5 -30 3 -59 2 -64 -1 -14 -9 11 -24 38
-24 12 0 27 -7 34 -15 9 -11 15 -12 20 -5 4 7 15 8 31 1 29 -11 17 -17 -51
-25 -25 -4 -61 -9 -80 -12 -19 -2 -46 -5 -60 -5 -14 0 -32 -3 -40 -7 -8 -4 44
-10 115 -13 72 -4 141 -9 155 -11 14 -3 35 -6 48 -6 13 -1 21 -6 18 -11 -3 -5
-47 -7 -98 -5 -62 2 -85 1 -68 -5 24 -9 24 -9 -7 -10 -18 -1 -33 2 -33 7 0 4
-25 5 -56 4 -32 -2 -61 1 -67 7 -6 6 -34 11 -61 11 l-50 0 42 -38 c44 -40 44
-54 -3 -64 -13 -3 -5 -7 22 -12 71 -13 62 -27 -13 -20 -75 8 -75 8 -20 -60 16
-20 35 -36 41 -36 7 0 20 -10 31 -21 l19 -21 -35 7 c-31 7 -33 6 -21 -9 11
-13 11 -16 0 -16 -10 0 -10 -3 -1 -12 23 -23 12 -28 -24 -11 -29 14 -37 15
-44 4 -5 -9 -17 -12 -36 -7 l-29 6 28 -24 c15 -14 27 -28 27 -32 0 -4 8 -16
18 -27 16 -20 16 -20 -3 -13 -11 4 -33 10 -49 13 -27 6 -28 5 -16 -18 14 -26
55 -67 86 -85 10 -7 16 -15 13 -18 -4 -4 -20 5 -37 19 -16 14 -35 25 -40 25
-6 0 -19 10 -29 23 -10 12 -34 30 -53 41 l-35 19 31 -29 c39 -37 50 -64 24
-57 -11 3 -25 11 -31 19 -20 24 -39 16 -39 -16 0 -16 -5 -30 -11 -30 -7 0 -9
-11 -5 -30 7 -37 -3 -38 -28 -5 -21 28 -36 32 -36 9 0 -13 -5 -12 -29 5 -39
28 -49 26 -44 -6 4 -26 2 -25 -19 9 -13 21 -31 38 -40 38 -10 0 -18 6 -18 13
0 7 -14 23 -30 36 -17 12 -28 26 -25 32 4 5 -1 9 -9 9 -9 0 -25 9 -37 21 -18
18 -25 19 -45 10 -13 -6 -23 -7 -21 -2 1 5 -7 17 -19 27 -29 26 -38 64 -15 64
16 0 17 6 7 56 -7 43 -15 58 -32 64 -23 9 -40 43 -29 60 3 5 -3 27 -13 49 -11
22 -17 41 -13 43 4 2 17 20 30 41 12 20 28 37 34 37 7 0 32 16 57 36 25 20 64
45 88 55 68 31 82 51 82 113 l0 53 48 -2 c26 -1 52 -3 58 -4 7 0 16 -22 20
-48 8 -41 13 -48 34 -51 l25 -2 -22 16 c-32 23 -28 34 12 34 19 0 35 -4 35
-10 0 -5 5 -10 10 -10 15 0 12 26 -5 40 -8 7 -12 16 -10 21 3 4 -4 13 -17 20
l-22 12 28 24 c23 20 31 22 44 11 12 -10 16 -10 19 -1 3 9 12 9 30 2 23 -8 24
-8 13 6 -10 13 -9 15 9 15 11 0 21 5 21 10 0 6 -12 9 -27 8 -22 -2 -28 1 -27
15 1 10 -11 24 -30 34 -22 11 -27 18 -16 21 8 3 20 11 25 19 8 10 22 11 72 2
49 -9 82 -8 160 5 113 17 165 36 194 70 12 14 32 27 45 30 13 4 24 14 24 22 0
12 6 15 23 10 12 -3 32 -6 45 -6z m-1219 -266 c13 15 15 15 32 0 28 -25 35
-73 12 -90 -17 -13 -17 -15 0 -28 16 -13 16 -14 -7 -30 -31 -20 -40 -20 -32
-1 3 9 -3 19 -15 25 -11 6 -17 15 -15 19 3 4 -10 22 -30 39 -32 28 -33 31 -14
37 11 3 25 16 32 28 10 20 12 20 18 3 5 -16 7 -17 19 -2z m101 -113 c0 -17
-18 -21 -24 -6 -3 9 0 15 9 15 8 0 15 -4 15 -9z m-17 -65 c-3 -4 -9 -2 -14 5
-13 22 -11 31 5 17 8 -7 12 -17 9 -22z m1365 -1 c15 -15 -12 -15 -45 -1 l-38
17 39 -5 c21 -3 41 -8 44 -11z m-193 -148 c27 -14 27 -16 8 -17 -12 0 -25 5
-28 10 -3 6 -17 10 -30 10 -13 0 -26 4 -29 8 -9 14 47 6 79 -11z m52 -63 c-3
-3 -12 -4 -19 -1 -8 3 -5 6 6 6 11 1 17 -2 13 -5z m-1237 -46 c0 -25 -3 -29
-10 -18 -13 20 -13 50 0 50 6 0 10 -15 10 -32z m1252 -10 c-5 -5 -17 -6 -26
-2 -13 5 -14 9 -5 14 16 11 43 0 31 -12z m-199 -2 c37 -17 75 -24 175 -35 39
-4 75 -11 80 -16 4 -4 -18 -5 -48 -1 -54 6 -54 6 -25 -9 l30 -15 -35 7 c-19 4
-56 6 -83 6 -27 -1 -45 2 -42 8 4 5 -3 9 -15 9 -28 0 -100 23 -100 32 0 5 -11
8 -24 8 -14 0 -28 5 -31 10 -10 15 82 12 118 -4z m-1003 -17 c0 -5 -6 -9 -14
-9 -8 0 -16 -6 -19 -12 -2 -7 -8 -10 -11 -6 -4 3 1 15 11 26 18 19 33 20 33 1z
m1025 -109 c3 -5 -3 -10 -15 -10 -12 0 -18 5 -15 10 3 6 10 10 15 10 5 0 12
-4 15 -10z m-1142 -29 c17 -17 -26 -14 -59 4 l-29 15 39 -4 c21 -3 44 -10 49
-15z m1157 0 c25 -7 25 -7 3 -13 -12 -3 -30 0 -40 8 -21 15 -6 17 37 5z m100
-6 c17 -20 -9 -21 -36 0 -19 14 -19 14 2 15 12 0 27 -7 34 -15z m-125 -45 c3
-5 1 -10 -4 -10 -6 0 -11 5 -11 10 0 6 2 10 4 10 3 0 8 -4 11 -10z m135 -40
c12 -8 11 -10 -7 -10 -13 0 -23 5 -23 10 0 13 11 13 30 0z m-109 -95 c24 -14
40 -25 34 -25 -17 0 -95 35 -95 43 0 12 17 8 61 -18z m-97 -24 c4 -5 -3 -7
-14 -4 -23 6 -26 13 -6 13 8 0 17 -4 20 -9z m36 -21 c0 -5 -2 -10 -4 -10 -3 0
-8 5 -11 10 -3 6 -1 10 4 10 6 0 11 -4 11 -10z m50 -30 c0 -5 -4 -10 -9 -10
-6 0 -13 5 -16 10 -3 6 1 10 9 10 9 0 16 -4 16 -10z m-2760 -21 c0 -11 -4 -18
-10 -14 -5 3 -7 12 -3 20 7 21 13 19 13 -6z m2800 1 c8 -5 11 -12 7 -16 -4 -4
-15 0 -24 9 -18 18 -8 23 17 7z m-93 -13 c4 -7 19 -21 33 -30 19 -13 21 -17 7
-17 -19 0 -87 41 -87 53 0 12 39 8 47 -6z m-177 -7 c0 -5 -2 -10 -4 -10 -3 0
-8 5 -11 10 -3 6 -1 10 4 10 6 0 11 -4 11 -10z m269 -68 c39 -14 41 -16 21
-24 -15 -5 -26 -3 -36 7 -19 19 -23 19 -46 -2 -24 -22 -23 -33 5 -33 17 0 19
-2 8 -9 -24 -15 -88 20 -75 41 3 4 1 8 -4 8 -5 0 -12 9 -15 20 -5 19 -2 20 46
14 29 -3 72 -13 96 -22z m-245 -27 c21 -19 44 -35 52 -35 19 0 26 -17 9 -24
-8 -3 -27 6 -41 19 -15 14 -30 25 -33 25 -10 1 -43 50 -33 50 4 0 25 -16 46
-35z m-584 -55 c0 -5 -7 -7 -15 -4 -8 4 -15 8 -15 10 0 2 7 4 15 4 8 0 15 -4
15 -10z m741 -12 c5 -7 7 -14 5 -15 -5 -5 -76 27 -76 33 0 11 64 -6 71 -18z
m-701 -28 l20 -20 -20 0 c-11 0 -20 2 -20 4 0 2 -3 11 -6 20 -8 22 2 20 26 -4z
m74 5 c3 -8 1 -15 -3 -15 -5 0 -11 7 -15 15 -3 8 -1 15 3 15 5 0 11 -7 15 -15z
m586 -27 c0 -12 -24 -10 -38 4 -20 20 -13 28 13 16 14 -6 25 -15 25 -20z
m-692 -41 c5 -24 -15 -21 -21 4 -3 13 -1 19 6 16 7 -2 13 -11 15 -20z m52 -48
c0 -5 -4 -9 -10 -9 -5 0 -10 7 -10 16 0 8 5 12 10 9 6 -3 10 -10 10 -16z
m-250 -201 c-1 -7 -12 0 -25 16 -13 17 -21 34 -19 38 7 11 44 -35 44 -54z
m-48 1 c12 -8 2 -29 -14 -29 -6 0 -8 3 -5 6 3 4 2 15 -3 25 -6 9 -7 26 -3 36
7 15 8 14 11 -7 2 -14 9 -28 14 -31z m-586 -32 c1 -12 -2 -29 -7 -37 -6 -13
-9 -12 -14 3 -8 19 3 73 12 63 4 -4 8 -16 9 -29z m114 -7 c-6 -11 -13 -20 -15
-20 -3 0 -5 9 -5 20 0 11 7 20 15 20 13 0 14 -4 5 -20z m-784 -55 c-26 -19
-19 -29 9 -11 32 21 38 20 30 -3 -3 -11 -1 -22 5 -26 6 -4 5 -12 -6 -22 -11
-12 -18 -13 -27 -4 -6 6 -19 11 -29 11 -24 0 -23 25 4 63 14 20 23 26 26 17 3
-7 -3 -19 -12 -25z m-1176 11 c0 -8 4 -16 9 -18 5 -1 13 -15 16 -30 10 -39
-10 -35 -25 5 l-12 32 -14 -30 -13 -30 1 43 c1 34 5 42 20 42 10 0 18 -6 18
-14z m1915 -6 c3 -5 -1 -10 -10 -10 -9 0 -13 5 -10 10 3 6 8 10 10 10 2 0 7
-4 10 -10z m70 0 c3 -5 1 -10 -4 -10 -6 0 -11 5 -11 10 0 6 2 10 4 10 3 0 8
-4 11 -10z m419 -6 c9 -24 7 -27 -9 -10 -17 17 -19 26 -6 26 5 0 12 -7 15 -16z
m-351 -47 c-10 -12 -19 -23 -19 -25 -1 -2 -5 1 -8 6 -8 13 23 54 35 46 6 -4 3
-15 -8 -27z m-1773 -7 c0 -16 -4 -30 -10 -30 -5 0 -10 14 -10 30 0 17 5 30 10
30 6 0 10 -13 10 -30z m1860 2 c0 -5 -9 -19 -20 -32 -26 -30 -47 -14 -24 18
15 21 44 30 44 14z m-2890 -502 c0 -5 -5 -10 -11 -10 -5 0 -7 5 -4 10 3 6 8
10 11 10 2 0 4 -4 4 -10z m3270 -40 c0 -11 -7 -20 -15 -20 -15 0 -21 21 -8 33
12 13 23 7 23 -13z m-3303 -15 c9 -9 23 -13 34 -10 10 4 19 2 19 -3 0 -11 -44
-19 -77 -14 -26 4 -32 22 -7 22 8 0 12 5 9 10 -9 15 5 12 22 -5z m2418 -75 c3
-5 -3 -10 -14 -10 -12 0 -21 5 -21 10 0 6 6 10 14 10 8 0 18 -4 21 -10z m1318
-12 c32 -12 35 -24 7 -33 -12 -4 -26 0 -36 9 -8 9 -26 16 -40 16 -23 0 -31 10
-18 23 8 7 45 1 87 -15z m-3793 -33 c-7 -9 -15 -13 -19 -10 -3 3 1 10 9 15 21
14 24 12 10 -5z m3925 -35 c3 -5 -3 -10 -14 -10 -12 0 -21 5 -21 10 0 6 6 10
14 10 8 0 18 -4 21 -10z m-15 -100 c0 -5 -2 -10 -4 -10 -3 0 -8 5 -11 10 -3 6
-1 10 4 10 6 0 11 -4 11 -10z m-2130 -210 c0 -5 -4 -10 -10 -10 -5 0 -10 5
-10 10 0 6 5 10 10 10 6 0 10 -4 10 -10z m-40 -614 c0 -11 -19 -15 -25 -6 -3
5 1 10 9 10 9 0 16 -2 16 -4z m-50 -196 c0 -5 -5 -10 -11 -10 -5 0 -7 5 -4 10
3 6 8 10 11 10 2 0 4 -4 4 -10z m80 -82 c0 -13 -43 -6 -47 8 -2 7 6 10 22 7
14 -3 25 -10 25 -15z m-2 -51 c2 -12 -1 -15 -12 -11 -19 7 -22 38 -3 32 6 -3
13 -12 15 -21z m-15 -77 c-3 -11 -9 -20 -14 -20 -5 0 -9 9 -9 20 0 11 6 20 14
20 9 0 12 -7 9 -20z m2802 -50 c-3 -5 -10 -10 -16 -10 -5 0 -9 5 -9 10 0 6 7
10 16 10 8 0 12 -4 9 -10z m-2895 -685 c0 -8 -4 -15 -9 -15 -13 0 -22 16 -14
24 11 11 23 6 23 -9z m3280 -1250 c0 -9 -6 -12 -15 -9 -8 4 -15 10 -15 15 0 5
7 9 15 9 8 0 15 -7 15 -15z"/>
<path d="M3050 7460 c-8 -5 -12 -12 -9 -15 4 -3 12 1 19 10 14 17 11 19 -10 5z"/>
<path d="M3275 7430 c3 -5 8 -10 11 -10 2 0 4 5 4 10 0 6 -5 10 -11 10 -5 0
-7 -4 -4 -10z"/>
<path d="M4374 6929 c-3 -6 -1 -16 5 -22 8 -8 11 -5 11 11 0 24 -5 28 -16 11z"/>
<path d="M3385 6920 c3 -5 8 -10 11 -10 2 0 4 5 4 10 0 6 -5 10 -11 10 -5 0
-7 -4 -4 -10z"/>
<path d="M3110 6896 c0 -31 6 -34 13 -6 3 11 1 23 -4 26 -5 3 -9 -6 -9 -20z"/>
<path d="M3260 6901 c0 -6 5 -13 10 -16 6 -3 10 1 10 9 0 9 -4 16 -10 16 -5 0
-10 -4 -10 -9z"/>
<path d="M3406 6877 c3 -10 9 -15 12 -12 3 3 0 11 -7 18 -10 9 -11 8 -5 -6z"/>
<path d="M3281 6863 c0 -4 4 -17 9 -28 8 -19 9 -19 9 2 1 12 -3 25 -9 28 -5 3
-10 3 -9 -2z"/>
<path d="M3546 6831 c-4 -5 -2 -12 3 -15 5 -4 12 -2 15 3 4 5 2 12 -3 15 -5 4
-12 2 -15 -3z"/>
<path d="M3971 6824 c0 -11 3 -14 6 -6 3 7 2 16 -1 19 -3 4 -6 -2 -5 -13z"/>
<path d="M4250 6829 c0 -5 -6 -7 -12 -3 -7 4 -10 4 -6 -1 4 -4 0 -14 -10 -22
-16 -12 -16 -14 -1 -26 10 -7 16 -26 15 -45 0 -17 4 -33 9 -34 5 -2 9 18 10
45 0 26 -4 47 -9 47 -5 0 -2 8 7 18 19 21 22 32 7 32 -5 0 -10 -5 -10 -11z"/>
<path d="M3357 6803 c5 -13 2 -15 -15 -11 -12 4 -22 3 -22 -2 0 -22 135 -138
147 -126 9 8 -15 42 -40 55 -13 7 -34 33 -46 57 -22 43 -37 60 -24 27z"/>
<path d="M3723 6798 c2 -7 10 -13 17 -13 7 0 15 6 18 13 2 7 -5 12 -18 12 -13
0 -20 -5 -17 -12z"/>
<path d="M4177 6795 c-4 -8 -2 -17 3 -20 6 -4 10 3 10 14 0 25 -6 27 -13 6z"/>
<path d="M2926 6793 c-9 -10 -7 -25 3 -19 5 3 12 -10 15 -29 4 -21 13 -35 21
-35 12 0 14 -12 10 -61 -5 -56 -3 -60 14 -54 13 4 23 0 29 -12 8 -14 13 -15
25 -4 16 12 19 48 7 66 -4 6 -10 22 -14 38 -3 15 -13 27 -20 27 -8 0 -17 12
-20 26 -5 17 -12 24 -21 20 -8 -3 -14 -2 -14 2 4 26 -20 50 -35 35z"/>
<path d="M4477 6768 c8 -56 29 -112 37 -99 4 6 4 26 0 44 -4 17 -7 46 -5 62 1
28 1 29 -13 12 -14 -18 -14 -18 -19 0 -3 10 -3 1 0 -19z"/>
<path d="M3505 6771 c-3 -5 -1 -12 5 -16 5 -3 10 1 10 9 0 18 -6 21 -15 7z"/>
<path d="M3591 6740 c-10 -5 -8 -9 4 -14 23 -8 35 -8 35 3 0 13 -25 20 -39 11z"/>
<path d="M3540 6730 c0 -5 5 -10 11 -10 5 0 7 5 4 10 -3 6 -8 10 -11 10 -2 0
-4 -4 -4 -10z"/>
<path d="M3272 6651 c1 -13 10 -27 18 -31 8 -4 30 -14 48 -23 17 -9 32 -12 32
-6 0 5 -12 14 -27 20 -16 6 -39 22 -51 37 l-24 27 4 -24z"/>
<path d="M3475 6640 c3 -5 8 -10 11 -10 2 0 4 5 4 10 0 6 -5 10 -11 10 -5 0
-7 -4 -4 -10z"/>
<path d="M3105 6617 c-11 -9 -14 -16 -7 -21 15 -9 42 4 42 20 0 18 -11 18 -35
1z"/>
<path d="M3158 6583 c7 -3 16 -2 19 1 4 3 -2 6 -13 5 -11 0 -14 -3 -6 -6z"/>
<path d="M3228 6533 c7 -3 16 -2 19 1 4 3 -2 6 -13 5 -11 0 -14 -3 -6 -6z"/>
<path d="M3343 6491 c-12 -3 -32 -15 -45 -26 -13 -11 -42 -28 -64 -39 l-42
-18 -7 -74 c-4 -45 -3 -80 3 -87 5 -7 13 -26 16 -43 10 -45 98 -125 176 -160
60 -26 74 -28 188 -29 109 0 125 -2 134 -18 7 -14 20 -18 46 -16 21 1 50 1 66
0 27 -1 28 -3 22 -36 -5 -24 -3 -35 5 -35 6 0 9 7 5 15 -3 8 -1 15 4 15 11 0
11 7 11 130 0 100 -6 130 -26 130 -9 0 -20 10 -25 23 -20 46 -96 156 -120 175
-51 39 -117 70 -170 82 -64 14 -145 19 -177 11z m-13 -55 c0 -11 -19 -15 -25
-6 -3 5 1 10 9 10 9 0 16 -2 16 -4z m140 -6 c0 -5 -2 -10 -4 -10 -3 0 -8 5
-11 10 -3 6 -1 10 4 10 6 0 11 -4 11 -10z m-40 -4 c0 -2 -15 -13 -33 -24 -19
-11 -46 -27 -60 -37 -24 -15 -27 -15 -27 -2 0 18 75 67 103 67 9 0 17 -2 17
-4z m-150 -16 c0 -5 -2 -10 -4 -10 -2 0 -12 -3 -22 -7 -16 -6 -17 -5 -4 10 17
19 30 22 30 7z m12 -92 c-7 -7 -12 -8 -12 -2 0 14 12 26 19 19 2 -3 -1 -11 -7
-17z m208 -168 c0 -5 -2 -10 -4 -10 -3 0 -8 5 -11 10 -3 6 -1 10 4 10 6 0 11
-4 11 -10z"/>
<path d="M2930 6440 c0 -13 38 -32 53 -27 6 2 -3 11 -21 19 -18 9 -32 12 -32
8z"/>
<path d="M4977 6386 c-4 -10 -5 -21 -2 -24 9 -9 17 6 13 25 -3 17 -4 17 -11
-1z"/>
<path d="M3690 5950 c-8 -5 -11 -12 -7 -16 4 -4 13 -2 19 4 15 15 7 24 -12 12z"/>
<path d="M3799 5037 c-6 -14 -17 -23 -23 -21 -7 3 -25 -7 -40 -21 -15 -14 -35
-25 -44 -25 -17 -1 -52 -22 -52 -33 0 -12 36 -12 45 1 6 7 18 14 27 16 10 1
26 10 37 20 14 13 28 16 50 11 22 -5 35 -2 46 9 14 13 13 18 -10 42 l-24 26
-12 -25z"/>
<path d="M4360 4722 c0 -5 9 -12 21 -15 13 -3 19 -1 16 6 -5 15 -37 22 -37 9z"/>
<path d="M4283 4511 c5 -58 14 -74 34 -67 10 4 13 2 10 -8 -4 -9 10 -29 34
-50 21 -20 39 -40 39 -46 0 -5 11 -10 25 -10 14 0 25 4 25 8 0 13 -31 75 -47
94 -10 11 -11 18 -4 23 6 3 11 16 11 28 -1 21 -2 21 -21 -5 -20 -27 -49 -29
-49 -3 0 6 -9 20 -20 30 -14 13 -17 22 -10 29 16 16 12 26 -11 26 -19 0 -20
-5 -16 -49z"/>
<path d="M4360 4540 c0 -5 5 -10 11 -10 5 0 7 5 4 10 -3 6 -8 10 -11 10 -2 0
-4 -4 -4 -10z"/>
<path d="M5029 4501 c8 -5 10 -14 6 -22 -6 -11 -5 -11 5 -2 14 12 6 33 -13 33
-8 0 -7 -3 2 -9z"/>
<path d="M4276 4415 c4 -8 10 -12 15 -9 11 6 2 24 -11 24 -5 0 -7 -7 -4 -15z"/>
<path d="M4055 4380 c-4 -6 -3 -16 3 -22 6 -6 12 -6 17 2 4 6 3 16 -3 22 -6 6
-12 6 -17 -2z"/>
<path d="M4307 4383 c-3 -5 1 -17 9 -28 14 -18 14 -18 14 2 0 23 -15 39 -23
26z"/>
<path d="M4567 4251 c3 -12 9 -21 14 -21 14 0 11 16 -5 29 -12 10 -13 8 -9 -8z"/>
<path d="M4775 4260 c3 -5 10 -10 16 -10 5 0 9 5 9 10 0 6 -7 10 -16 10 -8 0
-12 -4 -9 -10z"/>
<path d="M4647 4254 c-13 -13 -7 -24 14 -24 11 0 19 5 17 12 -5 14 -22 21 -31
12z"/>
<path d="M5668 6943 c7 -3 16 -2 19 1 4 3 -2 6 -13 5 -11 0 -14 -3 -6 -6z"/>
<path d="M4920 5715 c0 -8 9 -15 20 -15 24 0 27 15 4 24 -22 9 -24 8 -24 -9z"/>
<path d="M4988 5703 c7 -3 16 -2 19 1 4 3 -2 6 -13 5 -11 0 -14 -3 -6 -6z"/>
<path d="M5055 5530 c3 -5 16 -10 28 -9 21 0 21 1 2 9 -28 12 -37 12 -30 0z"/>
<path d="M4850 5400 c0 -6 7 -10 15 -10 8 0 15 2 15 4 0 2 -7 6 -15 10 -8 3
-15 1 -15 -4z"/>
<path d="M4894 5379 c-3 -5 6 -9 20 -9 31 0 34 6 6 13 -11 3 -23 1 -26 -4z"/>
<path d="M5078 5383 c6 -2 18 -2 25 0 6 3 1 5 -13 5 -14 0 -19 -2 -12 -5z"/>
<path d="M4862 5328 c5 -15 97 -18 101 -3 1 6 -22 11 -52 13 -40 2 -52 0 -49
-10z"/>
<path d="M4830 5170 c0 -5 9 -10 21 -10 11 0 17 5 14 10 -3 6 -13 10 -21 10
-8 0 -14 -4 -14 -10z"/>
<path d="M2225 4600 c-18 -8 -17 -9 8 -9 16 -1 26 3 22 9 -3 6 -7 10 -8 9 -1
0 -11 -4 -22 -9z"/>
<path d="M2070 4024 c-8 -19 -8 -30 0 -38 7 -7 10 -6 10 3 0 10 4 10 13 3 9
-8 12 -3 11 21 -1 40 -21 46 -34 11z"/>
<path d="M1982 4003 c5 -25 28 -28 28 -4 0 12 -6 21 -16 21 -9 0 -14 -7 -12
-17z"/>
<path d="M1449 3923 c5 -10 12 -27 16 -37 4 -13 9 -16 15 -10 13 13 -10 64
-28 64 -8 0 -9 -5 -3 -17z"/>
<path d="M1688 3783 c7 -3 16 -2 19 1 4 3 -2 6 -13 5 -11 0 -14 -3 -6 -6z"/>
<path d="M3276 3473 c-6 -14 -5 -15 5 -6 7 7 10 15 7 18 -3 3 -9 -2 -12 -12z"/>
<path d="M1145 3450 c3 -5 12 -10 20 -10 8 0 17 5 20 10 4 6 -5 10 -20 10 -15
0 -24 -4 -20 -10z"/>
<path d="M3602 3363 c-1 -15 -7 -32 -12 -37 -16 -16 -11 -49 9 -76 22 -28 74
-36 92 -14 16 19 4 44 -20 44 -14 0 -22 8 -26 28 -16 77 -39 107 -43 55z"/>
<path d="M2665 3320 c-3 -5 1 -10 10 -10 9 0 13 5 10 10 -3 6 -8 10 -10 10 -2
0 -7 -4 -10 -10z"/>
<path d="M3660 3196 c0 -2 7 -7 16 -10 8 -3 12 -2 9 4 -6 10 -25 14 -25 6z"/>
<path d="M1610 3080 c0 -5 5 -10 10 -10 6 0 10 5 10 10 0 6 -4 10 -10 10 -5 0
-10 -4 -10 -10z"/>
<path d="M4780 2800 c0 -5 5 -10 10 -10 6 0 10 5 10 10 0 6 -4 10 -10 10 -5 0
-10 -4 -10 -10z"/>
<path d="M3773 2723 c-29 -25 -31 -30 -18 -47 13 -17 14 -17 35 2 14 13 20 29
18 46 l-3 27 -32 -28z"/>
<path d="M3842 2720 c0 -14 2 -19 5 -12 2 6 2 18 0 25 -3 6 -5 1 -5 -13z"/>
<path d="M4467 2493 c-4 -3 -7 -14 -7 -24 0 -21 55 -39 115 -38 l40 1 -52 17
c-28 9 -60 24 -71 34 -10 9 -22 14 -25 10z"/>
<path d="M5375 2190 c-3 -5 1 -10 9 -10 9 0 16 5 16 10 0 6 -4 10 -9 10 -6 0
-13 -4 -16 -10z"/>
<path d="M2570 1531 c0 -6 5 -13 10 -16 6 -3 10 1 10 9 0 9 -4 16 -10 16 -5 0
-10 -4 -10 -9z"/>
<path d="M4952 1420 c0 -19 2 -27 5 -17 2 9 2 25 0 35 -3 9 -5 1 -5 -18z"/>
<path d="M5496 384 c-14 -14 -26 -29 -26 -34 0 -17 46 -11 63 8 37 41 4 63
-37 26z"/>
<path d="M5505 10 c-3 -5 1 -10 9 -10 9 0 16 5 16 10 0 6 -4 10 -9 10 -6 0
-13 -4 -16 -10z"/>
<path d="M5610 10 c0 -5 5 -10 10 -10 6 0 10 5 10 10 0 6 -4 10 -10 10 -5 0
-10 -4 -10 -10z"/>
</g>
</svg>
