<?xml version="1.0" encoding="UTF-8"?>
<svg version="1.1" xmlns="http://www.w3.org/2000/svg" width="512" height="512">
<path d="M0 0 C0.88969545 -0.00297112 1.77939091 -0.00594224 2.69604683 -0.0090034 C5.66578241 -0.01764804 8.63547747 -0.01919507 11.60522461 -0.02069092 C13.73952825 -0.02532218 15.87383107 -0.03034725 18.00813293 -0.03573608 C23.79986288 -0.04883448 29.59158124 -0.05530033 35.38332367 -0.05974674 C39.00654759 -0.06268228 42.62976838 -0.06678805 46.25299072 -0.07125092 C57.6028746 -0.08492059 68.95275128 -0.09458921 80.30264282 -0.09845281 C93.37844539 -0.10292902 106.45414318 -0.12045894 119.5299139 -0.1494534 C129.65335012 -0.1711173 139.77675697 -0.18115964 149.9002161 -0.18249393 C155.93857417 -0.1835388 161.97683369 -0.18937856 168.01516724 -0.20731354 C173.70169377 -0.22387519 179.38804852 -0.22591061 185.07459068 -0.21717453 C187.15172475 -0.21640841 189.22886836 -0.22069018 191.30597878 -0.23063278 C222.28454444 -0.37011899 246.76456766 8.5483949 269.22241211 30.35137939 C280.35927123 42.21599366 287.95806692 57.06387815 292.69506836 72.51544189 C292.9933252 73.46737427 292.9933252 73.46737427 293.29760742 74.4385376 C297.3756633 88.58757282 297.23951392 103.15506264 297.21972656 117.73712158 C297.22408272 119.87596818 297.22926885 122.01481323 297.23521423 124.15365601 C297.24851917 129.92247236 297.24919238 135.69122285 297.24665093 141.46005154 C297.24557529 146.29546732 297.25047973 151.13087011 297.25525635 155.96628308 C297.26632242 167.38502315 297.2668055 178.80373032 297.26074219 190.22247314 C297.2547062 201.95753608 297.26701066 213.692479 297.28831226 225.42752147 C297.30599205 235.54354381 297.31191954 245.65952818 297.30867451 255.77556539 C297.30687146 261.79939241 297.30939923 267.82313384 297.32338905 273.84694672 C297.33606685 279.51718684 297.33393023 285.18724145 297.32097816 290.8574791 C297.31863424 292.92326041 297.32126734 294.98905519 297.32960129 297.05482101 C297.38913953 312.97672482 296.7012036 329.24426015 291.25756836 344.39044189 C291.00410645 345.11876221 290.75064453 345.84708252 290.48950195 346.59747314 C286.2189592 358.38181428 280.22572103 368.7001712 271.94506836 378.14044189 C271.34307617 378.88552002 270.74108398 379.63059814 270.12084961 380.39825439 C255.10911604 398.4626885 232.07674515 409.5523975 208.94506836 412.14044189 C201.93919824 412.51585526 194.91428501 412.42466921 187.90087891 412.4151001 C185.78554099 412.41945364 183.67020464 412.42463892 181.55487061 412.43058777 C175.83779631 412.44392032 170.12078835 412.44456282 164.40370154 412.44202447 C159.61776574 412.44095079 154.83184314 412.44584828 150.04591018 412.45062989 C138.74771903 412.46170535 127.44956113 412.46217361 116.15136719 412.45611572 C104.52591803 412.45007786 92.90058995 412.46238678 81.27516145 412.48368579 C71.2662675 412.50134364 61.25741196 412.50729654 51.24850303 412.50404805 C45.2828856 412.50224163 39.31735454 412.50480709 33.35175133 412.51876259 C27.73819617 412.53140444 22.12482876 412.52933701 16.51127625 412.5163517 C14.46155545 412.51400012 12.41182118 412.51666916 10.36211586 412.52497482 C-16.02150579 412.62410208 -39.57716462 406.7839159 -60.05493164 389.14044189 C-61.04879883 388.36313721 -61.04879883 388.36313721 -62.06274414 387.57012939 C-76.56295177 375.88777588 -86.09888337 358.56429679 -91.49243164 341.01544189 C-91.72744385 340.25344482 -91.96245605 339.49144775 -92.20458984 338.70635986 C-96.32570975 324.17326638 -96.34582651 309.46755563 -96.3137207 294.49615479 C-96.31643629 292.35244122 -96.32000039 290.20872859 -96.32434082 288.0650177 C-96.33340009 282.2840007 -96.32994725 276.50305569 -96.32358265 270.72203755 C-96.31848835 264.64637015 -96.32322364 258.57070856 -96.32635498 252.49504089 C-96.32998495 242.29455468 -96.3252213 232.09409751 -96.31567383 221.89361572 C-96.3047941 210.13465866 -96.30831531 198.375771 -96.31932664 186.61681563 C-96.32843067 176.48555539 -96.32966951 166.35431593 -96.3244493 156.22305292 C-96.32134632 150.18760603 -96.3208739 144.15219165 -96.32752228 138.1167469 C-96.3333405 132.43915912 -96.32921768 126.76165996 -96.31773376 121.08408165 C-96.31511084 119.01220471 -96.31581124 116.94032018 -96.32025909 114.86844635 C-96.35025096 99.46640735 -96.13148776 84.26546297 -90.92993164 69.57794189 C-90.6228125 68.69227539 -90.31569336 67.80660889 -89.99926758 66.894104 C-84.96442793 52.85269323 -77.71933824 41.444869 -68.05493164 30.14044189 C-67.47227539 29.45466064 -66.88961914 28.76887939 -66.28930664 28.06231689 C-49.66940535 10.09939327 -24.17403199 -0.02549784 0 0 Z " fill="#DDD47E" transform="translate(156.054931640625,46.85955810546875)"/>
<path d="M0 0 C7.38272391 4.11099655 10.35537637 9.43771073 12.75 17.3125 C14.47025442 26.02115102 15.28097476 34.84054916 15.875 43.6875 C15.95991699 44.93740723 16.04483398 46.18731445 16.13232422 47.47509766 C17.21232847 64.72890181 16.92666388 82.03477282 16.75 99.3125 C17.8475486 99.30583817 17.8475486 99.30583817 18.9672699 99.29904175 C25.89574883 99.25880539 32.82421007 99.22843492 39.75277615 99.20887566 C43.31399497 99.19848168 46.87511647 99.18440367 50.4362793 99.16162109 C54.53955977 99.13553751 58.64273954 99.125991 62.74609375 99.1171875 C64.01206894 99.10686493 65.27804413 99.09654236 66.5823822 99.08590698 C78.44250575 99.08441467 88.69465844 100.52628473 97.5625 109 C101.90380083 115.57396983 104.39221284 122.44118253 104.75 130.3125 C104.8015625 131.116875 104.853125 131.92125 104.90625 132.75 C105.16528531 139.83029838 103.77614279 144.96157154 100.125 151 C81.22086639 169.40665641 46.68747058 166.71964001 22.38549805 166.40673828 C20.17365685 166.37593109 17.961821 166.34472503 15.75 166.3125 C15.75999275 167.39672493 15.75999275 167.39672493 15.77018738 168.50285339 C15.83072111 175.3711918 15.87618666 182.23948948 15.90543652 189.10802746 C15.92098059 192.63780949 15.94200787 196.16736802 15.97631836 199.69702148 C16.01566158 203.77069028 16.02980199 207.84413056 16.04296875 211.91796875 C16.05845261 213.1632988 16.07393646 214.40862885 16.08988953 215.69169617 C16.09235669 228.76026405 14.3566693 240.3912274 5.125 250.0625 C-3.53907054 256.53313496 -13.77022428 257.44800617 -24.25 256.3125 C-30.12369825 254.85771406 -33.59174482 251.49558283 -36.94140625 246.56640625 C-50.50406232 223.20624938 -47.63575789 191.46023721 -48.25 165.3125 C-48.82025909 165.28966446 -49.39051819 165.26682892 -49.97805786 165.24330139 C-55.98173605 165.00245751 -61.98528411 164.75854055 -67.98876953 164.51293945 C-70.22116025 164.42200212 -72.45358169 164.33181538 -74.68603516 164.24243164 C-121.3718136 162.37123721 -121.3718136 162.37123721 -134.1328125 149.3984375 C-139.37764834 143.03875733 -140.73767452 135.8838031 -140.49609375 127.76953125 C-139.76527964 120.47299042 -138.4692509 113.09619336 -133.171875 107.70703125 C-123.65903932 100.80442487 -109.76887949 100.02737243 -98.4375 99.1875 C-96.74596802 99.06012451 -96.74596802 99.06012451 -95.02026367 98.93017578 C-78.7892629 97.85194182 -62.50674511 98.13865967 -46.25 98.3125 C-46.27320313 96.99507813 -46.29640625 95.67765625 -46.3203125 94.3203125 C-46.47481752 80.96329423 -46.13999928 67.64341117 -45.55828857 54.30047607 C-45.47843038 52.44896851 -45.40271603 50.59727708 -45.33135986 48.74542236 C-44.73309095 33.50004591 -44.04225322 17.66953337 -33 5.91796875 C-23.89376763 -2.39446376 -11.79072676 -4.92776567 0 0 Z " fill="#403B3B" transform="translate(277.25,129.6875)"/>
</svg>
